STARTFONT 2.1
FONT -HP-Gothic-Bold-R-Normal--18-130-100-100-C-180-JISX0212.1990-0
SIZE 13 100 100
FONTBOUNDINGBOX 18 18 0 -2

STARTPROPERTIES 23
FONTNAME_REGISTRY ""
FOUNDRY "HP"
FAMILY_NAME "Gothic"
WEIGHT_NAME "Bold"
SLANT "R"
SETWIDTH_NAME "Normal"
ADD_STYLE_NAME ""
PIXEL_SIZE 18
POINT_SIZE 130
RESOLUTION_X 100
RESOLUTION_Y 100
SPACING "C"
AVERAGE_WIDTH 180
CHARSET_REGISTRY "JISX0212.1990"
CHARSET_ENCODING "0"
COPYRIGHT "Copyright (c) 1994 Hewlett-Packard Company. Copyright 1994 by Bridge Inc."
_HP_ASXVERSION "@(#) ASX 3.00 $Revision: 13.9 $ gotBX18s"
WEIGHT 10
X_HEIGHT 16
QUAD_WIDTH 18
DEFAULT_CHAR 8481
FONT_DESCENT 2
FONT_ASCENT 16
ENDPROPERTIES

CHARS 6068

STARTCHAR jisx0212_2121
ENCODING 8481
SWIDTH 960 0
DWIDTH 18 0
BBX 18 18 0 -2
BITMAP
000000
000000
300180
000000
000000
000000
000000
000000
000000
000000
000000
000000
000000
000000
000000
300180
000000
000000
ENDCHAR

STARTCHAR jisx0212_222F
ENCODING 8751
SWIDTH 960 0
DWIDTH 18 0
BBX 18 18 0 -2
BITMAP
000000
060C00
031800
01F000
000000
000000
000000
000000
000000
000000
000000
000000
000000
000000
000000
000000
000000
000000
ENDCHAR

STARTCHAR jisx0212_2230
ENCODING 8752
SWIDTH 960 0
DWIDTH 18 0
BBX 18 18 0 -2
BITMAP
000000
031800
01B000
00E000
000000
000000
000000
000000
000000
000000
000000
000000
000000
000000
000000
000000
000000
000000
ENDCHAR

STARTCHAR jisx0212_2231
ENCODING 8753
SWIDTH 960 0
DWIDTH 18 0
BBX 18 18 0 -2
BITMAP
000000
000000
000000
000000
000000
000000
000000
000000
000000
000000
000000
000000
006000
00C000
00E000
033000
01E000
000000
ENDCHAR

STARTCHAR jisx0212_2232
ENCODING 8754
SWIDTH 960 0
DWIDTH 18 0
BBX 18 18 0 -2
BITMAP
000000
00E000
01F000
00E000
000000
000000
000000
000000
000000
000000
000000
000000
000000
000000
000000
000000
000000
000000
ENDCHAR

STARTCHAR jisx0212_2233
ENCODING 8755
SWIDTH 960 0
DWIDTH 18 0
BBX 18 18 0 -2
BITMAP
000000
019800
033000
033000
066000
000000
000000
000000
000000
000000
000000
000000
000000
000000
000000
000000
000000
000000
ENDCHAR

STARTCHAR jisx0212_2234
ENCODING 8756
SWIDTH 960 0
DWIDTH 18 0
BBX 18 18 0 -2
BITMAP
000000
07FC00
000000
000000
000000
000000
000000
000000
000000
000000
000000
000000
000000
000000
000000
000000
000000
000000
ENDCHAR

STARTCHAR jisx0212_2235
ENCODING 8757
SWIDTH 960 0
DWIDTH 18 0
BBX 18 18 0 -2
BITMAP
000000
000000
000000
000000
000000
000000
000000
000000
000000
000000
000000
000000
000C00
001800
003000
003000
001E00
000000
ENDCHAR

STARTCHAR jisx0212_2236
ENCODING 8758
SWIDTH 960 0
DWIDTH 18 0
BBX 18 18 0 -2
BITMAP
000000
00E000
01B000
01B000
00E000
000000
000000
000000
000000
000000
000000
000000
000000
000000
000000
000000
000000
000000
ENDCHAR

STARTCHAR jisx0212_2237
ENCODING 8759
SWIDTH 960 0
DWIDTH 18 0
BBX 18 18 0 -2
BITMAP
000000
03CC00
067800
000000
000000
000000
000000
000000
000000
000000
000000
000000
000000
000000
000000
000000
000000
000000
ENDCHAR

STARTCHAR jisx0212_2238
ENCODING 8760
SWIDTH 960 0
DWIDTH 18 0
BBX 18 18 0 -2
BITMAP
000000
00C000
00C000
00C000
00C000
00C000
00C000
000000
000000
000000
000000
000000
000000
000000
000000
000000
000000
000000
ENDCHAR

STARTCHAR jisx0212_2239
ENCODING 8761
SWIDTH 960 0
DWIDTH 18 0
BBX 18 18 0 -2
BITMAP
000000
00C000
00C000
00C000
00C000
00C000
073800
073800
000000
000000
000000
000000
000000
000000
000000
000000
000000
000000
ENDCHAR

STARTCHAR jisx0212_2242
ENCODING 8770
SWIDTH 960 0
DWIDTH 18 0
BBX 18 18 0 -2
BITMAP
000000
000000
00E000
00E000
000000
000000
00C000
00C000
00C000
00C000
00C000
00C000
00C000
00C000
00C000
00C000
000000
000000
ENDCHAR

STARTCHAR jisx0212_2243
ENCODING 8771
SWIDTH 960 0
DWIDTH 18 0
BBX 18 18 0 -2
BITMAP
000000
00C000
00C000
00C000
00C000
00C000
00C000
00C000
000000
000000
00C000
00C000
00C000
00C000
00C000
00C000
00C000
000000
ENDCHAR

STARTCHAR jisx0212_2244
ENCODING 8772
SWIDTH 960 0
DWIDTH 18 0
BBX 18 18 0 -2
BITMAP
000000
000000
00E000
00E000
000000
000000
006000
006000
006000
00C000
018000
030C00
060C00
060C00
031800
01F000
000000
000000
ENDCHAR

STARTCHAR jisx0212_226B
ENCODING 8811
SWIDTH 960 0
DWIDTH 18 0
BBX 18 18 0 -2
BITMAP
000000
000000
0F0000
198000
30C000
30C000
30C000
30C000
198000
0F0000
000000
7FE000
000000
000000
000000
000000
000000
000000
ENDCHAR

STARTCHAR jisx0212_226C
ENCODING 8812
SWIDTH 960 0
DWIDTH 18 0
BBX 18 18 0 -2
BITMAP
000000
000000
1F8000
30C000
00C000
0FC000
18C000
30C000
31C000
1EC000
000000
7FE000
000000
000000
000000
000000
000000
000000
ENDCHAR

STARTCHAR jisx0212_226D
ENCODING 8813
SWIDTH 960 0
DWIDTH 18 0
BBX 18 18 0 -2
BITMAP
000000
03F800
0E0E00
180300
31F180
331980
660CC0
6600C0
6600C0
6600C0
6600C0
660CC0
331980
31F180
180300
0E0E00
03F800
000000
ENDCHAR

STARTCHAR jisx0212_226E
ENCODING 8814
SWIDTH 960 0
DWIDTH 18 0
BBX 18 18 0 -2
BITMAP
000000
03F800
0E0E00
180300
33F980
330D80
630CC0
630CC0
63F8C0
6330C0
6318C0
6318C0
330D80
330D80
180300
0E0E00
03F800
000000
ENDCHAR

STARTCHAR jisx0212_226F
ENCODING 8815
SWIDTH 960 0
DWIDTH 18 0
BBX 18 18 0 -2
BITMAP
000000
7D8600
19CE00
19CE00
195600
195600
19B600
19B600
000000
000000
000000
000000
000000
000000
000000
000000
000000
000000
ENDCHAR

STARTCHAR jisx0212_2270
ENCODING 8816
SWIDTH 960 0
DWIDTH 18 0
BBX 18 18 0 -2
BITMAP
000000
000000
000000
180300
0DF600
071C00
060C00
0C0600
0C0600
0C0600
0C0600
060C00
071C00
0DF600
180300
000000
000000
000000
ENDCHAR

STARTCHAR jisx0212_2271
ENCODING 8817
SWIDTH 960 0
DWIDTH 18 0
BBX 18 18 0 -2
BITMAP
000000
000000
306700
386D80
3858C0
2C58C0
2C58C0
3658C0
366D80
336700
336000
316000
316000
30E000
30E000
306000
000000
000000
ENDCHAR

STARTCHAR jisx0212_2661
ENCODING 9825
SWIDTH 960 0
DWIDTH 18 0
BBX 18 18 0 -2
BITMAP
000000
0C0000
0CE000
0CE000
0CE000
0DB000
01B000
031800
031800
060C00
060C00
060C00
0FFE00
0C0600
180300
180300
000000
000000
ENDCHAR

STARTCHAR jisx0212_2662
ENCODING 9826
SWIDTH 960 0
DWIDTH 18 0
BBX 18 18 0 -2
BITMAP
000000
300000
33FF80
330000
330000
330000
030000
030000
03FF00
030000
030000
030000
030000
030000
030000
03FF80
000000
000000
ENDCHAR

STARTCHAR jisx0212_2663
ENCODING 9827
SWIDTH 960 0
DWIDTH 18 0
BBX 18 18 0 -2
BITMAP
000000
300000
330180
330180
330180
330180
030180
030180
03FF80
030180
030180
030180
030180
030180
030180
030180
000000
000000
ENDCHAR

STARTCHAR jisx0212_2664
ENCODING 9828
SWIDTH 960 0
DWIDTH 18 0
BBX 18 18 0 -2
BITMAP
000000
030000
033000
033000
033000
033000
003000
003000
003000
003000
003000
003000
003000
003000
003000
003000
000000
000000
ENDCHAR

STARTCHAR jisx0212_2665
ENCODING 9829
SWIDTH 960 0
DWIDTH 18 0
BBX 18 18 0 -2
BITMAP
000000
077000
077000
000000
00C000
00C000
00C000
00C000
00C000
00C000
00C000
00C000
00C000
00C000
00C000
00C000
000000
000000
ENDCHAR

STARTCHAR jisx0212_2667
ENCODING 9831
SWIDTH 960 0
DWIDTH 18 0
BBX 18 18 0 -2
BITMAP
000000
300000
30F800
338E00
360300
360300
0C0180
0C0180
0C0180
0C0180
0C0180
0C0180
060300
060300
038E00
00F800
000000
000000
ENDCHAR

STARTCHAR jisx0212_2669
ENCODING 9833
SWIDTH 960 0
DWIDTH 18 0
BBX 18 18 0 -2
BITMAP
000000
300000
33CF00
365980
2C30C0
2C30C0
003000
003000
003000
003000
003000
003000
003000
003000
003000
003000
000000
000000
ENDCHAR

STARTCHAR jisx0212_266A
ENCODING 9834
SWIDTH 960 0
DWIDTH 18 0
BBX 18 18 0 -2
BITMAP
000000
073800
073800
000000
0F3C00
196600
30C300
30C300
00C000
00C000
00C000
00C000
00C000
00C000
00C000
00C000
000000
000000
ENDCHAR

STARTCHAR jisx0212_266C
ENCODING 9836
SWIDTH 960 0
DWIDTH 18 0
BBX 18 18 0 -2
BITMAP
000000
300000
30F800
338E00
360300
360300
0C0180
0C0180
0C0180
0C0180
060300
060300
030600
018C00
00D800
0FDF80
000000
000000
ENDCHAR

STARTCHAR jisx0212_2671
ENCODING 9841
SWIDTH 960 0
DWIDTH 18 0
BBX 18 18 0 -2
BITMAP
000000
00C000
00C000
00C000
00C000
000000
01E600
033600
061600
061600
0C1C00
0C1C00
0C1800
0C3800
065B00
03CE00
000000
000000
ENDCHAR

STARTCHAR jisx0212_2672
ENCODING 9842
SWIDTH 960 0
DWIDTH 18 0
BBX 18 18 0 -2
BITMAP
000000
00C000
00C000
00C000
00C000
000000
01F800
030C00
030000
030000
03F000
060000
0C0000
0C0C00
0C1800
07F000
000000
000000
ENDCHAR

STARTCHAR jisx0212_2673
ENCODING 9843
SWIDTH 960 0
DWIDTH 18 0
BBX 18 18 0 -2
BITMAP
000000
00C000
00C000
00C000
00C000
000000
077C00
0DC600
018600
018600
030600
030C00
030C00
060C00
061800
001800
001800
000000
ENDCHAR

STARTCHAR jisx0212_2674
ENCODING 9844
SWIDTH 960 0
DWIDTH 18 0
BBX 18 18 0 -2
BITMAP
000000
00C000
00C000
00C000
00C000
000000
00C000
00C000
00C000
018000
018000
018000
030000
033000
036000
01C000
000000
000000
ENDCHAR

STARTCHAR jisx0212_2675
ENCODING 9845
SWIDTH 960 0
DWIDTH 18 0
BBX 18 18 0 -2
BITMAP
000000
000000
03B800
03B800
000000
000000
00C000
00C000
00C000
018000
018000
018000
030000
033000
036000
01C000
000000
000000
ENDCHAR

STARTCHAR jisx0212_2676
ENCODING 9846
SWIDTH 960 0
DWIDTH 18 0
BBX 18 18 0 -2
BITMAP
000000
00C000
00C000
00C000
073800
073800
00C000
00C000
00C000
018000
018000
018000
030000
033000
036000
01C000
000000
000000
ENDCHAR

STARTCHAR jisx0212_2677
ENCODING 9847
SWIDTH 960 0
DWIDTH 18 0
BBX 18 18 0 -2
BITMAP
000000
00C000
00C000
00C000
00C000
000000
01F800
030C00
060600
060600
0C0600
0C0600
0C0C00
0C0C00
061800
03F000
000000
000000
ENDCHAR

STARTCHAR jisx0212_2678
ENCODING 9848
SWIDTH 960 0
DWIDTH 18 0
BBX 18 18 0 -2
BITMAP
000000
000000
000000
000000
000000
000000
01F800
030C00
060600
060600
060C00
030000
018000
00C000
006000
066000
03C000
000000
ENDCHAR

STARTCHAR jisx0212_2679
ENCODING 9849
SWIDTH 960 0
DWIDTH 18 0
BBX 18 18 0 -2
BITMAP
000000
00C000
00C000
00C000
00C000
000000
061800
060C00
060C00
060C00
060C00
0C0C00
0C1800
0C1800
0C3000
07E000
000000
000000
ENDCHAR

STARTCHAR jisx0212_267A
ENCODING 9850
SWIDTH 960 0
DWIDTH 18 0
BBX 18 18 0 -2
BITMAP
000000
000000
03B800
03B800
000000
000000
061800
060C00
060C00
060C00
060C00
0C0C00
0C1800
0C1800
0C3000
07E000
000000
000000
ENDCHAR

STARTCHAR jisx0212_267B
ENCODING 9851
SWIDTH 960 0
DWIDTH 18 0
BBX 18 18 0 -2
BITMAP
000000
00C000
00C000
00C000
073800
073800
000000
061800
060C00
060C00
060C00
0C0C00
0C1800
0C1800
0C3000
07E000
000000
000000
ENDCHAR

STARTCHAR jisx0212_267C
ENCODING 9852
SWIDTH 960 0
DWIDTH 18 0
BBX 18 18 0 -2
BITMAP
000000
006000
006000
006000
006000
000000
018C00
030600
060300
0C6300
0C6300
186300
18C300
18C600
19CC00
0F7800
000000
000000
ENDCHAR

STARTCHAR jisx0212_2742
ENCODING 10050
SWIDTH 960 0
DWIDTH 18 0
BBX 18 18 0 -2
BITMAP
000000
000000
3FFC00
018000
018000
018000
01BE00
016300
01C180
018180
018180
018180
018180
019980
019B00
018E00
000000
000000
ENDCHAR

STARTCHAR jisx0212_2743
ENCODING 10051
SWIDTH 960 0
DWIDTH 18 0
BBX 18 18 0 -2
BITMAP
000000
007000
01C000
000000
07FE00
060000
060000
060000
060000
060000
060000
060000
060000
060000
060000
060000
000000
000000
ENDCHAR

STARTCHAR jisx0212_2744
ENCODING 10052
SWIDTH 960 0
DWIDTH 18 0
BBX 18 18 0 -2
BITMAP
000000
000000
01F000
071C00
0C0600
0C0600
180300
180000
1FF800
180000
180000
180300
0C0600
0C0600
071C00
01F000
000000
000000
ENDCHAR

STARTCHAR jisx0212_2745
ENCODING 10053
SWIDTH 960 0
DWIDTH 18 0
BBX 18 18 0 -2
BITMAP
000000
000000
03F800
060C00
0C0600
0C0600
0C0000
070000
01E000
003C00
000600
000300
0C0300
0C0300
060600
03FC00
000000
000000
ENDCHAR

STARTCHAR jisx0212_2746
ENCODING 10054
SWIDTH 960 0
DWIDTH 18 0
BBX 18 18 0 -2
BITMAP
000000
000000
00C000
00C000
00C000
00C000
00C000
00C000
00C000
00C000
00C000
00C000
00C000
00C000
00C000
00C000
000000
000000
ENDCHAR

STARTCHAR jisx0212_2747
ENCODING 10055
SWIDTH 960 0
DWIDTH 18 0
BBX 18 18 0 -2
BITMAP
000000
077000
077000
000000
00C000
00C000
00C000
00C000
00C000
00C000
00C000
00C000
00C000
00C000
00C000
00C000
000000
000000
ENDCHAR

STARTCHAR jisx0212_2748
ENCODING 10056
SWIDTH 960 0
DWIDTH 18 0
BBX 18 18 0 -2
BITMAP
000000
000000
001800
001800
001800
001800
001800
001800
001800
001800
001800
001800
0C1800
0C1800
063000
03E000
000000
000000
ENDCHAR

STARTCHAR jisx0212_2749
ENCODING 10057
SWIDTH 960 0
DWIDTH 18 0
BBX 18 18 0 -2
BITMAP
000000
000000
033000
033000
033000
033000
033000
033000
033F00
033180
0330C0
0330C0
0330C0
6330C0
633180
3E3F00
000000
000000
ENDCHAR

STARTCHAR jisx0212_274A
ENCODING 10058
SWIDTH 960 0
DWIDTH 18 0
BBX 18 18 0 -2
BITMAP
000000
000000
306000
306000
306000
306000
306000
306000
3FFF00
306180
3060C0
3060C0
3060C0
3060C0
306180
307F00
000000
000000
ENDCHAR

STARTCHAR jisx0212_274B
ENCODING 10059
SWIDTH 960 0
DWIDTH 18 0
BBX 18 18 0 -2
BITMAP
000000
000000
3FFC00
018000
018000
018000
017E00
01C300
018300
018300
018300
018300
018300
018300
018300
018300
000000
000000
ENDCHAR

STARTCHAR jisx0212_274C
ENCODING 10060
SWIDTH 960 0
DWIDTH 18 0
BBX 18 18 0 -2
BITMAP
000000
00E000
0B8C00
0C1800
0C3000
0C6000
0CC000
0F8000
0CC000
0C6000
0C6000
0C3000
0C1800
0C1800
0C0C00
0C0600
000000
000000
ENDCHAR

STARTCHAR jisx0212_274D
ENCODING 10061
SWIDTH 960 0
DWIDTH 18 0
BBX 18 18 0 -2
BITMAP
000000
033000
19E600
0C0C00
0C0C00
061800
061800
033000
033000
016000
016000
00C000
00C000
018000
018000
0F0000
000000
000000
ENDCHAR

STARTCHAR jisx0212_274E
ENCODING 10062
SWIDTH 960 0
DWIDTH 18 0
BBX 18 18 0 -2
BITMAP
000000
000000
180600
180600
180600
180600
180600
180600
180600
180600
180600
180600
180600
180600
1FFE00
00C000
00C000
000000
ENDCHAR

STARTCHAR jisx0212_2772
ENCODING 10098
SWIDTH 960 0
DWIDTH 18 0
BBX 18 18 0 -2
BITMAP
000000
000000
060000
060000
1F8000
060000
05F800
070C00
060C00
060C00
060C00
060C00
060C00
060C00
060C00
060C00
007800
000000
ENDCHAR

STARTCHAR jisx0212_2773
ENCODING 10099
SWIDTH 960 0
DWIDTH 18 0
BBX 18 18 0 -2
BITMAP
000000
000000
003800
00E000
000000
000000
03FC00
030000
030000
030000
030000
030000
030000
030000
030000
030000
000000
000000
ENDCHAR

STARTCHAR jisx0212_2774
ENCODING 10100
SWIDTH 960 0
DWIDTH 18 0
BBX 18 18 0 -2
BITMAP
000000
000000
000000
000000
000000
000000
01F800
030C00
060600
060000
07F800
060000
060000
060600
030C00
01F800
000000
000000
ENDCHAR

STARTCHAR jisx0212_2775
ENCODING 10101
SWIDTH 960 0
DWIDTH 18 0
BBX 18 18 0 -2
BITMAP
000000
000000
000000
000000
000000
000000
03F800
060C00
060C00
060000
03C000
007800
000C00
060C00
060C00
03F800
000000
000000
ENDCHAR

STARTCHAR jisx0212_2776
ENCODING 10102
SWIDTH 960 0
DWIDTH 18 0
BBX 18 18 0 -2
BITMAP
000000
000000
01C000
01C000
000000
000000
00C000
00C000
00C000
00C000
00C000
00C000
00C000
00C000
00C000
00C000
000000
000000
ENDCHAR

STARTCHAR jisx0212_2777
ENCODING 10103
SWIDTH 960 0
DWIDTH 18 0
BBX 18 18 0 -2
BITMAP
000000
000000
077000
077000
000000
000000
00C000
00C000
00C000
00C000
00C000
00C000
00C000
00C000
00C000
00C000
000000
000000
ENDCHAR

STARTCHAR jisx0212_2778
ENCODING 10104
SWIDTH 960 0
DWIDTH 18 0
BBX 18 18 0 -2
BITMAP
000000
000000
00E000
00E000
000000
000000
006000
006000
006000
006000
006000
006000
006000
006000
006000
006000
03C000
000000
ENDCHAR

STARTCHAR jisx0212_2779
ENCODING 10105
SWIDTH 960 0
DWIDTH 18 0
BBX 18 18 0 -2
BITMAP
000000
000000
000000
000000
000000
000000
036000
036000
036000
036000
037F00
036180
036180
336180
336180
1E7F00
000000
000000
ENDCHAR

STARTCHAR jisx0212_277A
ENCODING 10106
SWIDTH 960 0
DWIDTH 18 0
BBX 18 18 0 -2
BITMAP
000000
000000
000000
000000
000000
000000
186000
186000
186000
186000
1FFF00
186180
186180
186180
186180
187F00
000000
000000
ENDCHAR

STARTCHAR jisx0212_277B
ENCODING 10107
SWIDTH 960 0
DWIDTH 18 0
BBX 18 18 0 -2
BITMAP
000000
000000
060000
060000
1FE000
060000
05F800
070C00
060C00
060C00
060C00
060C00
060C00
060C00
060C00
060C00
000000
000000
ENDCHAR

STARTCHAR jisx0212_277C
ENCODING 10108
SWIDTH 960 0
DWIDTH 18 0
BBX 18 18 0 -2
BITMAP
000000
000000
007000
01C000
000000
000000
061C00
063000
063000
063000
07E000
063000
061800
061800
060C00
060C00
000000
000000
ENDCHAR

STARTCHAR jisx0212_277D
ENCODING 10109
SWIDTH 960 0
DWIDTH 18 0
BBX 18 18 0 -2
BITMAP
000000
000000
033000
01E000
000000
000000
060C00
060C00
031800
031800
01B000
01B000
00E000
00E000
00C000
00C000
078000
000000
ENDCHAR

STARTCHAR jisx0212_277E
ENCODING 10110
SWIDTH 960 0
DWIDTH 18 0
BBX 18 18 0 -2
BITMAP
000000
000000
000000
000000
000000
000000
061800
061800
061800
061800
061800
061800
061800
061800
07F800
00C000
00C000
000000
ENDCHAR

STARTCHAR jisx0212_2921
ENCODING 10529
SWIDTH 960 0
DWIDTH 18 0
BBX 18 18 0 -2
BITMAP
000000
000000
01FFC0
016000
036000
036000
066000
066000
0C7F80
0C6000
1FE000
186000
306000
306000
606000
607FC0
000000
000000
ENDCHAR

STARTCHAR jisx0212_2922
ENCODING 10530
SWIDTH 960 0
DWIDTH 18 0
BBX 18 18 0 -2
BITMAP
000000
000000
0FF000
0C1C00
0C0600
0C0600
0C0300
0C0300
7F8300
0C0300
0C0300
0C0300
0C0600
0C0600
0C1C00
0FF000
000000
000000
ENDCHAR

STARTCHAR jisx0212_2924
ENCODING 10532
SWIDTH 960 0
DWIDTH 18 0
BBX 18 18 0 -2
BITMAP
000000
000000
0C0600
0C0600
7FFFC0
0C0600
0C0600
0C0600
0FFE00
0C0600
0C0600
0C0600
0C0600
0C0600
0C0600
0C0600
000000
000000
ENDCHAR

STARTCHAR jisx0212_2926
ENCODING 10534
SWIDTH 960 0
DWIDTH 18 0
BBX 18 18 0 -2
BITMAP
000000
000000
0C0600
0C0600
0C0600
0C0600
0C0600
0C0600
0C0600
0C0600
0C0600
0C0600
0D8600
0D8600
0CCC00
0C7800
000000
000000
ENDCHAR

STARTCHAR jisx0212_2928
ENCODING 10536
SWIDTH 960 0
DWIDTH 18 0
BBX 18 18 0 -2
BITMAP
000000
000000
060000
060000
060000
06C000
058000
070000
060000
0E0000
160000
360000
060000
060000
060000
07FF00
000000
000000
ENDCHAR

STARTCHAR jisx0212_2929
ENCODING 10537
SWIDTH 960 0
DWIDTH 18 0
BBX 18 18 0 -2
BITMAP
000000
000000
060000
060000
060000
060000
060000
060000
06E000
06E000
060000
060000
060000
060000
060000
07FF00
000000
000000
ENDCHAR

STARTCHAR jisx0212_292B
ENCODING 10539
SWIDTH 960 0
DWIDTH 18 0
BBX 18 18 0 -2
BITMAP
000000
000000
06F800
058C00
070600
060600
060600
060600
060600
060600
060600
060600
060600
06C600
06CC00
067800
000000
000000
ENDCHAR

STARTCHAR jisx0212_292C
ENCODING 10540
SWIDTH 960 0
DWIDTH 18 0
BBX 18 18 0 -2
BITMAP
000000
000000
01F180
071B00
0C0600
0C0E00
181B00
183300
186300
18C300
198300
1B0300
0E0600
0C0600
171C00
31F000
000000
000000
ENDCHAR

STARTCHAR jisx0212_292D
ENCODING 10541
SWIDTH 960 0
DWIDTH 18 0
BBX 18 18 0 -2
BITMAP
000000
000000
07FFC0
1C6000
306000
306000
606000
606000
607F80
606000
606000
606000
306000
306000
1C6000
07FFC0
000000
000000
ENDCHAR

STARTCHAR jisx0212_292F
ENCODING 10543
SWIDTH 960 0
DWIDTH 18 0
BBX 18 18 0 -2
BITMAP
000000
000000
1FFE00
00C000
00C000
00C000
00C000
00C000
07F800
00C000
00C000
00C000
00C000
00C000
00C000
00C000
000000
000000
ENDCHAR

STARTCHAR jisx0212_2930
ENCODING 10544
SWIDTH 960 0
DWIDTH 18 0
BBX 18 18 0 -2
BITMAP
000000
000000
060000
060000
060000
07F800
060C00
060600
060600
060600
060C00
07F800
060000
060000
060000
060000
000000
000000
ENDCHAR

STARTCHAR jisx0212_2941
ENCODING 10561
SWIDTH 960 0
DWIDTH 18 0
BBX 18 18 0 -2
BITMAP
000000
000000
000000
000000
000000
000000
0F3E00
196300
30C180
00C180
07FF80
1CC000
30C000
30C180
316300
1F3E00
000000
000000
ENDCHAR

STARTCHAR jisx0212_2942
ENCODING 10562
SWIDTH 960 0
DWIDTH 18 0
BBX 18 18 0 -2
BITMAP
000000
000000
000C00
000C00
00FF00
000C00
01EC00
031C00
060C00
060C00
060C00
060C00
060C00
060C00
031C00
01EC00
000000
000000
ENDCHAR

STARTCHAR jisx0212_2943
ENCODING 10563
SWIDTH 960 0
DWIDTH 18 0
BBX 18 18 0 -2
BITMAP
000000
000000
07B800
00E000
036000
003000
01F800
031800
060C00
060C00
060C00
060C00
060C00
060C00
031800
01F000
000000
000000
ENDCHAR

STARTCHAR jisx0212_2944
ENCODING 10564
SWIDTH 960 0
DWIDTH 18 0
BBX 18 18 0 -2
BITMAP
000000
000000
060000
060000
1FF000
060000
05F800
070C00
060C00
060C00
060C00
060C00
060C00
060C00
060C00
060C00
000000
000000
ENDCHAR

STARTCHAR jisx0212_2945
ENCODING 10565
SWIDTH 960 0
DWIDTH 18 0
BBX 18 18 0 -2
BITMAP
000000
000000
000000
000000
000000
000000
00C000
00C000
00C000
00C000
00C000
00C000
00C000
00C000
00C000
00C000
000000
000000
ENDCHAR

STARTCHAR jisx0212_2946
ENCODING 10566
SWIDTH 960 0
DWIDTH 18 0
BBX 18 18 0 -2
BITMAP
000000
000000
071C00
071C00
000000
000000
030C00
030C00
030C00
030C00
030C00
030C00
030C00
030C00
030C00
030C00
007800
000000
ENDCHAR

STARTCHAR jisx0212_2947
ENCODING 10567
SWIDTH 960 0
DWIDTH 18 0
BBX 18 18 0 -2
BITMAP
000000
000000
000000
000000
000000
000000
030C00
031800
033000
036000
02C000
036000
033000
031800
030C00
030600
000000
000000
ENDCHAR

STARTCHAR jisx0212_2948
ENCODING 10568
SWIDTH 960 0
DWIDTH 18 0
BBX 18 18 0 -2
BITMAP
000000
000000
00C000
00C000
00C000
00C000
00D800
00B000
00E000
00C000
01C000
02C000
06C000
00C000
00C000
00F000
000000
000000
ENDCHAR

STARTCHAR jisx0212_2949
ENCODING 10569
SWIDTH 960 0
DWIDTH 18 0
BBX 18 18 0 -2
BITMAP
000000
000000
018000
018000
018000
018000
018000
018000
01B800
01B800
018000
018000
018000
018000
018000
01E000
000000
000000
ENDCHAR

STARTCHAR jisx0212_294A
ENCODING 10570
SWIDTH 960 0
DWIDTH 18 0
BBX 18 18 0 -2
BITMAP
000000
000000
000000
000000
000000
180000
197E00
19C300
198300
198300
018300
018300
018300
018300
018300
018300
000000
000000
ENDCHAR

STARTCHAR jisx0212_294B
ENCODING 10571
SWIDTH 960 0
DWIDTH 18 0
BBX 18 18 0 -2
BITMAP
000000
000000
000000
000000
000000
000000
05F800
070C00
060C00
060C00
060C00
060C00
060C00
060C00
060C00
060C00
007800
000000
ENDCHAR

STARTCHAR jisx0212_294C
ENCODING 10572
SWIDTH 960 0
DWIDTH 18 0
BBX 18 18 0 -2
BITMAP
000000
000000
000000
000000
000000
000000
03EC00
061800
0C2C00
0C6C00
0CCC00
0CCC00
0D8C00
0B0C00
061800
0BF000
000000
000000
ENDCHAR

STARTCHAR jisx0212_294D
ENCODING 10573
SWIDTH 960 0
DWIDTH 18 0
BBX 18 18 0 -2
BITMAP
000000
000000
000000
000000
000000
000000
0F9E00
18B300
306180
306180
307F80
306000
306000
306180
18B300
0F9E00
000000
000000
ENDCHAR

STARTCHAR jisx0212_294E
ENCODING 10574
SWIDTH 960 0
DWIDTH 18 0
BBX 18 18 0 -2
BITMAP
000000
000000
01F000
031800
060C00
060C00
060C00
061800
06F000
061800
060C00
060600
060600
058600
058C00
06F800
000000
000000
ENDCHAR

STARTCHAR jisx0212_294F
ENCODING 10575
SWIDTH 960 0
DWIDTH 18 0
BBX 18 18 0 -2
BITMAP
000000
000000
00C000
00C000
00C000
00C000
03F800
00C000
00C000
03F000
00C000
00C000
00C000
00C000
00C000
007800
000000
000000
ENDCHAR

STARTCHAR jisx0212_2950
ENCODING 10576
SWIDTH 960 0
DWIDTH 18 0
BBX 18 18 0 -2
BITMAP
000000
000000
030000
030000
030000
030000
02F800
038C00
030600
030600
030600
030600
030600
038C00
02F800
030000
030000
000000
ENDCHAR

STARTCHAR jisx0212_2A21
ENCODING 10785
SWIDTH 960 0
DWIDTH 18 0
BBX 18 18 0 -2
BITMAP
000000
007000
01C000
000000
00E000
00E000
01B000
01B000
031800
031800
060C00
060C00
0FFE00
0C0600
180300
180300
000000
000000
ENDCHAR

STARTCHAR jisx0212_2A22
ENCODING 10786
SWIDTH 960 0
DWIDTH 18 0
BBX 18 18 0 -2
BITMAP
000000
01C000
007000
000000
00E000
00E000
01B000
01B000
031800
031800
060C00
060C00
0FFE00
0C0600
180300
180300
000000
000000
ENDCHAR

STARTCHAR jisx0212_2A23
ENCODING 10787
SWIDTH 960 0
DWIDTH 18 0
BBX 18 18 0 -2
BITMAP
000000
03B800
03B800
000000
00E000
00E000
01B000
01B000
031800
031800
060C00
060C00
0FFE00
0C0600
180300
180300
000000
000000
ENDCHAR

STARTCHAR jisx0212_2A24
ENCODING 10788
SWIDTH 960 0
DWIDTH 18 0
BBX 18 18 0 -2
BITMAP
000000
00E000
03B800
000000
00E000
00E000
01B000
01B000
031800
031800
060C00
060C00
0FFE00
0C0600
180300
180300
000000
000000
ENDCHAR

STARTCHAR jisx0212_2A25
ENCODING 10789
SWIDTH 960 0
DWIDTH 18 0
BBX 18 18 0 -2
BITMAP
000000
033000
01E000
000000
00E000
00E000
01B000
01B000
031800
031800
060C00
060C00
0FFE00
0C0600
180300
180300
000000
000000
ENDCHAR

STARTCHAR jisx0212_2A26
ENCODING 10790
SWIDTH 960 0
DWIDTH 18 0
BBX 18 18 0 -2
BITMAP
000000
03B800
00E000
000000
00E000
00E000
01B000
01B000
031800
031800
060C00
060C00
0FFE00
0C0600
180300
180300
000000
000000
ENDCHAR

STARTCHAR jisx0212_2A27
ENCODING 10791
SWIDTH 960 0
DWIDTH 18 0
BBX 18 18 0 -2
BITMAP
000000
03F800
000000
000000
00E000
00E000
01B000
01B000
031800
031800
060C00
060C00
0FFE00
0C0600
180300
180300
000000
000000
ENDCHAR

STARTCHAR jisx0212_2A28
ENCODING 10792
SWIDTH 960 0
DWIDTH 18 0
BBX 18 18 0 -2
BITMAP
000000
000000
00E000
00E000
01B000
01B000
031800
031800
060C00
060C00
060C00
0FFE00
0C0600
180300
180700
000C00
000780
000000
ENDCHAR

STARTCHAR jisx0212_2A29
ENCODING 10793
SWIDTH 960 0
DWIDTH 18 0
BBX 18 18 0 -2
BITMAP
000000
00E000
01B000
01B000
00E000
00E000
01B000
01B000
031800
031800
060C00
060C00
0FFE00
0C0600
180300
180300
000000
000000
ENDCHAR

STARTCHAR jisx0212_2A2A
ENCODING 10794
SWIDTH 960 0
DWIDTH 18 0
BBX 18 18 0 -2
BITMAP
000000
01D800
037000
000000
00E000
00E000
01B000
01B000
031800
031800
060C00
060C00
0FFE00
0C0600
180300
180300
000000
000000
ENDCHAR

STARTCHAR jisx0212_2A2B
ENCODING 10795
SWIDTH 960 0
DWIDTH 18 0
BBX 18 18 0 -2
BITMAP
000000
007000
01C000
000000
01F800
070C00
060600
0C0300
0C0000
0C0000
0C0000
0C0000
0C0300
060600
070C00
01F800
000000
000000
ENDCHAR

STARTCHAR jisx0212_2A2C
ENCODING 10796
SWIDTH 960 0
DWIDTH 18 0
BBX 18 18 0 -2
BITMAP
000000
00E000
03B800
000000
01F800
070C00
060600
0C0300
0C0000
0C0000
0C0000
0C0000
0C0300
060600
070C00
01F800
000000
000000
ENDCHAR

STARTCHAR jisx0212_2A2D
ENCODING 10797
SWIDTH 960 0
DWIDTH 18 0
BBX 18 18 0 -2
BITMAP
000000
03B800
00E000
000000
01F800
070C00
060600
0C0300
0C0000
0C0000
0C0000
0C0000
0C0300
060600
070C00
01F800
000000
000000
ENDCHAR

STARTCHAR jisx0212_2A2E
ENCODING 10798
SWIDTH 960 0
DWIDTH 18 0
BBX 18 18 0 -2
BITMAP
000000
000000
01F800
070C00
060600
0C0300
0C0000
0C0000
0C0000
0C0000
0C0300
060600
070C00
01F800
006000
003000
01E000
000000
ENDCHAR

STARTCHAR jisx0212_2A2F
ENCODING 10799
SWIDTH 960 0
DWIDTH 18 0
BBX 18 18 0 -2
BITMAP
000000
00E000
00E000
000000
01F800
070C00
060600
0C0300
0C0000
0C0000
0C0000
0C0000
0C0300
060600
070C00
01F800
000000
000000
ENDCHAR

STARTCHAR jisx0212_2A30
ENCODING 10800
SWIDTH 960 0
DWIDTH 18 0
BBX 18 18 0 -2
BITMAP
000000
03B800
00E000
000000
0FF000
0C1C00
0C0C00
0C0600
0C0600
0C0600
0C0600
0C0600
0C0600
0C0C00
0C1C00
0FF000
000000
000000
ENDCHAR

STARTCHAR jisx0212_2A31
ENCODING 10801
SWIDTH 960 0
DWIDTH 18 0
BBX 18 18 0 -2
BITMAP
000000
007000
01C000
000000
07FE00
060000
060000
060000
060000
07FC00
060000
060000
060000
060000
060000
07FE00
000000
000000
ENDCHAR

STARTCHAR jisx0212_2A32
ENCODING 10802
SWIDTH 960 0
DWIDTH 18 0
BBX 18 18 0 -2
BITMAP
000000
01C000
007000
000000
07FE00
060000
060000
060000
060000
07FC00
060000
060000
060000
060000
060000
07FE00
000000
000000
ENDCHAR

STARTCHAR jisx0212_2A33
ENCODING 10803
SWIDTH 960 0
DWIDTH 18 0
BBX 18 18 0 -2
BITMAP
000000
03B800
03B800
000000
07FE00
060000
060000
060000
060000
07FC00
060000
060000
060000
060000
060000
07FE00
000000
000000
ENDCHAR

STARTCHAR jisx0212_2A34
ENCODING 10804
SWIDTH 960 0
DWIDTH 18 0
BBX 18 18 0 -2
BITMAP
000000
00E000
03B800
000000
07FE00
060000
060000
060000
060000
07FC00
060000
060000
060000
060000
060000
07FE00
000000
000000
ENDCHAR

STARTCHAR jisx0212_2A35
ENCODING 10805
SWIDTH 960 0
DWIDTH 18 0
BBX 18 18 0 -2
BITMAP
000000
03B800
00E000
000000
07FE00
060000
060000
060000
060000
07FC00
060000
060000
060000
060000
060000
07FE00
000000
000000
ENDCHAR

STARTCHAR jisx0212_2A36
ENCODING 10806
SWIDTH 960 0
DWIDTH 18 0
BBX 18 18 0 -2
BITMAP
000000
00E000
00E000
000000
07FE00
060000
060000
060000
060000
07FC00
060000
060000
060000
060000
060000
07FE00
000000
000000
ENDCHAR

STARTCHAR jisx0212_2A37
ENCODING 10807
SWIDTH 960 0
DWIDTH 18 0
BBX 18 18 0 -2
BITMAP
000000
03F800
000000
000000
07FE00
060000
060000
060000
060000
07FC00
060000
060000
060000
060000
060000
07FE00
000000
000000
ENDCHAR

STARTCHAR jisx0212_2A38
ENCODING 10808
SWIDTH 960 0
DWIDTH 18 0
BBX 18 18 0 -2
BITMAP
000000
000000
07FE00
060000
060000
060000
060000
07FC00
060000
060000
060000
060000
060000
07FE00
001800
003000
001E00
000000
ENDCHAR

STARTCHAR jisx0212_2A3A
ENCODING 10810
SWIDTH 960 0
DWIDTH 18 0
BBX 18 18 0 -2
BITMAP
000000
01C000
077000
000000
03F000
0E1800
0C0C00
180600
180000
180000
183E00
180600
180600
0C0E00
0E1600
03F600
000000
000000
ENDCHAR

STARTCHAR jisx0212_2A3B
ENCODING 10811
SWIDTH 960 0
DWIDTH 18 0
BBX 18 18 0 -2
BITMAP
000000
033000
01E000
000000
03F000
0E1800
0C0C00
180600
180000
180000
183E00
180600
180600
0C0E00
0E1600
03F600
000000
000000
ENDCHAR

STARTCHAR jisx0212_2A3C
ENCODING 10812
SWIDTH 960 0
DWIDTH 18 0
BBX 18 18 0 -2
BITMAP
000000
000000
03F000
0E1800
0C0C00
180600
180000
180000
183E00
180600
180600
0C0E00
0E1600
03F600
00C000
006000
03C000
000000
ENDCHAR

STARTCHAR jisx0212_2A3D
ENCODING 10813
SWIDTH 960 0
DWIDTH 18 0
BBX 18 18 0 -2
BITMAP
000000
01C000
01C000
000000
03F000
0E1800
0C0C00
180600
180000
180000
183E00
180600
180600
0C0E00
0E1600
03F600
000000
000000
ENDCHAR

STARTCHAR jisx0212_2A3E
ENCODING 10814
SWIDTH 960 0
DWIDTH 18 0
BBX 18 18 0 -2
BITMAP
000000
00E000
03B800
0C0600
0C0600
0C0600
0C0600
0C0600
0C0600
0FFE00
0C0600
0C0600
0C0600
0C0600
0C0600
0C0600
000000
000000
ENDCHAR

STARTCHAR jisx0212_2A3F
ENCODING 10815
SWIDTH 960 0
DWIDTH 18 0
BBX 18 18 0 -2
BITMAP
000000
00E000
038000
000000
00C000
00C000
00C000
00C000
00C000
00C000
00C000
00C000
00C000
00C000
00C000
00C000
000000
000000
ENDCHAR

STARTCHAR jisx0212_2A40
ENCODING 10816
SWIDTH 960 0
DWIDTH 18 0
BBX 18 18 0 -2
BITMAP
000000
038000
00E000
000000
00C000
00C000
00C000
00C000
00C000
00C000
00C000
00C000
00C000
00C000
00C000
00C000
000000
000000
ENDCHAR

STARTCHAR jisx0212_2A41
ENCODING 10817
SWIDTH 960 0
DWIDTH 18 0
BBX 18 18 0 -2
BITMAP
000000
077000
077000
000000
00C000
00C000
00C000
00C000
00C000
00C000
00C000
00C000
00C000
00C000
00C000
00C000
000000
000000
ENDCHAR

STARTCHAR jisx0212_2A42
ENCODING 10818
SWIDTH 960 0
DWIDTH 18 0
BBX 18 18 0 -2
BITMAP
000000
01C000
077000
000000
00C000
00C000
00C000
00C000
00C000
00C000
00C000
00C000
00C000
00C000
00C000
00C000
000000
000000
ENDCHAR

STARTCHAR jisx0212_2A43
ENCODING 10819
SWIDTH 960 0
DWIDTH 18 0
BBX 18 18 0 -2
BITMAP
000000
077000
01C000
000000
00C000
00C000
00C000
00C000
00C000
00C000
00C000
00C000
00C000
00C000
00C000
00C000
000000
000000
ENDCHAR

STARTCHAR jisx0212_2A44
ENCODING 10820
SWIDTH 960 0
DWIDTH 18 0
BBX 18 18 0 -2
BITMAP
000000
01C000
01C000
000000
00C000
00C000
00C000
00C000
00C000
00C000
00C000
00C000
00C000
00C000
00C000
00C000
000000
000000
ENDCHAR

STARTCHAR jisx0212_2A45
ENCODING 10821
SWIDTH 960 0
DWIDTH 18 0
BBX 18 18 0 -2
BITMAP
000000
03F000
000000
00C000
00C000
00C000
00C000
00C000
00C000
00C000
00C000
00C000
00C000
00C000
00C000
00C000
000000
000000
ENDCHAR

STARTCHAR jisx0212_2A46
ENCODING 10822
SWIDTH 960 0
DWIDTH 18 0
BBX 18 18 0 -2
BITMAP
000000
000000
00C000
00C000
00C000
00C000
00C000
00C000
00C000
00C000
00C000
00C000
00C000
00C000
00C000
018000
00F000
000000
ENDCHAR

STARTCHAR jisx0212_2A47
ENCODING 10823
SWIDTH 960 0
DWIDTH 18 0
BBX 18 18 0 -2
BITMAP
000000
03B000
06E000
000000
00C000
00C000
00C000
00C000
00C000
00C000
00C000
00C000
00C000
00C000
00C000
00C000
000000
000000
ENDCHAR

STARTCHAR jisx0212_2A48
ENCODING 10824
SWIDTH 960 0
DWIDTH 18 0
BBX 18 18 0 -2
BITMAP
000000
00E000
03B800
000000
003000
003000
003000
003000
003000
003000
003000
003000
0C3000
0C3000
066000
03C000
000000
000000
ENDCHAR

STARTCHAR jisx0212_2A49
ENCODING 10825
SWIDTH 960 0
DWIDTH 18 0
BBX 18 18 0 -2
BITMAP
000000
000000
060600
060C00
061800
063000
066000
06C000
056000
073000
061800
061800
060C00
06C600
06E300
003000
01E000
000000
ENDCHAR

STARTCHAR jisx0212_2A4A
ENCODING 10826
SWIDTH 960 0
DWIDTH 18 0
BBX 18 18 0 -2
BITMAP
000000
007000
01C000
060000
060000
060000
060000
060000
060000
060000
060000
060000
060000
060000
060000
07FE00
000000
000000
ENDCHAR

STARTCHAR jisx0212_2A4B
ENCODING 10827
SWIDTH 960 0
DWIDTH 18 0
BBX 18 18 0 -2
BITMAP
000000
03B800
00E000
060000
060000
060000
060000
060000
060000
060000
060000
060000
060000
060000
060000
07FE00
000000
000000
ENDCHAR

STARTCHAR jisx0212_2A4C
ENCODING 10828
SWIDTH 960 0
DWIDTH 18 0
BBX 18 18 0 -2
BITMAP
000000
000000
060000
060000
060000
060000
060000
060000
060000
060000
060000
060000
060000
07FE00
006000
003000
01E000
000000
ENDCHAR

STARTCHAR jisx0212_2A4D
ENCODING 10829
SWIDTH 960 0
DWIDTH 18 0
BBX 18 18 0 -2
BITMAP
000000
007000
01C000
0C0600
0E0600
0B0600
0D8600
0D8600
0CC600
0C6600
0C6600
0C3600
0C1600
0C1600
0C0E00
0C0600
000000
000000
ENDCHAR

STARTCHAR jisx0212_2A4E
ENCODING 10830
SWIDTH 960 0
DWIDTH 18 0
BBX 18 18 0 -2
BITMAP
000000
03B800
00E000
0C0600
0E0600
0B0600
0D8600
0D8600
0CC600
0C6600
0C6600
0C3600
0C1600
0C1600
0C0E00
0C0600
000000
000000
ENDCHAR

STARTCHAR jisx0212_2A4F
ENCODING 10831
SWIDTH 960 0
DWIDTH 18 0
BBX 18 18 0 -2
BITMAP
000000
000000
0C0600
0E0600
0B0600
0D8600
0D8600
0CC600
0C6600
0C6600
0C3600
0C1600
0C1600
0CCE00
0CE600
003000
01E000
000000
ENDCHAR

STARTCHAR jisx0212_2A50
ENCODING 10832
SWIDTH 960 0
DWIDTH 18 0
BBX 18 18 0 -2
BITMAP
000000
01D800
037000
0C0600
0E0600
0B0600
0D8600
0D8600
0CC600
0C6600
0C6600
0C3600
0C1600
0C1600
0C0E00
0C0600
000000
000000
ENDCHAR

STARTCHAR jisx0212_2A51
ENCODING 10833
SWIDTH 960 0
DWIDTH 18 0
BBX 18 18 0 -2
BITMAP
000000
00E000
038000
000000
03F000
0E1C00
0C0C00
180600
180600
180600
180600
180600
180600
0C0C00
0E1C00
03F000
000000
000000
ENDCHAR

STARTCHAR jisx0212_2A52
ENCODING 10834
SWIDTH 960 0
DWIDTH 18 0
BBX 18 18 0 -2
BITMAP
000000
038000
00E000
000000
03F000
0E1C00
0C0C00
180600
180600
180600
180600
180600
180600
0C0C00
0E1C00
03F000
000000
000000
ENDCHAR

STARTCHAR jisx0212_2A53
ENCODING 10835
SWIDTH 960 0
DWIDTH 18 0
BBX 18 18 0 -2
BITMAP
000000
077000
077000
000000
03F000
0E1C00
0C0C00
180600
180600
180600
180600
180600
180600
0C0C00
0E1C00
03F000
000000
000000
ENDCHAR

STARTCHAR jisx0212_2A54
ENCODING 10836
SWIDTH 960 0
DWIDTH 18 0
BBX 18 18 0 -2
BITMAP
000000
01C000
077000
000000
03F000
0E1C00
0C0C00
180600
180600
180600
180600
180600
180600
0C0C00
0E1C00
03F000
000000
000000
ENDCHAR

STARTCHAR jisx0212_2A55
ENCODING 10837
SWIDTH 960 0
DWIDTH 18 0
BBX 18 18 0 -2
BITMAP
000000
077000
01C000
000000
03F000
0E1C00
0C0C00
180600
180600
180600
180600
180600
180600
0C0C00
0E1C00
03F000
000000
000000
ENDCHAR

STARTCHAR jisx0212_2A56
ENCODING 10838
SWIDTH 960 0
DWIDTH 18 0
BBX 18 18 0 -2
BITMAP
000000
039C00
0E7000
000000
03F000
0E1C00
0C0C00
180600
180600
180600
180600
180600
180600
0C0C00
0E1C00
03F000
000000
000000
ENDCHAR

STARTCHAR jisx0212_2A57
ENCODING 10839
SWIDTH 960 0
DWIDTH 18 0
BBX 18 18 0 -2
BITMAP
000000
07F000
000000
000000
03F000
0E1C00
0C0C00
180600
180600
180600
180600
180600
180600
0C0C00
0E1C00
03F000
000000
000000
ENDCHAR

STARTCHAR jisx0212_2A58
ENCODING 10840
SWIDTH 960 0
DWIDTH 18 0
BBX 18 18 0 -2
BITMAP
000000
03B000
06E000
000000
03F000
0E1C00
0C0C00
180600
180600
180600
180600
180600
180600
0C0C00
0E1C00
03F000
000000
000000
ENDCHAR

STARTCHAR jisx0212_2A59
ENCODING 10841
SWIDTH 960 0
DWIDTH 18 0
BBX 18 18 0 -2
BITMAP
000000
007000
01C000
000000
07F800
060C00
060600
060600
060600
060C00
07F800
060C00
060600
060600
060300
060300
000000
000000
ENDCHAR

STARTCHAR jisx0212_2A5A
ENCODING 10842
SWIDTH 960 0
DWIDTH 18 0
BBX 18 18 0 -2
BITMAP
000000
03B800
00E000
000000
07F800
060C00
060600
060600
060600
060C00
07F800
060C00
060600
060600
060300
060300
000000
000000
ENDCHAR

STARTCHAR jisx0212_2A5B
ENCODING 10843
SWIDTH 960 0
DWIDTH 18 0
BBX 18 18 0 -2
BITMAP
000000
000000
07F800
060C00
060600
060600
060600
060C00
07F800
060C00
060C00
060600
060600
066300
067300
001800
00F000
000000
ENDCHAR

STARTCHAR jisx0212_2A5C
ENCODING 10844
SWIDTH 960 0
DWIDTH 18 0
BBX 18 18 0 -2
BITMAP
000000
007000
01C000
000000
03F000
061800
0C0C00
0C0C00
070000
01E000
003800
000C00
0C0600
0C0600
060C00
03F800
000000
000000
ENDCHAR

STARTCHAR jisx0212_2A5D
ENCODING 10845
SWIDTH 960 0
DWIDTH 18 0
BBX 18 18 0 -2
BITMAP
000000
00E000
03B800
000000
03F000
061800
0C0C00
0C0C00
070000
01E000
003800
000C00
0C0600
0C0600
060C00
03F800
000000
000000
ENDCHAR

STARTCHAR jisx0212_2A5E
ENCODING 10846
SWIDTH 960 0
DWIDTH 18 0
BBX 18 18 0 -2
BITMAP
000000
03B800
00E000
000000
03F000
061800
0C0C00
0C0C00
070000
01E000
003800
000C00
0C0600
0C0600
060C00
03F800
000000
000000
ENDCHAR

STARTCHAR jisx0212_2A5F
ENCODING 10847
SWIDTH 960 0
DWIDTH 18 0
BBX 18 18 0 -2
BITMAP
000000
000000
03F000
061800
0C0C00
0C0C00
070000
01E000
003800
000C00
0C0600
0C0600
060C00
03F800
00C000
006000
03C000
000000
ENDCHAR

STARTCHAR jisx0212_2A60
ENCODING 10848
SWIDTH 960 0
DWIDTH 18 0
BBX 18 18 0 -2
BITMAP
000000
077000
01C000
000000
1FFE00
00C000
00C000
00C000
00C000
00C000
00C000
00C000
00C000
00C000
00C000
00C000
000000
000000
ENDCHAR

STARTCHAR jisx0212_2A61
ENCODING 10849
SWIDTH 960 0
DWIDTH 18 0
BBX 18 18 0 -2
BITMAP
000000
000000
1FFE00
00C000
00C000
00C000
00C000
00C000
00C000
00C000
00C000
00C000
00C000
00C000
00E000
003000
01E000
000000
ENDCHAR

STARTCHAR jisx0212_2A62
ENCODING 10850
SWIDTH 960 0
DWIDTH 18 0
BBX 18 18 0 -2
BITMAP
000000
007000
01C000
0C0600
0C0600
0C0600
0C0600
0C0600
0C0600
0C0600
0C0600
0C0600
0C0600
0C0600
060C00
03F800
000000
000000
ENDCHAR

STARTCHAR jisx0212_2A63
ENCODING 10851
SWIDTH 960 0
DWIDTH 18 0
BBX 18 18 0 -2
BITMAP
000000
01C000
007000
0C0600
0C0600
0C0600
0C0600
0C0600
0C0600
0C0600
0C0600
0C0600
0C0600
0C0600
060C00
03F800
000000
000000
ENDCHAR

STARTCHAR jisx0212_2A64
ENCODING 10852
SWIDTH 960 0
DWIDTH 18 0
BBX 18 18 0 -2
BITMAP
000000
03B800
03B800
0C0600
0C0600
0C0600
0C0600
0C0600
0C0600
0C0600
0C0600
0C0600
0C0600
0C0600
060C00
03F800
000000
000000
ENDCHAR

STARTCHAR jisx0212_2A65
ENCODING 10853
SWIDTH 960 0
DWIDTH 18 0
BBX 18 18 0 -2
BITMAP
000000
00E000
03B800
0C0600
0C0600
0C0600
0C0600
0C0600
0C0600
0C0600
0C0600
0C0600
0C0600
0C0600
060C00
03F800
000000
000000
ENDCHAR

STARTCHAR jisx0212_2A66
ENCODING 10854
SWIDTH 960 0
DWIDTH 18 0
BBX 18 18 0 -2
BITMAP
000000
033000
01E000
0C0600
0C0600
0C0600
0C0600
0C0600
0C0600
0C0600
0C0600
0C0600
0C0600
0C0600
060C00
03F800
000000
000000
ENDCHAR

STARTCHAR jisx0212_2A67
ENCODING 10855
SWIDTH 960 0
DWIDTH 18 0
BBX 18 18 0 -2
BITMAP
000000
03B800
00E000
0C0600
0C0600
0C0600
0C0600
0C0600
0C0600
0C0600
0C0600
0C0600
0C0600
0C0600
060C00
03F800
000000
000000
ENDCHAR

STARTCHAR jisx0212_2A68
ENCODING 10856
SWIDTH 960 0
DWIDTH 18 0
BBX 18 18 0 -2
BITMAP
000000
01CE00
073800
000000
0C0600
0C0600
0C0600
0C0600
0C0600
0C0600
0C0600
0C0600
0C0600
0C0600
060C00
03F800
000000
000000
ENDCHAR

STARTCHAR jisx0212_2A69
ENCODING 10857
SWIDTH 960 0
DWIDTH 18 0
BBX 18 18 0 -2
BITMAP
000000
03F800
000000
0C0600
0C0600
0C0600
0C0600
0C0600
0C0600
0C0600
0C0600
0C0600
0C0600
0C0600
060C00
03F800
000000
000000
ENDCHAR

STARTCHAR jisx0212_2A6A
ENCODING 10858
SWIDTH 960 0
DWIDTH 18 0
BBX 18 18 0 -2
BITMAP
000000
000000
0C0600
0C0600
0C0600
0C0600
0C0600
0C0600
0C0600
0C0600
0C0600
0C0600
060C00
03F800
00C000
018000
00F000
000000
ENDCHAR

STARTCHAR jisx0212_2A6B
ENCODING 10859
SWIDTH 960 0
DWIDTH 18 0
BBX 18 18 0 -2
BITMAP
000000
00E000
01B000
01B000
0CE600
0C0600
0C0600
0C0600
0C0600
0C0600
0C0600
0C0600
0C0600
0C0600
060C00
03F800
000000
000000
ENDCHAR

STARTCHAR jisx0212_2A6C
ENCODING 10860
SWIDTH 960 0
DWIDTH 18 0
BBX 18 18 0 -2
BITMAP
000000
01D800
037000
0C0600
0C0600
0C0600
0C0600
0C0600
0C0600
0C0600
0C0600
0C0600
0C0600
0C0600
060C00
03F800
000000
000000
ENDCHAR

STARTCHAR jisx0212_2A6D
ENCODING 10861
SWIDTH 960 0
DWIDTH 18 0
BBX 18 18 0 -2
BITMAP
000000
003800
00E000
071C00
071C00
000000
0C0600
0C0600
0C0600
0C0600
0C0600
0C0600
0C0600
0C0600
060C00
03F800
000000
000000
ENDCHAR

STARTCHAR jisx0212_2A6E
ENCODING 10862
SWIDTH 960 0
DWIDTH 18 0
BBX 18 18 0 -2
BITMAP
000000
038000
00E000
071C00
071C00
000000
0C0600
0C0600
0C0600
0C0600
0C0600
0C0600
0C0600
0C0600
060C00
03F800
000000
000000
ENDCHAR

STARTCHAR jisx0212_2A6F
ENCODING 10863
SWIDTH 960 0
DWIDTH 18 0
BBX 18 18 0 -2
BITMAP
000000
03B800
00E000
071C00
071C00
000000
0C0600
0C0600
0C0600
0C0600
0C0600
0C0600
0C0600
0C0600
060C00
03F800
000000
000000
ENDCHAR

STARTCHAR jisx0212_2A70
ENCODING 10864
SWIDTH 960 0
DWIDTH 18 0
BBX 18 18 0 -2
BITMAP
000000
03F800
000000
03B800
03B800
0C0600
0C0600
0C0600
0C0600
0C0600
0C0600
0C0600
0C0600
0C0600
060C00
03F800
000000
000000
ENDCHAR

STARTCHAR jisx0212_2A71
ENCODING 10865
SWIDTH 960 0
DWIDTH 18 0
BBX 18 18 0 -2
BITMAP
000000
00E000
03B800
000000
30E180
30E180
30E180
19B300
19B300
19B300
0B1600
0B1600
0B1600
060C00
060C00
060C00
000000
000000
ENDCHAR

STARTCHAR jisx0212_2A72
ENCODING 10866
SWIDTH 960 0
DWIDTH 18 0
BBX 18 18 0 -2
BITMAP
000000
007000
01C000
180600
0C0C00
0C0C00
061800
033000
033000
016000
00C000
00C000
00C000
00C000
00C000
00C000
000000
000000
ENDCHAR

STARTCHAR jisx0212_2A73
ENCODING 10867
SWIDTH 960 0
DWIDTH 18 0
BBX 18 18 0 -2
BITMAP
000000
073800
073800
180600
0C0C00
0C0C00
061800
033000
033000
016000
00C000
00C000
00C000
00C000
00C000
00C000
000000
000000
ENDCHAR

STARTCHAR jisx0212_2A74
ENCODING 10868
SWIDTH 960 0
DWIDTH 18 0
BBX 18 18 0 -2
BITMAP
000000
01C000
077000
180600
0C0C00
0C0C00
061800
033000
033000
016000
00C000
00C000
00C000
00C000
00C000
00C000
000000
000000
ENDCHAR

STARTCHAR jisx0212_2A75
ENCODING 10869
SWIDTH 960 0
DWIDTH 18 0
BBX 18 18 0 -2
BITMAP
000000
007000
01C000
000000
07FC00
000C00
001800
003000
006000
00C000
00C000
018000
030000
060000
0C0000
0FFC00
000000
000000
ENDCHAR

STARTCHAR jisx0212_2A76
ENCODING 10870
SWIDTH 960 0
DWIDTH 18 0
BBX 18 18 0 -2
BITMAP
000000
03B800
00E000
000000
07FC00
000C00
001800
003000
006000
00C000
00C000
018000
030000
060000
0C0000
0FFC00
000000
000000
ENDCHAR

STARTCHAR jisx0212_2A77
ENCODING 10871
SWIDTH 960 0
DWIDTH 18 0
BBX 18 18 0 -2
BITMAP
000000
00E000
00E000
000000
07FC00
000C00
001800
003000
006000
00C000
00C000
018000
030000
060000
0C0000
0FFC00
000000
000000
ENDCHAR

STARTCHAR jisx0212_2B21
ENCODING 11041
SWIDTH 960 0
DWIDTH 18 0
BBX 18 18 0 -2
BITMAP
000000
000000
00E000
038000
000000
000000
03F000
061800
0C0C00
000C00
03FC00
060C00
0C0C00
0C0C00
061C00
03EC00
000000
000000
ENDCHAR

STARTCHAR jisx0212_2B22
ENCODING 11042
SWIDTH 960 0
DWIDTH 18 0
BBX 18 18 0 -2
BITMAP
000000
000000
038000
00E000
000000
000000
03F000
061800
0C0C00
000C00
03FC00
060C00
0C0C00
0C0C00
061C00
03EC00
000000
000000
ENDCHAR

STARTCHAR jisx0212_2B23
ENCODING 11043
SWIDTH 960 0
DWIDTH 18 0
BBX 18 18 0 -2
BITMAP
000000
000000
077000
077000
000000
000000
03F000
061800
0C0C00
000C00
03FC00
060C00
0C0C00
0C0C00
061C00
03EC00
000000
000000
ENDCHAR

STARTCHAR jisx0212_2B24
ENCODING 11044
SWIDTH 960 0
DWIDTH 18 0
BBX 18 18 0 -2
BITMAP
000000
000000
01C000
077000
000000
000000
03F000
061800
0C0C00
000C00
03FC00
060C00
0C0C00
0C0C00
061C00
03EC00
000000
000000
ENDCHAR

STARTCHAR jisx0212_2B25
ENCODING 11045
SWIDTH 960 0
DWIDTH 18 0
BBX 18 18 0 -2
BITMAP
000000
000000
033000
01E000
000000
000000
03F000
061800
0C0C00
000C00
03FC00
060C00
0C0C00
0C0C00
061C00
03EC00
000000
000000
ENDCHAR

STARTCHAR jisx0212_2B26
ENCODING 11046
SWIDTH 960 0
DWIDTH 18 0
BBX 18 18 0 -2
BITMAP
000000
000000
077000
01C000
000000
000000
03F000
061800
0C0C00
000C00
03FC00
060C00
0C0C00
0C0C00
061C00
03EC00
000000
000000
ENDCHAR

STARTCHAR jisx0212_2B27
ENCODING 11047
SWIDTH 960 0
DWIDTH 18 0
BBX 18 18 0 -2
BITMAP
000000
000000
000000
07F000
000000
000000
03F000
061800
0C0C00
000C00
03FC00
060C00
0C0C00
0C0C00
061C00
03EC00
000000
000000
ENDCHAR

STARTCHAR jisx0212_2B28
ENCODING 11048
SWIDTH 960 0
DWIDTH 18 0
BBX 18 18 0 -2
BITMAP
000000
000000
000000
000000
000000
000000
03F000
061800
0C0C00
03FC00
060C00
0C0C00
0C0C00
061C00
03EC00
001800
001E00
000000
ENDCHAR

STARTCHAR jisx0212_2B29
ENCODING 11049
SWIDTH 960 0
DWIDTH 18 0
BBX 18 18 0 -2
BITMAP
000000
000000
00E000
01B000
01B000
00E000
03F000
061800
0C0C00
000C00
03FC00
060C00
0C0C00
0C0C00
061C00
03EC00
000000
000000
ENDCHAR

STARTCHAR jisx0212_2B2A
ENCODING 11050
SWIDTH 960 0
DWIDTH 18 0
BBX 18 18 0 -2
BITMAP
000000
000000
03B000
06E000
000000
000000
03F000
061800
0C0C00
000C00
03FC00
060C00
0C0C00
0C0C00
061C00
03EC00
000000
000000
ENDCHAR

STARTCHAR jisx0212_2B2B
ENCODING 11051
SWIDTH 960 0
DWIDTH 18 0
BBX 18 18 0 -2
BITMAP
000000
000000
00E000
038000
000000
000000
03F000
061800
0C0C00
0C0000
0C0000
0C0000
0C0000
0C0C00
061800
03F000
000000
000000
ENDCHAR

STARTCHAR jisx0212_2B2C
ENCODING 11052
SWIDTH 960 0
DWIDTH 18 0
BBX 18 18 0 -2
BITMAP
000000
000000
01C000
077000
000000
000000
03F000
061800
0C0C00
0C0000
0C0000
0C0000
0C0000
0C0C00
061800
03F000
000000
000000
ENDCHAR

STARTCHAR jisx0212_2B2D
ENCODING 11053
SWIDTH 960 0
DWIDTH 18 0
BBX 18 18 0 -2
BITMAP
000000
000000
077000
01C000
000000
000000
03F000
061800
0C0C00
0C0000
0C0000
0C0000
0C0000
0C0C00
061800
03F000
000000
000000
ENDCHAR

STARTCHAR jisx0212_2B2E
ENCODING 11054
SWIDTH 960 0
DWIDTH 18 0
BBX 18 18 0 -2
BITMAP
000000
000000
000000
000000
000000
000000
03F000
061800
0C0C00
0C0000
0C0000
0C0000
0C0C00
061800
03F000
006000
01E000
000000
ENDCHAR

STARTCHAR jisx0212_2B2F
ENCODING 11055
SWIDTH 960 0
DWIDTH 18 0
BBX 18 18 0 -2
BITMAP
000000
000000
01C000
01C000
000000
000000
03F000
061800
0C0C00
0C0000
0C0000
0C0000
0C0000
0C0C00
061800
03F000
000000
000000
ENDCHAR

STARTCHAR jisx0212_2B30
ENCODING 11056
SWIDTH 960 0
DWIDTH 18 0
BBX 18 18 0 -2
BITMAP
000000
03B800
00E000
000C00
000C00
000C00
01EC00
031C00
060C00
060C00
060C00
060C00
060C00
060C00
031C00
01EC00
000000
000000
ENDCHAR

STARTCHAR jisx0212_2B31
ENCODING 11057
SWIDTH 960 0
DWIDTH 18 0
BBX 18 18 0 -2
BITMAP
000000
000000
00E000
038000
000000
000000
03F000
061800
0C0C00
0C0C00
0FFC00
0C0000
0C0000
0C0C00
061800
03F000
000000
000000
ENDCHAR

STARTCHAR jisx0212_2B32
ENCODING 11058
SWIDTH 960 0
DWIDTH 18 0
BBX 18 18 0 -2
BITMAP
000000
000000
038000
00E000
000000
000000
03F000
061800
0C0C00
0C0C00
0FFC00
0C0000
0C0000
0C0C00
061800
03F000
000000
000000
ENDCHAR

STARTCHAR jisx0212_2B33
ENCODING 11059
SWIDTH 960 0
DWIDTH 18 0
BBX 18 18 0 -2
BITMAP
000000
000000
077000
077000
000000
000000
03F000
061800
0C0C00
0C0C00
0FFC00
0C0000
0C0000
0C0C00
061800
03F000
000000
000000
ENDCHAR

STARTCHAR jisx0212_2B34
ENCODING 11060
SWIDTH 960 0
DWIDTH 18 0
BBX 18 18 0 -2
BITMAP
000000
000000
01C000
077000
000000
000000
03F000
061800
0C0C00
0C0C00
0FFC00
0C0000
0C0000
0C0C00
061800
03F000
000000
000000
ENDCHAR

STARTCHAR jisx0212_2B35
ENCODING 11061
SWIDTH 960 0
DWIDTH 18 0
BBX 18 18 0 -2
BITMAP
000000
000000
077000
01C000
000000
000000
03F000
061800
0C0C00
0C0C00
0FFC00
0C0000
0C0000
0C0C00
061800
03F000
000000
000000
ENDCHAR

STARTCHAR jisx0212_2B36
ENCODING 11062
SWIDTH 960 0
DWIDTH 18 0
BBX 18 18 0 -2
BITMAP
000000
000000
01C000
01C000
000000
000000
03F000
061800
0C0C00
0C0C00
0FFC00
0C0000
0C0000
0C0C00
061800
03F000
000000
000000
ENDCHAR

STARTCHAR jisx0212_2B37
ENCODING 11063
SWIDTH 960 0
DWIDTH 18 0
BBX 18 18 0 -2
BITMAP
000000
000000
000000
07F000
000000
000000
03F000
061800
0C0C00
0C0C00
0FFC00
0C0000
0C0000
0C0C00
061800
03F000
000000
000000
ENDCHAR

STARTCHAR jisx0212_2B38
ENCODING 11064
SWIDTH 960 0
DWIDTH 18 0
BBX 18 18 0 -2
BITMAP
000000
000000
000000
000000
000000
000000
03F000
061800
0C0C00
0C0C00
0FFC00
0C0000
0C0000
060C00
03F800
006000
007800
000000
ENDCHAR

STARTCHAR jisx0212_2B39
ENCODING 11065
SWIDTH 960 0
DWIDTH 18 0
BBX 18 18 0 -2
BITMAP
000000
000000
007000
01C000
000000
000000
01EC00
031C00
060C00
060C00
060C00
060C00
031C00
01EC00
060C00
031800
01F000
000000
ENDCHAR

STARTCHAR jisx0212_2B3A
ENCODING 11066
SWIDTH 960 0
DWIDTH 18 0
BBX 18 18 0 -2
BITMAP
000000
000000
00E000
03B800
000000
000000
01EC00
031C00
060C00
060C00
060C00
060C00
031C00
01EC00
060C00
031800
01F000
000000
ENDCHAR

STARTCHAR jisx0212_2B3B
ENCODING 11067
SWIDTH 960 0
DWIDTH 18 0
BBX 18 18 0 -2
BITMAP
000000
000000
033000
01E000
000000
000000
01EC00
031C00
060C00
060C00
060C00
060C00
031C00
01EC00
060C00
031800
01F000
000000
ENDCHAR

STARTCHAR jisx0212_2B3D
ENCODING 11069
SWIDTH 960 0
DWIDTH 18 0
BBX 18 18 0 -2
BITMAP
000000
000000
00E000
00E000
000000
000000
01EC00
031C00
060C00
060C00
060C00
060C00
031C00
01EC00
060C00
031800
01F000
000000
ENDCHAR

STARTCHAR jisx0212_2B3E
ENCODING 11070
SWIDTH 960 0
DWIDTH 18 0
BBX 18 18 0 -2
BITMAP
000000
00E000
03B800
060000
060000
060000
05F800
070C00
060C00
060C00
060C00
060C00
060C00
060C00
060C00
060C00
000000
000000
ENDCHAR

STARTCHAR jisx0212_2B3F
ENCODING 11071
SWIDTH 960 0
DWIDTH 18 0
BBX 18 18 0 -2
BITMAP
000000
000000
00E000
038000
000000
000000
00C000
00C000
00C000
00C000
00C000
00C000
00C000
00C000
00C000
00C000
000000
000000
ENDCHAR

STARTCHAR jisx0212_2B40
ENCODING 11072
SWIDTH 960 0
DWIDTH 18 0
BBX 18 18 0 -2
BITMAP
000000
000000
038000
00E000
000000
000000
00C000
00C000
00C000
00C000
00C000
00C000
00C000
00C000
00C000
00C000
000000
000000
ENDCHAR

STARTCHAR jisx0212_2B41
ENCODING 11073
SWIDTH 960 0
DWIDTH 18 0
BBX 18 18 0 -2
BITMAP
000000
000000
077000
077000
000000
000000
00C000
00C000
00C000
00C000
00C000
00C000
00C000
00C000
00C000
00C000
000000
000000
ENDCHAR

STARTCHAR jisx0212_2B42
ENCODING 11074
SWIDTH 960 0
DWIDTH 18 0
BBX 18 18 0 -2
BITMAP
000000
000000
01C000
077000
000000
000000
00C000
00C000
00C000
00C000
00C000
00C000
00C000
00C000
00C000
00C000
000000
000000
ENDCHAR

STARTCHAR jisx0212_2B43
ENCODING 11075
SWIDTH 960 0
DWIDTH 18 0
BBX 18 18 0 -2
BITMAP
000000
000000
077000
01C000
000000
000000
00C000
00C000
00C000
00C000
00C000
00C000
00C000
00C000
00C000
00C000
000000
000000
ENDCHAR

STARTCHAR jisx0212_2B45
ENCODING 11077
SWIDTH 960 0
DWIDTH 18 0
BBX 18 18 0 -2
BITMAP
000000
000000
000000
03F000
000000
000000
00C000
00C000
00C000
00C000
00C000
00C000
00C000
00C000
00C000
00C000
000000
000000
ENDCHAR

STARTCHAR jisx0212_2B46
ENCODING 11078
SWIDTH 960 0
DWIDTH 18 0
BBX 18 18 0 -2
BITMAP
000000
000000
01C000
01C000
000000
000000
00C000
00C000
00C000
00C000
00C000
00C000
00C000
00C000
00C000
018000
00F000
000000
ENDCHAR

STARTCHAR jisx0212_2B47
ENCODING 11079
SWIDTH 960 0
DWIDTH 18 0
BBX 18 18 0 -2
BITMAP
000000
000000
03B000
06E000
000000
000000
00C000
00C000
00C000
00C000
00C000
00C000
00C000
00C000
00C000
00C000
000000
000000
ENDCHAR

STARTCHAR jisx0212_2B48
ENCODING 11080
SWIDTH 960 0
DWIDTH 18 0
BBX 18 18 0 -2
BITMAP
000000
000000
01C000
077000
000000
000000
00C000
00C000
00C000
00C000
00C000
00C000
00C000
00C000
00C000
00C000
078000
000000
ENDCHAR

STARTCHAR jisx0212_2B49
ENCODING 11081
SWIDTH 960 0
DWIDTH 18 0
BBX 18 18 0 -2
BITMAP
000000
000000
060000
060000
060000
060000
061800
063000
066000
06C000
056000
073000
063000
06D800
06CC00
006000
01E000
000000
ENDCHAR

STARTCHAR jisx0212_2B4A
ENCODING 11082
SWIDTH 960 0
DWIDTH 18 0
BBX 18 18 0 -2
BITMAP
000000
00E000
038000
000000
00C000
00C000
00C000
00C000
00C000
00C000
00C000
00C000
00C000
00C000
00C000
00F000
000000
000000
ENDCHAR

STARTCHAR jisx0212_2B4B
ENCODING 11083
SWIDTH 960 0
DWIDTH 18 0
BBX 18 18 0 -2
BITMAP
000000
077000
01C000
000000
00C000
00C000
00C000
00C000
00C000
00C000
00C000
00C000
00C000
00C000
00C000
00F000
000000
000000
ENDCHAR

STARTCHAR jisx0212_2B4C
ENCODING 11084
SWIDTH 960 0
DWIDTH 18 0
BBX 18 18 0 -2
BITMAP
000000
000000
00C000
00C000
00C000
00C000
00C000
00C000
00C000
00C000
00C000
00C000
00C000
00C000
00F000
006000
01E000
000000
ENDCHAR

STARTCHAR jisx0212_2B4D
ENCODING 11085
SWIDTH 960 0
DWIDTH 18 0
BBX 18 18 0 -2
BITMAP
000000
000000
007000
01C000
000000
000000
05F800
070C00
060C00
060C00
060C00
060C00
060C00
060C00
060C00
060C00
000000
000000
ENDCHAR

STARTCHAR jisx0212_2B4E
ENCODING 11086
SWIDTH 960 0
DWIDTH 18 0
BBX 18 18 0 -2
BITMAP
000000
000000
03B800
00E000
000000
000000
05F800
070C00
060C00
060C00
060C00
060C00
060C00
060C00
060C00
060C00
000000
000000
ENDCHAR

STARTCHAR jisx0212_2B4F
ENCODING 11087
SWIDTH 960 0
DWIDTH 18 0
BBX 18 18 0 -2
BITMAP
000000
000000
000000
000000
000000
000000
05F800
070C00
060C00
060C00
060C00
060C00
060C00
06CC00
06CC00
006000
01E000
000000
ENDCHAR

STARTCHAR jisx0212_2B50
ENCODING 11088
SWIDTH 960 0
DWIDTH 18 0
BBX 18 18 0 -2
BITMAP
000000
000000
01D800
037000
000000
000000
05F800
070C00
060C00
060C00
060C00
060C00
060C00
060C00
060C00
060C00
000000
000000
ENDCHAR

STARTCHAR jisx0212_2B51
ENCODING 11089
SWIDTH 960 0
DWIDTH 18 0
BBX 18 18 0 -2
BITMAP
000000
000000
00E000
038000
000000
000000
03F000
061800
0C0C00
0C0C00
0C0C00
0C0C00
0C0C00
0C0C00
061800
03F000
000000
000000
ENDCHAR

STARTCHAR jisx0212_2B52
ENCODING 11090
SWIDTH 960 0
DWIDTH 18 0
BBX 18 18 0 -2
BITMAP
000000
000000
038000
00E000
000000
000000
03F000
061800
0C0C00
0C0C00
0C0C00
0C0C00
0C0C00
0C0C00
061800
03F000
000000
000000
ENDCHAR

STARTCHAR jisx0212_2B53
ENCODING 11091
SWIDTH 960 0
DWIDTH 18 0
BBX 18 18 0 -2
BITMAP
000000
000000
077000
077000
000000
000000
03F000
061800
0C0C00
0C0C00
0C0C00
0C0C00
0C0C00
0C0C00
061800
03F000
000000
000000
ENDCHAR

STARTCHAR jisx0212_2B54
ENCODING 11092
SWIDTH 960 0
DWIDTH 18 0
BBX 18 18 0 -2
BITMAP
000000
000000
01C000
077000
000000
000000
03F000
061800
0C0C00
0C0C00
0C0C00
0C0C00
0C0C00
0C0C00
061800
03F000
000000
000000
ENDCHAR

STARTCHAR jisx0212_2B55
ENCODING 11093
SWIDTH 960 0
DWIDTH 18 0
BBX 18 18 0 -2
BITMAP
000000
000000
077000
01C000
000000
000000
03F000
061800
0C0C00
0C0C00
0C0C00
0C0C00
0C0C00
0C0C00
061800
03F000
000000
000000
ENDCHAR

STARTCHAR jisx0212_2B56
ENCODING 11094
SWIDTH 960 0
DWIDTH 18 0
BBX 18 18 0 -2
BITMAP
000000
000000
039C00
0E7000
000000
000000
03F000
061800
0C0C00
0C0C00
0C0C00
0C0C00
0C0C00
0C0C00
061800
03F000
000000
000000
ENDCHAR

STARTCHAR jisx0212_2B57
ENCODING 11095
SWIDTH 960 0
DWIDTH 18 0
BBX 18 18 0 -2
BITMAP
000000
000000
000000
07F000
000000
000000
03F000
061800
0C0C00
0C0C00
0C0C00
0C0C00
0C0C00
0C0C00
061800
03F000
000000
000000
ENDCHAR

STARTCHAR jisx0212_2B58
ENCODING 11096
SWIDTH 960 0
DWIDTH 18 0
BBX 18 18 0 -2
BITMAP
000000
000000
03B000
06E000
000000
000000
03F000
061800
0C0C00
0C0C00
0C0C00
0C0C00
0C0C00
0C0C00
061800
03F000
000000
000000
ENDCHAR

STARTCHAR jisx0212_2B59
ENCODING 11097
SWIDTH 960 0
DWIDTH 18 0
BBX 18 18 0 -2
BITMAP
000000
000000
007000
01C000
000000
000000
01B800
016000
01C000
018000
018000
018000
018000
018000
018000
018000
000000
000000
ENDCHAR

STARTCHAR jisx0212_2B5A
ENCODING 11098
SWIDTH 960 0
DWIDTH 18 0
BBX 18 18 0 -2
BITMAP
000000
000000
03B800
00E000
000000
000000
01B800
016000
01C000
018000
018000
018000
018000
018000
018000
018000
000000
000000
ENDCHAR

STARTCHAR jisx0212_2B5B
ENCODING 11099
SWIDTH 960 0
DWIDTH 18 0
BBX 18 18 0 -2
BITMAP
000000
000000
000000
000000
000000
000000
01B800
016000
01C000
018000
018000
018000
018000
018000
018000
00C000
03C000
000000
ENDCHAR

STARTCHAR jisx0212_2B5C
ENCODING 11100
SWIDTH 960 0
DWIDTH 18 0
BBX 18 18 0 -2
BITMAP
000000
000000
007000
01C000
000000
000000
03F800
060C00
060C00
060000
03C000
007800
000C00
060C00
060C00
03F800
000000
000000
ENDCHAR

STARTCHAR jisx0212_2B5D
ENCODING 11101
SWIDTH 960 0
DWIDTH 18 0
BBX 18 18 0 -2
BITMAP
000000
000000
00E000
03B800
000000
000000
03F800
060C00
060C00
060000
03C000
007800
000C00
060C00
060C00
03F800
000000
000000
ENDCHAR

STARTCHAR jisx0212_2B5E
ENCODING 11102
SWIDTH 960 0
DWIDTH 18 0
BBX 18 18 0 -2
BITMAP
000000
000000
03B800
00E000
000000
000000
03F800
060C00
060C00
060000
03C000
007800
000C00
060C00
060C00
03F800
000000
000000
ENDCHAR

STARTCHAR jisx0212_2B5F
ENCODING 11103
SWIDTH 960 0
DWIDTH 18 0
BBX 18 18 0 -2
BITMAP
000000
000000
000000
000000
000000
000000
03F800
060C00
060C00
03C000
007800
000C00
060C00
060C00
03F800
006000
01E000
000000
ENDCHAR

STARTCHAR jisx0212_2B60
ENCODING 11104
SWIDTH 960 0
DWIDTH 18 0
BBX 18 18 0 -2
BITMAP
000000
03B800
00E000
000000
00C000
00C000
03F800
00C000
00C000
00C000
00C000
00C000
00C000
00C000
00C000
007800
000000
000000
ENDCHAR

STARTCHAR jisx0212_2B61
ENCODING 11105
SWIDTH 960 0
DWIDTH 18 0
BBX 18 18 0 -2
BITMAP
000000
000000
00C000
00C000
00C000
00C000
03F800
00C000
00C000
00C000
00C000
00C000
00C000
00C000
007800
003000
00F000
000000
ENDCHAR

STARTCHAR jisx0212_2B62
ENCODING 11106
SWIDTH 960 0
DWIDTH 18 0
BBX 18 18 0 -2
BITMAP
000000
000000
007000
01C000
000000
000000
060C00
060C00
060C00
060C00
060C00
060C00
060C00
060C00
061C00
03EC00
000000
000000
ENDCHAR

STARTCHAR jisx0212_2B63
ENCODING 11107
SWIDTH 960 0
DWIDTH 18 0
BBX 18 18 0 -2
BITMAP
000000
000000
01C000
007000
000000
000000
060C00
060C00
060C00
060C00
060C00
060C00
060C00
060C00
061C00
03EC00
000000
000000
ENDCHAR

STARTCHAR jisx0212_2B64
ENCODING 11108
SWIDTH 960 0
DWIDTH 18 0
BBX 18 18 0 -2
BITMAP
000000
000000
03B800
03B800
000000
000000
060C00
060C00
060C00
060C00
060C00
060C00
060C00
060C00
061C00
03EC00
000000
000000
ENDCHAR

STARTCHAR jisx0212_2B65
ENCODING 11109
SWIDTH 960 0
DWIDTH 18 0
BBX 18 18 0 -2
BITMAP
000000
000000
00E000
03B800
000000
000000
060C00
060C00
060C00
060C00
060C00
060C00
060C00
060C00
061C00
03EC00
000000
000000
ENDCHAR

STARTCHAR jisx0212_2B66
ENCODING 11110
SWIDTH 960 0
DWIDTH 18 0
BBX 18 18 0 -2
BITMAP
000000
000000
033000
01E000
000000
000000
060C00
060C00
060C00
060C00
060C00
060C00
060C00
060C00
061C00
03EC00
000000
000000
ENDCHAR

STARTCHAR jisx0212_2B67
ENCODING 11111
SWIDTH 960 0
DWIDTH 18 0
BBX 18 18 0 -2
BITMAP
000000
000000
03B800
00E000
000000
000000
060C00
060C00
060C00
060C00
060C00
060C00
060C00
060C00
061C00
03EC00
000000
000000
ENDCHAR

STARTCHAR jisx0212_2B68
ENCODING 11112
SWIDTH 960 0
DWIDTH 18 0
BBX 18 18 0 -2
BITMAP
000000
000000
039C00
0E7000
000000
000000
060C00
060C00
060C00
060C00
060C00
060C00
060C00
060C00
061C00
03EC00
000000
000000
ENDCHAR

STARTCHAR jisx0212_2B69
ENCODING 11113
SWIDTH 960 0
DWIDTH 18 0
BBX 18 18 0 -2
BITMAP
000000
000000
000000
03F800
000000
000000
060C00
060C00
060C00
060C00
060C00
060C00
060C00
060C00
061C00
03EC00
000000
000000
ENDCHAR

STARTCHAR jisx0212_2B6A
ENCODING 11114
SWIDTH 960 0
DWIDTH 18 0
BBX 18 18 0 -2
BITMAP
000000
000000
000000
000000
000000
000000
060C00
060C00
060C00
060C00
060C00
060C00
060C00
061C00
03EC00
001800
001E00
000000
ENDCHAR

STARTCHAR jisx0212_2B6B
ENCODING 11115
SWIDTH 960 0
DWIDTH 18 0
BBX 18 18 0 -2
BITMAP
000000
000000
00E000
01B000
01B000
00E000
060C00
060C00
060C00
060C00
060C00
060C00
060C00
060C00
061C00
03EC00
000000
000000
ENDCHAR

STARTCHAR jisx0212_2B6C
ENCODING 11116
SWIDTH 960 0
DWIDTH 18 0
BBX 18 18 0 -2
BITMAP
000000
000000
01D800
037000
000000
000000
060C00
060C00
060C00
060C00
060C00
060C00
060C00
060C00
061C00
03EC00
000000
000000
ENDCHAR

STARTCHAR jisx0212_2B6D
ENCODING 11117
SWIDTH 960 0
DWIDTH 18 0
BBX 18 18 0 -2
BITMAP
000000
007000
01C000
000000
03B800
03B800
000000
060C00
060C00
060C00
060C00
060C00
060C00
060C00
061C00
03EC00
000000
000000
ENDCHAR

STARTCHAR jisx0212_2B6E
ENCODING 11118
SWIDTH 960 0
DWIDTH 18 0
BBX 18 18 0 -2
BITMAP
000000
01C000
007000
000000
03B800
03B800
000000
060C00
060C00
060C00
060C00
060C00
060C00
060C00
061C00
03EC00
000000
000000
ENDCHAR

STARTCHAR jisx0212_2B6F
ENCODING 11119
SWIDTH 960 0
DWIDTH 18 0
BBX 18 18 0 -2
BITMAP
000000
03B800
00E000
000000
03B800
03B800
000000
060C00
060C00
060C00
060C00
060C00
060C00
060C00
061C00
03EC00
000000
000000
ENDCHAR

STARTCHAR jisx0212_2B70
ENCODING 11120
SWIDTH 960 0
DWIDTH 18 0
BBX 18 18 0 -2
BITMAP
000000
03F800
000000
03B800
03B800
000000
060C00
060C00
060C00
060C00
060C00
060C00
060C00
060C00
061C00
03EC00
000000
000000
ENDCHAR

STARTCHAR jisx0212_2B71
ENCODING 11121
SWIDTH 960 0
DWIDTH 18 0
BBX 18 18 0 -2
BITMAP
000000
000000
01C000
077000
000000
000000
30C300
30C300
196600
196600
196600
0B2C00
0B2C00
0B2C00
061800
061800
000000
000000
ENDCHAR

STARTCHAR jisx0212_2B72
ENCODING 11122
SWIDTH 960 0
DWIDTH 18 0
BBX 18 18 0 -2
BITMAP
000000
000000
007000
01C000
000000
000000
060C00
060C00
031800
031800
01B000
01B000
00E000
00E000
00C000
00C000
078000
000000
ENDCHAR

STARTCHAR jisx0212_2B73
ENCODING 11123
SWIDTH 960 0
DWIDTH 18 0
BBX 18 18 0 -2
BITMAP
000000
000000
03B800
03B800
000000
000000
060C00
060C00
031800
031800
01B000
01B000
00E000
00E000
00C000
00C000
078000
000000
ENDCHAR

STARTCHAR jisx0212_2B74
ENCODING 11124
SWIDTH 960 0
DWIDTH 18 0
BBX 18 18 0 -2
BITMAP
000000
000000
00E000
03B800
000000
000000
060C00
060C00
031800
031800
01B000
01B000
00E000
00E000
00C000
00C000
078000
000000
ENDCHAR

STARTCHAR jisx0212_2B75
ENCODING 11125
SWIDTH 960 0
DWIDTH 18 0
BBX 18 18 0 -2
BITMAP
000000
000000
007000
01C000
000000
000000
03FC00
000C00
001800
003000
006000
00C000
018000
030000
060000
07FC00
000000
000000
ENDCHAR

STARTCHAR jisx0212_2B76
ENCODING 11126
SWIDTH 960 0
DWIDTH 18 0
BBX 18 18 0 -2
BITMAP
000000
000000
03B800
00E000
000000
000000
03FC00
000C00
001800
003000
006000
00C000
018000
030000
060000
07FC00
000000
000000
ENDCHAR

STARTCHAR jisx0212_2B77
ENCODING 11127
SWIDTH 960 0
DWIDTH 18 0
BBX 18 18 0 -2
BITMAP
000000
000000
00E000
00E000
000000
000000
03FC00
000C00
001800
003000
006000
00C000
018000
030000
060000
07FC00
000000
000000
ENDCHAR

STARTCHAR jisx0212_3021
ENCODING 12321
SWIDTH 960 0
DWIDTH 18 0
BBX 18 18 0 -2
BITMAP
000000
000000
3FFF80
030000
030000
030000
060000
060000
07FE00
060600
0C0600
0C0600
000600
000600
000C00
000C00
00F800
000000
ENDCHAR

STARTCHAR jisx0212_3022
ENCODING 12322
SWIDTH 960 0
DWIDTH 18 0
BBX 18 18 0 -2
BITMAP
000000
00C000
00C000
00C000
00C000
00C000
00C000
00C000
00C000
00C000
00C000
00C000
00C000
00C000
00C000
7FFF80
000000
000000
ENDCHAR

STARTCHAR jisx0212_3023
ENCODING 12323
SWIDTH 960 0
DWIDTH 18 0
BBX 18 18 0 -2
BITMAP
000000
000000
7FFF80
00C000
00C000
00C000
00C000
00C000
00C000
00C000
00C000
00C000
00C000
00C000
00C000
00C000
00C000
000000
ENDCHAR

STARTCHAR jisx0212_3024
ENCODING 12324
SWIDTH 960 0
DWIDTH 18 0
BBX 18 18 0 -2
BITMAP
000000
000000
7FFFC0
061800
061800
061800
061800
061800
061800
061800
061800
0C1800
0C1800
0C1800
181800
301800
601800
000000
ENDCHAR

STARTCHAR jisx0212_3025
ENCODING 12325
SWIDTH 960 0
DWIDTH 18 0
BBX 18 18 0 -2
BITMAP
000000
000000
3FFF00
000300
006300
006300
1CC300
06C300
018300
02C300
036300
063300
0C0600
180600
303C00
000000
7FFF80
000000
ENDCHAR

STARTCHAR jisx0212_3026
ENCODING 12326
SWIDTH 960 0
DWIDTH 18 0
BBX 18 18 0 -2
BITMAP
000000
000000
3FFF00
00C000
00C000
1FFE00
00C000
00C000
7FFF80
018000
033000
031800
060C00
060600
0CFE00
7F8300
000300
000000
ENDCHAR

STARTCHAR jisx0212_3027
ENCODING 12327
SWIDTH 960 0
DWIDTH 18 0
BBX 18 18 0 -2
BITMAP
000000
000000
7FFFC0
01B000
01B000
01B000
3FBF80
31B180
31B180
31B180
3FBF80
31B180
01B000
033000
033000
0E3000
383000
000000
ENDCHAR

STARTCHAR jisx0212_3028
ENCODING 12328
SWIDTH 960 0
DWIDTH 18 0
BBX 18 18 0 -2
BITMAP
000000
000000
7FFFC0
033000
033000
3FFF80
333180
333180
33B980
36AD80
366D80
2C6580
38C580
318180
300180
300180
300780
000000
ENDCHAR

STARTCHAR jisx0212_3029
ENCODING 12329
SWIDTH 960 0
DWIDTH 18 0
BBX 18 18 0 -2
BITMAP
000000
00C000
00C000
00C000
00C000
00C000
00C000
00C000
00C000
00C000
00C000
00C000
00C000
00C000
00C000
00C000
00C000
000000
ENDCHAR

STARTCHAR jisx0212_302A
ENCODING 12330
SWIDTH 960 0
DWIDTH 18 0
BBX 18 18 0 -2
BITMAP
000000
000000
0C0C00
061800
033000
016000
00C000
00C000
00C000
00C000
00C000
00C000
00C000
00C000
00C000
00C000
00C000
000000
ENDCHAR

STARTCHAR jisx0212_302B
ENCODING 12331
SWIDTH 960 0
DWIDTH 18 0
BBX 18 18 0 -2
BITMAP
000000
000000
7FFE00
000600
030600
030600
030600
3FF600
030600
030600
030600
7FF600
0306C0
0302C0
0302C0
0301C0
0300C0
000000
ENDCHAR

STARTCHAR jisx0212_302C
ENCODING 12332
SWIDTH 960 0
DWIDTH 18 0
BBX 18 18 0 -2
BITMAP
000000
00C000
00CE00
00B800
03E000
3EC000
00CE00
00B800
03E000
3EC000
00C700
00BC00
03E000
7EC000
00C000
00C000
00C000
000000
ENDCHAR

STARTCHAR jisx0212_302D
ENCODING 12333
SWIDTH 960 0
DWIDTH 18 0
BBX 18 18 0 -2
BITMAP
000000
00C000
00C000
00C000
3FFF00
00C000
00C000
00C000
1FFE00
00C000
00C000
00C000
7FFF80
00C000
00C000
00C000
00C000
000000
ENDCHAR

STARTCHAR jisx0212_302E
ENCODING 12334
SWIDTH 960 0
DWIDTH 18 0
BBX 18 18 0 -2
BITMAP
000000
033000
1B3600
1B3600
1B3600
1B3600
7FFF80
061800
031800
033000
3FFF00
00C000
00C000
7FFF80
00C000
00C000
00C000
000000
ENDCHAR

STARTCHAR jisx0212_302F
ENCODING 12335
SWIDTH 960 0
DWIDTH 18 0
BBX 18 18 0 -2
BITMAP
000000
000000
000000
060000
060000
0E0000
0B0000
1B0000
318000
018000
00C000
006000
003000
001C00
000700
0001C0
000000
000000
ENDCHAR

STARTCHAR jisx0212_3030
ENCODING 12336
SWIDTH 960 0
DWIDTH 18 0
BBX 18 18 0 -2
BITMAP
000000
000000
0FF800
001800
001800
001800
001800
001800
001800
000C00
000C00
000C00
000600
000600
000300
000180
0000C0
000000
ENDCHAR

STARTCHAR jisx0212_3031
ENCODING 12337
SWIDTH 960 0
DWIDTH 18 0
BBX 18 18 0 -2
BITMAP
000000
000C00
000C00
000C00
001800
0E1800
039800
00B000
007000
005800
00CC00
00C600
018300
330000
360000
2C0000
380000
000000
ENDCHAR

STARTCHAR jisx0212_3032
ENCODING 12338
SWIDTH 960 0
DWIDTH 18 0
BBX 18 18 0 -2
BITMAP
000000
000E00
007800
07C000
7D8000
018000
018000
018000
01BF80
7FE000
018000
018000
018000
018180
018180
018180
00FF80
000000
ENDCHAR

STARTCHAR jisx0212_3033
ENCODING 12339
SWIDTH 960 0
DWIDTH 18 0
BBX 18 18 0 -2
BITMAP
000000
000E00
01F800
3EC000
00C000
06C300
0CE600
0CEC00
18B800
32B000
66D800
06CC00
0CC600
18C380
30C0C0
60C000
00C000
000000
ENDCHAR

STARTCHAR jisx0212_3034
ENCODING 12340
SWIDTH 960 0
DWIDTH 18 0
BBX 18 18 0 -2
BITMAP
000000
000000
180000
180000
180000
180000
180000
180000
180000
180000
180000
180000
180300
180300
180300
0FFF00
000000
000000
ENDCHAR

STARTCHAR jisx0212_3035
ENCODING 12341
SWIDTH 960 0
DWIDTH 18 0
BBX 18 18 0 -2
BITMAP
000000
060000
060000
060000
060700
063B00
05E300
0F0300
760300
060600
060600
061C00
060000
060180
060180
060180
03FF80
000000
ENDCHAR

STARTCHAR jisx0212_3036
ENCODING 12342
SWIDTH 960 0
DWIDTH 18 0
BBX 18 18 0 -2
BITMAP
000000
061800
061800
0C1800
0C1800
181800
599800
319800
1B1800
0B1800
061800
0D9800
0D9800
18D8C0
37D8C0
7C58C0
006FC0
000000
ENDCHAR

STARTCHAR jisx0212_3037
ENCODING 12343
SWIDTH 960 0
DWIDTH 18 0
BBX 18 18 0 -2
BITMAP
000000
061800
0C1800
0C1800
199800
18D800
37D800
7C5800
005800
001800
3FD800
30D800
30D800
30D8C0
30D8C0
3FD8C0
30CFC0
000000
ENDCHAR

STARTCHAR jisx0212_3038
ENCODING 12344
SWIDTH 960 0
DWIDTH 18 0
BBX 18 18 0 -2
BITMAP
000000
061800
061800
061800
061800
07D800
061800
061800
061800
061800
3FD800
30D800
30D800
30D8C0
30D8C0
3FD8C0
30CFC0
000000
ENDCHAR

STARTCHAR jisx0212_3039
ENCODING 12345
SWIDTH 960 0
DWIDTH 18 0
BBX 18 18 0 -2
BITMAP
000000
0C0380
0C7E00
7F6000
0C6000
0F7FC0
7C6600
0C6600
0CC600
3B8600
000600
3FE000
00C000
0180C0
0300C0
0600C0
03FF80
000000
ENDCHAR

STARTCHAR jisx0212_303A
ENCODING 12346
SWIDTH 960 0
DWIDTH 18 0
BBX 18 18 0 -2
BITMAP
000000
061800
061800
061800
3FD800
199800
199800
0B1800
0B1800
7FD800
061800
061800
3FD800
0618C0
0618C0
0618C0
060FC0
000000
ENDCHAR

STARTCHAR jisx0212_303B
ENCODING 12347
SWIDTH 960 0
DWIDTH 18 0
BBX 18 18 0 -2
BITMAP
000000
061800
061800
7FD800
061800
061800
3FD800
30D800
3FD800
30D800
3FD800
061800
061800
7FD8C0
0618C0
0618C0
060FC0
000000
ENDCHAR

STARTCHAR jisx0212_303C
ENCODING 12348
SWIDTH 960 0
DWIDTH 18 0
BBX 18 18 0 -2
BITMAP
000000
01D800
1F1800
30D800
365800
635800
061800
2D9800
1B1800
0D9800
0CD800
7F5800
065800
1598C0
16D8C0
36D8C0
660FC0
000000
ENDCHAR

STARTCHAR jisx0212_303D
ENCODING 12349
SWIDTH 960 0
DWIDTH 18 0
BBX 18 18 0 -2
BITMAP
000000
000000
3FFF00
000000
000000
000000
000000
7FFF80
00C000
00C000
00C000
00C000
00C000
00C000
00C000
00C000
07C000
000000
ENDCHAR

STARTCHAR jisx0212_303E
ENCODING 12350
SWIDTH 960 0
DWIDTH 18 0
BBX 18 18 0 -2
BITMAP
000000
000000
1FFE00
000000
000000
000000
000000
3FFF80
000000
000000
000000
1FFF00
000000
000000
000000
000000
7FFFC0
000000
ENDCHAR

STARTCHAR jisx0212_303F
ENCODING 12351
SWIDTH 960 0
DWIDTH 18 0
BBX 18 18 0 -2
BITMAP
000000
00C000
00C000
30C300
30C300
30C300
30C300
3FFF00
300300
000000
000000
1FFE00
000000
000000
000000
000000
7FFF80
000000
ENDCHAR

STARTCHAR jisx0212_3040
ENCODING 12352
SWIDTH 960 0
DWIDTH 18 0
BBX 18 18 0 -2
BITMAP
000000
00C000
019800
018C00
037E00
1FC300
0C0C00
0B0B00
199980
17D780
7C7CC0
000000
000000
0FFE00
000000
000000
3FFF80
000000
ENDCHAR

STARTCHAR jisx0212_3041
ENCODING 12353
SWIDTH 960 0
DWIDTH 18 0
BBX 18 18 0 -2
BITMAP
000000
00C000
00C000
7FFF80
000000
0FFC00
0C0C00
0C0C00
0FFC00
000000
3FFF00
300300
300300
3FFF00
300300
300300
3FFF00
000000
ENDCHAR

STARTCHAR jisx0212_3042
ENCODING 12354
SWIDTH 960 0
DWIDTH 18 0
BBX 18 18 0 -2
BITMAP
000000
00C000
7FFF80
0C0000
3BEF00
333300
3BAF00
333300
3BAF00
32B300
7FFF80
6C0D80
6FFD80
0C0C00
0FFC00
0C0C00
7FFF80
000000
ENDCHAR

STARTCHAR jisx0212_3043
ENCODING 12355
SWIDTH 960 0
DWIDTH 18 0
BBX 18 18 0 -2
BITMAP
000000
0C0000
0C0000
0BFFC0
181800
181800
381800
381800
581800
181800
181800
181800
181800
181800
181800
181800
187800
000000
ENDCHAR

STARTCHAR jisx0212_3044
ENCODING 12356
SWIDTH 960 0
DWIDTH 18 0
BBX 18 18 0 -2
BITMAP
000000
00C000
016000
033000
061800
0C0C00
38C700
60C180
00C000
00C000
3FFF00
00C000
00C000
00C000
00C000
00C000
00C000
000000
ENDCHAR

STARTCHAR jisx0212_3045
ENCODING 12357
SWIDTH 960 0
DWIDTH 18 0
BBX 18 18 0 -2
BITMAP
000000
00C000
016000
033000
061800
0C0C00
380700
60C180
00C000
00C000
30C300
30C300
30C300
30C300
30C300
3FFF00
300300
000000
ENDCHAR

STARTCHAR jisx0212_3046
ENCODING 12358
SWIDTH 960 0
DWIDTH 18 0
BBX 18 18 0 -2
BITMAP
000000
0C0000
0C0700
0C3C00
1BE000
186000
386000
386000
585F80
17F000
186000
186000
186000
186000
186180
186180
183F80
000000
ENDCHAR

STARTCHAR jisx0212_3047
ENCODING 12359
SWIDTH 960 0
DWIDTH 18 0
BBX 18 18 0 -2
BITMAP
000000
0C0000
0DFF80
0C1800
181800
181800
381800
381800
5BFFC0
181800
181800
181800
181800
181800
181800
181800
181800
000000
ENDCHAR

STARTCHAR jisx0212_3048
ENCODING 12360
SWIDTH 960 0
DWIDTH 18 0
BBX 18 18 0 -2
BITMAP
000000
0C6000
0C6000
0CC000
18FFC0
198000
398000
3B0000
55F800
181800
183000
186000
18C000
18C0C0
1980C0
1980C0
18FF80
000000
ENDCHAR

STARTCHAR jisx0212_3049
ENCODING 12361
SWIDTH 960 0
DWIDTH 18 0
BBX 18 18 0 -2
BITMAP
000000
0C6000
0C6000
0CC000
18FF80
198180
398180
3B0180
566180
183180
181980
181980
180180
180180
180300
180300
181E00
000000
ENDCHAR

STARTCHAR jisx0212_304A
ENCODING 12362
SWIDTH 960 0
DWIDTH 18 0
BBX 18 18 0 -2
BITMAP
000000
0C0000
0BFF80
0C0000
180000
180000
380000
380000
59FF00
180000
180000
180000
180000
180000
180000
17FFC0
180000
000000
ENDCHAR

STARTCHAR jisx0212_304B
ENCODING 12363
SWIDTH 960 0
DWIDTH 18 0
BBX 18 18 0 -2
BITMAP
000000
0C1800
0C1800
0C1800
18D600
18DB00
38D980
399980
5998C0
1B1AC0
1B1AC0
167600
180600
180C00
183800
18E000
178000
000000
ENDCHAR

STARTCHAR jisx0212_304C
ENCODING 12364
SWIDTH 960 0
DWIDTH 18 0
BBX 18 18 0 -2
BITMAP
000000
0C7000
0C5800
0CCC00
18C600
198300
3B0180
36FCC0
580000
180000
1BFF00
180300
180600
180600
180C00
180C00
181800
000000
ENDCHAR

STARTCHAR jisx0212_304D
ENCODING 12365
SWIDTH 960 0
DWIDTH 18 0
BBX 18 18 0 -2
BITMAP
000000
0D8C00
0D8C00
0D8C00
198C00
198CC0
398D80
39EB00
598E00
198C00
198C00
198C00
198C00
198C00
19ACC0
19ECC0
1787C0
000000
ENDCHAR

STARTCHAR jisx0212_304E
ENCODING 12366
SWIDTH 960 0
DWIDTH 18 0
BBX 18 18 0 -2
BITMAP
000000
0CC000
0CC000
0CC000
19FF80
199800
399800
3B1800
561800
181800
17FFC0
181800
181800
181800
181800
181800
181800
000000
ENDCHAR

STARTCHAR jisx0212_304F
ENCODING 12367
SWIDTH 960 0
DWIDTH 18 0
BBX 18 18 0 -2
BITMAP
000000
0CFE00
0C0600
0CC600
18C600
198300
398300
3B0180
55FEC0
186300
186300
186300
18C300
18C300
198600
1B0600
163C00
000000
ENDCHAR

STARTCHAR jisx0212_3050
ENCODING 12368
SWIDTH 960 0
DWIDTH 18 0
BBX 18 18 0 -2
BITMAP
000000
0C0000
0BFF80
0CC000
18C000
18C000
39FF00
398300
598300
198300
1B0600
1BFE00
1B0600
1B0600
180C00
180C00
17FFC0
000000
ENDCHAR

STARTCHAR jisx0212_3051
ENCODING 12369
SWIDTH 960 0
DWIDTH 18 0
BBX 18 18 0 -2
BITMAP
000000
0C3000
0C3000
0C3000
17FFC0
186000
386000
386000
587F00
186300
18C300
18C300
18C300
198300
198600
1B0600
163C00
000000
ENDCHAR

STARTCHAR jisx0212_3052
ENCODING 12370
SWIDTH 960 0
DWIDTH 18 0
BBX 18 18 0 -2
BITMAP
000000
0C7E00
0C0600
0CC600
18C300
198300
398180
3B3180
5630C0
186000
186000
186600
18C300
18C180
199F80
17F0C0
1800C0
000000
ENDCHAR

STARTCHAR jisx0212_3053
ENCODING 12371
SWIDTH 960 0
DWIDTH 18 0
BBX 18 18 0 -2
BITMAP
000000
0C1800
0C1800
0C1800
1BFFC0
181800
381800
39FF80
599980
199980
199980
199980
199980
199980
199780
181800
181800
000000
ENDCHAR

STARTCHAR jisx0212_3054
ENCODING 12372
SWIDTH 960 0
DWIDTH 18 0
BBX 18 18 0 -2
BITMAP
000000
0C0000
0BFF80
0C0300
18C600
186C00
383800
381800
57FFC0
1818C0
181980
181B00
181800
181800
181800
181800
18F800
000000
ENDCHAR

STARTCHAR jisx0212_3055
ENCODING 12373
SWIDTH 960 0
DWIDTH 18 0
BBX 18 18 0 -2
BITMAP
000000
0C0000
0C3800
0C0E00
180300
186000
386000
386300
5B6180
1B6180
1B60C0
1B60C0
1660C0
1660C0
186300
186300
183F00
000000
ENDCHAR

STARTCHAR jisx0212_3056
ENCODING 12374
SWIDTH 960 0
DWIDTH 18 0
BBX 18 18 0 -2
BITMAP
000000
0C0000
0BFF00
0C6300
186300
186600
386600
38FF80
58B180
18B180
18DB00
18DB00
198E00
198E00
1B1B00
1B7180
15C0C0
000000
ENDCHAR

STARTCHAR jisx0212_3057
ENCODING 12375
SWIDTH 960 0
DWIDTH 18 0
BBX 18 18 0 -2
BITMAP
000000
0C0000
0DFFC0
0D8000
198000
198000
39BF80
39B180
59B180
19B180
19B180
19B780
19B000
1B3000
1B30C0
1B30C0
161FC0
000000
ENDCHAR

STARTCHAR jisx0212_3058
ENCODING 12376
SWIDTH 960 0
DWIDTH 18 0
BBX 18 18 0 -2
BITMAP
000000
0C0180
0C0F00
0CF800
18C000
18C000
38C000
38FFC0
58C600
18C600
18C600
18C600
198600
198600
198600
1B0600
160600
000000
ENDCHAR

STARTCHAR jisx0212_3059
ENCODING 12377
SWIDTH 960 0
DWIDTH 18 0
BBX 18 18 0 -2
BITMAP
000000
0C1800
0C1800
0C1800
19FF80
181800
381800
381800
5BFFC0
181800
181800
182C00
182C00
186600
18C300
198180
1700C0
000000
ENDCHAR

STARTCHAR jisx0212_305A
ENCODING 12378
SWIDTH 960 0
DWIDTH 18 0
BBX 18 18 0 -2
BITMAP
000000
0C6000
0C6000
0C6000
17FFC0
186000
386000
387F00
586300
18E300
18B600
18B600
199C00
199C00
1B3600
16E380
1B80C0
000000
ENDCHAR

STARTCHAR jisx0212_305B
ENCODING 12379
SWIDTH 960 0
DWIDTH 18 0
BBX 18 18 0 -2
BITMAP
000000
00E000
01B000
031800
060C00
0C0600
380380
6000C0
061800
061800
061800
061800
0B2C00
0DAC00
196600
30C300
6381C0
000000
ENDCHAR

STARTCHAR jisx0212_305C
ENCODING 12380
SWIDTH 960 0
DWIDTH 18 0
BBX 18 18 0 -2
BITMAP
000000
0C1800
0C1800
0C1800
1818C0
199980
399B00
399600
599800
1B3800
1B2C00
182C00
186600
186600
18C300
198180
1700C0
000000
ENDCHAR

STARTCHAR jisx0212_305D
ENCODING 12381
SWIDTH 960 0
DWIDTH 18 0
BBX 18 18 0 -2
BITMAP
000000
0D8000
0DBF80
0D9980
199980
17D980
3B5980
3B5980
5B5980
1B6B00
1B6B00
176B00
16C600
16E600
19AB00
1B1980
1630C0
000000
ENDCHAR

STARTCHAR jisx0212_305E
ENCODING 12382
SWIDTH 960 0
DWIDTH 18 0
BBX 18 18 0 -2
BITMAP
000000
0C1800
0C2C00
0C6600
18C300
198180
3B18C0
361800
581800
18DB00
18D980
199980
1998C0
1B18C0
1618C0
181800
187800
000000
ENDCHAR

STARTCHAR jisx0212_305F
ENCODING 12383
SWIDTH 960 0
DWIDTH 18 0
BBX 18 18 0 -2
BITMAP
000000
0CC000
0CC000
0CC000
19FFC0
1998C0
399980
3B1800
56D600
18DB00
18D980
199980
1998C0
1B18C0
1618C0
181800
18F800
000000
ENDCHAR

STARTCHAR jisx0212_3060
ENCODING 12384
SWIDTH 960 0
DWIDTH 18 0
BBX 18 18 0 -2
BITMAP
000000
0C3600
0DB600
0DB600
19B600
19B600
37FFC0
39B600
59B600
19B600
19B600
19BE00
19B600
198000
198000
19FFC0
198000
000000
ENDCHAR

STARTCHAR jisx0212_3061
ENCODING 12385
SWIDTH 960 0
DWIDTH 18 0
BBX 18 18 0 -2
BITMAP
000000
0C0000
0BFF80
0B6D80
1B6D80
1B6D80
3B6D80
3B6D80
5B6D80
1B6D80
1ACD80
1ACF80
1B8180
1B0180
1B0180
1BFF80
1B0180
000000
ENDCHAR

STARTCHAR jisx0212_3062
ENCODING 12386
SWIDTH 960 0
DWIDTH 18 0
BBX 18 18 0 -2
BITMAP
000000
0C1800
0C1800
0C1800
181800
19FF80
399980
399980
599980
199980
19FF80
199980
199980
199980
199980
19FF80
198180
000000
ENDCHAR

STARTCHAR jisx0212_3063
ENCODING 12387
SWIDTH 960 0
DWIDTH 18 0
BBX 18 18 0 -2
BITMAP
000000
0C0000
0DFF00
0D8300
198300
198300
39FF00
398300
598300
198300
19FF00
198300
198300
198300
198300
17FFC0
180000
000000
ENDCHAR

STARTCHAR jisx0212_3064
ENCODING 12388
SWIDTH 960 0
DWIDTH 18 0
BBX 18 18 0 -2
BITMAP
000000
0C0000
0DFF80
0C1800
18DB00
18D980
399980
3998C0
5B18C0
181800
17FFC0
181800
181800
181800
181800
181800
181800
000000
ENDCHAR

STARTCHAR jisx0212_3065
ENCODING 12389
SWIDTH 960 0
DWIDTH 18 0
BBX 18 18 0 -2
BITMAP
000000
0C0000
0BFF80
0C1800
183000
183000
386000
386C00
58B600
19B300
1B3180
1630C0
183000
183000
183000
180000
17FFC0
000000
ENDCHAR

STARTCHAR jisx0212_3066
ENCODING 12390
SWIDTH 960 0
DWIDTH 18 0
BBX 18 18 0 -2
BITMAP
000000
0C0000
0DFF00
0D8300
198300
198300
398300
39FF00
598000
198000
19FF80
198180
198180
198180
198180
19FF80
198180
000000
ENDCHAR

STARTCHAR jisx0212_3067
ENCODING 12391
SWIDTH 960 0
DWIDTH 18 0
BBX 18 18 0 -2
BITMAP
000000
0C0000
0BFFC0
0C1800
181800
181800
381800
399800
599F80
199800
199800
199800
199800
199800
199800
17FFC0
180000
000000
ENDCHAR

STARTCHAR jisx0212_3068
ENCODING 12392
SWIDTH 960 0
DWIDTH 18 0
BBX 18 18 0 -2
BITMAP
000000
0C6000
0C6000
0C6000
17FFC0
18C000
38D800
399800
59FF80
1B9980
159980
1D9980
199980
199980
199780
181800
181800
000000
ENDCHAR

STARTCHAR jisx0212_3069
ENCODING 12393
SWIDTH 960 0
DWIDTH 18 0
BBX 18 18 0 -2
BITMAP
000000
0C1800
0C1800
0C1800
19FF80
181800
381800
381800
5BFFC0
181800
183000
183600
186300
186180
18DF80
1BF0C0
1800C0
000000
ENDCHAR

STARTCHAR jisx0212_306A
ENCODING 12394
SWIDTH 960 0
DWIDTH 18 0
BBX 18 18 0 -2
BITMAP
000000
0C0000
0BFF80
0C6180
186180
186180
38C180
38C300
599E00
170000
19FF80
198180
198180
198180
198180
19FF80
198180
000000
ENDCHAR

STARTCHAR jisx0212_306B
ENCODING 12395
SWIDTH 960 0
DWIDTH 18 0
BBX 18 18 0 -2
BITMAP
000000
0C6600
0C6600
0C6600
186600
1B66C0
3B6580
3B7700
5B6600
1B6600
1B6600
1B6600
1B6600
1B6600
1B76C0
1BE6C0
1707C0
000000
ENDCHAR

STARTCHAR jisx0212_306C
ENCODING 12396
SWIDTH 960 0
DWIDTH 18 0
BBX 18 18 0 -2
BITMAP
000000
0C1800
0C1800
0C1800
19FF80
199980
399980
399980
599980
199980
17FFC0
181800
182C00
182C00
186600
19C380
1700C0
000000
ENDCHAR

STARTCHAR jisx0212_306D
ENCODING 12397
SWIDTH 960 0
DWIDTH 18 0
BBX 18 18 0 -2
BITMAP
000000
0C3000
0C3000
0C3000
183000
183FC0
383000
383000
583000
183000
19FF80
198180
198180
198180
198180
19FF80
198180
000000
ENDCHAR

STARTCHAR jisx0212_306E
ENCODING 12398
SWIDTH 960 0
DWIDTH 18 0
BBX 18 18 0 -2
BITMAP
000000
0C6000
0C3000
0C1B00
18C300
18C600
38C600
38CC00
5ACB00
1AD980
1AD980
16B0C0
16E0C0
18C600
19C600
1B7E00
160000
000000
ENDCHAR

STARTCHAR jisx0212_306F
ENCODING 12399
SWIDTH 960 0
DWIDTH 18 0
BBX 18 18 0 -2
BITMAP
000000
00C000
016000
033000
061800
0C0C00
380700
6FFD80
000000
000000
3FFF00
00C000
06D800
0CCE00
38C300
60C180
03C000
000000
ENDCHAR

STARTCHAR jisx0212_3070
ENCODING 12400
SWIDTH 960 0
DWIDTH 18 0
BBX 18 18 0 -2
BITMAP
000000
0C6000
0C6000
0C7F00
18C300
18C600
396600
3B2C00
563800
186C00
19C700
1771C0
181C00
180000
180380
183E00
19E000
000000
ENDCHAR

STARTCHAR jisx0212_3071
ENCODING 12401
SWIDTH 960 0
DWIDTH 18 0
BBX 18 18 0 -2
BITMAP
000000
0C0000
0BFF80
0B3180
1B3180
1B3180
3BFF80
3B3180
5B3180
1B3180
1BFF80
1B3180
1B3180
1B3180
1B3180
163180
160780
000000
ENDCHAR

STARTCHAR jisx0212_3072
ENCODING 12402
SWIDTH 960 0
DWIDTH 18 0
BBX 18 18 0 -2
BITMAP
000000
0C0000
0BFF80
0B0180
1B0180
1B7D80
3B6D80
3B6D80
5B6D80
1B6D80
1B6D80
1B6D80
1B7D80
1B0180
1B0180
1BFF80
1B0180
000000
ENDCHAR

STARTCHAR jisx0212_3073
ENCODING 12403
SWIDTH 960 0
DWIDTH 18 0
BBX 18 18 0 -2
BITMAP
000000
0C6000
0C6180
0BFB00
186300
186600
386C00
37FFC0
581800
18B000
18E300
19CE00
16F800
18C000
18C180
18C180
187F80
000000
ENDCHAR

STARTCHAR jisx0212_3074
ENCODING 12404
SWIDTH 960 0
DWIDTH 18 0
BBX 18 18 0 -2
BITMAP
000000
0C3800
0C6C00
0C6C00
18C600
18C600
398300
3AFD80
5600C0
180000
19FF00
198300
198300
198300
198300
19FF00
198300
000000
ENDCHAR

STARTCHAR jisx0212_3075
ENCODING 12405
SWIDTH 960 0
DWIDTH 18 0
BBX 18 18 0 -2
BITMAP
000000
00E000
01B000
031800
060C00
0C0600
3BFB80
6000C0
000000
3FFF80
006000
0C6000
0C7F00
0C6000
0C6000
0C6000
7FFFC0
000000
ENDCHAR

STARTCHAR jisx0212_3076
ENCODING 12406
SWIDTH 960 0
DWIDTH 18 0
BBX 18 18 0 -2
BITMAP
000000
0C0000
0DFF80
0D8180
198180
19FF80
398180
398180
59FF80
199800
1998C0
198D80
198B00
198600
19BB00
19E180
1700C0
000000
ENDCHAR

STARTCHAR jisx0212_3077
ENCODING 12407
SWIDTH 960 0
DWIDTH 18 0
BBX 18 18 0 -2
BITMAP
000000
0C0000
0C0780
0DFC00
181800
181800
3BFFC0
381800
581800
181800
19FF80
198180
198180
198180
198180
19FF80
198180
000000
ENDCHAR

STARTCHAR jisx0212_3078
ENCODING 12408
SWIDTH 960 0
DWIDTH 18 0
BBX 18 18 0 -2
BITMAP
000000
0C6000
0C6000
0CFE00
18C600
198C00
3BFFC0
358000
59BF00
19B300
19B300
19B300
19AF00
1B3000
1B30C0
1B30C0
161FC0
000000
ENDCHAR

STARTCHAR jisx0212_3079
ENCODING 12409
SWIDTH 960 0
DWIDTH 18 0
BBX 18 18 0 -2
BITMAP
000000
0C0000
0DF800
0C2C00
186600
18C300
398180
3B00C0
55FF80
181800
181800
181800
18FF00
181800
181800
181800
1BFFC0
000000
ENDCHAR

STARTCHAR jisx0212_307A
ENCODING 12410
SWIDTH 960 0
DWIDTH 18 0
BBX 18 18 0 -2
BITMAP
000000
0C1800
0C1800
0C1800
17B000
183FC0
386CC0
386D80
58CD80
186B00
19CC00
171600
181600
183300
186300
19C180
1700C0
000000
ENDCHAR

STARTCHAR jisx0212_307B
ENCODING 12411
SWIDTH 960 0
DWIDTH 18 0
BBX 18 18 0 -2
BITMAP
000000
0CFE00
0C0600
0D8300
198300
1B0180
35FEC0
398300
598300
19FF00
198300
198300
19FF00
198300
198300
1B0300
160F00
000000
ENDCHAR

STARTCHAR jisx0212_307C
ENCODING 12412
SWIDTH 960 0
DWIDTH 18 0
BBX 18 18 0 -2
BITMAP
000000
0C3000
0DB000
0DB000
1BFF80
1B3000
363000
383000
57FFC0
18CC00
18CC00
18CC00
18CC00
198C00
198CC0
1B0CC0
1607C0
000000
ENDCHAR

STARTCHAR jisx0212_307D
ENCODING 12413
SWIDTH 960 0
DWIDTH 18 0
BBX 18 18 0 -2
BITMAP
000000
0C1800
0C1800
0BFFC0
1B0000
1B0300
3B1E00
3AF800
5B1800
1B1800
1B1F80
1AF800
1B1800
1B1800
1B18C0
1618C0
160FC0
000000
ENDCHAR

STARTCHAR jisx0212_307E
ENCODING 12414
SWIDTH 960 0
DWIDTH 18 0
BBX 18 18 0 -2
BITMAP
000000
0C0000
0BFF80
0C3000
183000
186600
386300
38DD80
5BF0C0
181800
181800
181800
19FF80
181800
181800
181800
1BFFC0
000000
ENDCHAR

STARTCHAR jisx0212_3121
ENCODING 12577
SWIDTH 960 0
DWIDTH 18 0
BBX 18 18 0 -2
BITMAP
000000
0C1800
0C1800
0C1800
1BFFC0
181800
383000
396600
58CC00
185980
183300
186600
19CC00
1B1600
183300
18E180
1B80C0
000000
ENDCHAR

STARTCHAR jisx0212_3122
ENCODING 12578
SWIDTH 960 0
DWIDTH 18 0
BBX 18 18 0 -2
BITMAP
000000
0C6000
0C6000
0FFF80
18D800
198C00
39F600
3B0380
5600C0
1BFF00
18C000
18C000
19FF00
198300
198300
180600
183C00
000000
ENDCHAR

STARTCHAR jisx0212_3123
ENCODING 12579
SWIDTH 960 0
DWIDTH 18 0
BBX 18 18 0 -2
BITMAP
000000
0C3000
0C3180
0B3180
1B3300
19B300
39B600
383000
57FFC0
18CC00
18CC00
18CC00
18CC00
198C00
198CC0
1B0CC0
1607C0
000000
ENDCHAR

STARTCHAR jisx0212_3124
ENCODING 12580
SWIDTH 960 0
DWIDTH 18 0
BBX 18 18 0 -2
BITMAP
000000
00E000
01B000
031800
060C00
1BF700
7001C0
0FFC00
000C00
001800
1FFF00
000000
7FFFC0
019800
030E00
06FB00
3F8180
000000
ENDCHAR

STARTCHAR jisx0212_3125
ENCODING 12581
SWIDTH 960 0
DWIDTH 18 0
BBX 18 18 0 -2
BITMAP
000000
0C3000
0B3180
0B3180
19B300
19B300
39B600
383000
57FFC0
187800
18AC00
18B600
19B300
1B3180
1630C0
183000
183000
000000
ENDCHAR

STARTCHAR jisx0212_3126
ENCODING 12582
SWIDTH 960 0
DWIDTH 18 0
BBX 18 18 0 -2
BITMAP
000000
0C3000
0C3000
0C6000
1BFF80
1B6D80
3B6D80
3B6D80
5B6D80
1B6D80
1B6D80
1B6D80
1B6D80
1B6D80
1B6D80
1B6D80
17FFC0
000000
ENDCHAR

STARTCHAR jisx0212_3127
ENCODING 12583
SWIDTH 960 0
DWIDTH 18 0
BBX 18 18 0 -2
BITMAP
000000
0C3000
0C3000
0BFF80
1B0180
1B3180
383000
386000
57FFC0
18C600
18C600
198C00
19EC00
1B1C00
183600
18E300
178180
000000
ENDCHAR

STARTCHAR jisx0212_3128
ENCODING 12584
SWIDTH 960 0
DWIDTH 18 0
BBX 18 18 0 -2
BITMAP
000000
0C3000
0C3000
0BFF00
183300
17FFC0
383300
3BFF00
583000
183000
1BFF80
183000
183000
17FFC0
183000
183000
183000
000000
ENDCHAR

STARTCHAR jisx0212_3129
ENCODING 12585
SWIDTH 960 0
DWIDTH 18 0
BBX 18 18 0 -2
BITMAP
000000
0C3000
0C6600
0C6300
18DD80
1BF0C0
381800
399800
59FF80
1B1800
1B1800
181800
17FFC0
181800
181800
181800
181800
000000
ENDCHAR

STARTCHAR jisx0212_312A
ENCODING 12586
SWIDTH 960 0
DWIDTH 18 0
BBX 18 18 0 -2
BITMAP
000000
0C0000
0BFF80
0B0180
1B0180
1AFD80
3B0180
3B0180
5B7D80
1B6D80
1B6D80
1B6D80
1B7D80
1B6180
1B6180
1B0180
1B0780
000000
ENDCHAR

STARTCHAR jisx0212_312B
ENCODING 12587
SWIDTH 960 0
DWIDTH 18 0
BBX 18 18 0 -2
BITMAP
000000
0C0C00
0C0B00
0C0D80
180C00
17FFC0
380C00
380C00
580C00
1BEC00
18C600
18C600
18C600
18DAC0
18F2C0
1781C0
1800C0
000000
ENDCHAR

STARTCHAR jisx0212_312C
ENCODING 12588
SWIDTH 960 0
DWIDTH 18 0
BBX 18 18 0 -2
BITMAP
000000
0CC000
0CC000
0D8000
19FF80
1B0180
3B0180
35F980
599980
199980
19F980
199980
199980
19F980
198300
180300
181E00
000000
ENDCHAR

STARTCHAR jisx0212_312D
ENCODING 12589
SWIDTH 960 0
DWIDTH 18 0
BBX 18 18 0 -2
BITMAP
000000
0D8000
0D8000
0D9F80
199980
17D980
3B5980
3B5980
5B5980
1B5980
165980
16D980
15D980
18D980
195F80
1B1980
161800
000000
ENDCHAR

STARTCHAR jisx0212_312E
ENCODING 12590
SWIDTH 960 0
DWIDTH 18 0
BBX 18 18 0 -2
BITMAP
000000
0C6000
0C6000
0CC000
17FF80
18C000
398000
397F80
5B8300
1B8E00
158C00
1D7FC0
198C00
198C00
198C00
198C00
19BC00
000000
ENDCHAR

STARTCHAR jisx0212_312F
ENCODING 12591
SWIDTH 960 0
DWIDTH 18 0
BBX 18 18 0 -2
BITMAP
000000
0C0000
0BFFC0
0B0000
1B0000
1B7F00
3B0000
3B0000
5BFFC0
1B6C00
1B6CC0
1B6D80
1B6700
1B6600
1B6300
167D80
15E0C0
000000
ENDCHAR

STARTCHAR jisx0212_3130
ENCODING 12592
SWIDTH 960 0
DWIDTH 18 0
BBX 18 18 0 -2
BITMAP
000000
0C0000
0DFF80
0D8180
198180
19FF80
398000
398000
59FFC0
1980C0
197EC0
1966C0
1966C0
1B7EC0
1B60C0
1B0180
160F00
000000
ENDCHAR

STARTCHAR jisx0212_3131
ENCODING 12593
SWIDTH 960 0
DWIDTH 18 0
BBX 18 18 0 -2
BITMAP
000000
0C0000
0BC1C0
0CDF00
18C600
198600
398600
3BDFC0
5B6600
186600
1B6600
1B6600
15C600
18DFC0
196000
1B3800
160FC0
000000
ENDCHAR

STARTCHAR jisx0212_3132
ENCODING 12594
SWIDTH 960 0
DWIDTH 18 0
BBX 18 18 0 -2
BITMAP
000000
0CFE00
0C0600
0CC600
18C300
198300
3BFF80
3582C0
598300
198300
19FF00
186C00
186C00
186C00
18CCC0
198CC0
1707C0
000000
ENDCHAR

STARTCHAR jisx0212_3133
ENCODING 12595
SWIDTH 960 0
DWIDTH 18 0
BBX 18 18 0 -2
BITMAP
000000
0C1800
0C1800
0BFFC0
181800
181800
3BFFC0
3B00C0
5AFEC0
180600
181C00
181800
1BFFC0
181800
181800
181800
187800
000000
ENDCHAR

STARTCHAR jisx0212_3134
ENCODING 12596
SWIDTH 960 0
DWIDTH 18 0
BBX 18 18 0 -2
BITMAP
000000
0C0000
0BFF80
0B3180
1B3180
1BFF80
3B3180
3B3180
5BFF80
183000
183000
17FFC0
1860C0
1860C0
18C0C0
198180
170F00
000000
ENDCHAR

STARTCHAR jisx0212_3135
ENCODING 12597
SWIDTH 960 0
DWIDTH 18 0
BBX 18 18 0 -2
BITMAP
000000
0C6000
0C6180
0BFB00
186600
186C00
37FFC0
383000
587F00
18C600
1B9C00
1E1800
1BFFC0
181800
181800
181800
187800
000000
ENDCHAR

STARTCHAR jisx0212_3136
ENCODING 12598
SWIDTH 960 0
DWIDTH 18 0
BBX 18 18 0 -2
BITMAP
000000
0C0780
0DFC00
0D8600
19B300
199980
3B0CC0
3B0000
563000
183000
17FFC0
186300
18C300
18F600
198F00
183980
17E0C0
000000
ENDCHAR

STARTCHAR jisx0212_3137
ENCODING 12599
SWIDTH 960 0
DWIDTH 18 0
BBX 18 18 0 -2
BITMAP
000000
0C0000
0C7F00
0B6300
1B6300
1B6300
3B7F00
3B0000
5B0000
1BFF00
183300
183300
17FFC0
183800
186C00
19C700
1701C0
000000
ENDCHAR

STARTCHAR jisx0212_3138
ENCODING 12600
SWIDTH 960 0
DWIDTH 18 0
BBX 18 18 0 -2
BITMAP
000000
0C3600
0C3300
0C3000
17FF80
183000
3B3180
3B3B00
59B600
19AC00
182C00
18B600
19B300
1B3180
1630C0
183000
18F000
000000
ENDCHAR

STARTCHAR jisx0212_3139
ENCODING 12601
SWIDTH 960 0
DWIDTH 18 0
BBX 18 18 0 -2
BITMAP
000000
0C1800
0C2C00
0C6600
18C300
198180
3B00C0
36FF00
581800
181800
1BFFC0
181800
199B00
199980
1B18C0
1618C0
187800
000000
ENDCHAR

STARTCHAR jisx0212_313A
ENCODING 12602
SWIDTH 960 0
DWIDTH 18 0
BBX 18 18 0 -2
BITMAP
000000
0C1800
0CD800
0CD800
19FF80
199800
3B1800
381800
5BFFC0
181800
180000
19FF80
198180
198180
198180
19FF80
198180
000000
ENDCHAR

STARTCHAR jisx0212_313B
ENCODING 12603
SWIDTH 960 0
DWIDTH 18 0
BBX 18 18 0 -2
BITMAP
000000
0C0000
0BFF80
0C6000
186000
1BFE00
38C600
38C600
57FFC0
180000
180000
19FF00
198300
198300
198300
19FF00
198300
000000
ENDCHAR

STARTCHAR jisx0212_313C
ENCODING 12604
SWIDTH 960 0
DWIDTH 18 0
BBX 18 18 0 -2
BITMAP
000000
0C0000
0DFF00
0D8300
198300
19FF00
380000
3BFF80
5B3180
1B3180
1B3180
1BFF80
1B0180
1B0000
1B00C0
1B00C0
19FFC0
000000
ENDCHAR

STARTCHAR jisx0212_313D
ENCODING 12605
SWIDTH 960 0
DWIDTH 18 0
BBX 18 18 0 -2
BITMAP
000000
0C3600
0C3300
0FFFC0
183000
183000
3BFF80
3B3180
5B3180
1BFF80
1B3180
1B3180
1BFF80
1B3180
1B3180
1B3180
1B3780
000000
ENDCHAR

STARTCHAR jisx0212_313E
ENCODING 12606
SWIDTH 960 0
DWIDTH 18 0
BBX 18 18 0 -2
BITMAP
000000
0C1800
0C1800
0DFF80
198180
198180
39FF80
398180
598180
19FF80
1998C0
199980
198B00
198E00
198600
197B00
17C1C0
000000
ENDCHAR

STARTCHAR jisx0212_313F
ENCODING 12607
SWIDTH 960 0
DWIDTH 18 0
BBX 18 18 0 -2
BITMAP
000000
0C3000
0CB600
0DB300
19B180
1B30C0
35FEC0
398300
598300
19FF00
198300
198300
19FF00
198300
198300
198300
198F00
000000
ENDCHAR

STARTCHAR jisx0212_3140
ENCODING 12608
SWIDTH 960 0
DWIDTH 18 0
BBX 18 18 0 -2
BITMAP
000000
0C1800
0C1800
0BFFC0
1B00C0
1B00C0
38FF00
380000
580000
1BFFC0
186C00
186C00
186C00
18CC00
18CCC0
198CC0
1707C0
000000
ENDCHAR

STARTCHAR jisx0212_3141
ENCODING 12609
SWIDTH 960 0
DWIDTH 18 0
BBX 18 18 0 -2
BITMAP
000000
0C3000
0BFF80
0B3180
1B3180
1BFF80
3B3180
3B3180
5BFF80
180000
17FFC0
18C000
18FF80
198180
198180
180300
181E00
000000
ENDCHAR

STARTCHAR jisx0212_3142
ENCODING 12610
SWIDTH 960 0
DWIDTH 18 0
BBX 18 18 0 -2
BITMAP
000000
0C3000
0C3000
0C3000
17FFC0
183000
39B300
39B300
59B300
1AB580
1AB580
162C00
185800
186C00
18C600
198380
1700C0
000000
ENDCHAR

STARTCHAR jisx0212_3143
ENCODING 12611
SWIDTH 960 0
DWIDTH 18 0
BBX 18 18 0 -2
BITMAP
000000
0CC000
0CC000
0DFFC0
19C600
1B6C00
363800
386C00
59C700
1731C0
186600
19CC00
173980
18E300
1B8E00
187800
1BC000
000000
ENDCHAR

STARTCHAR jisx0212_3144
ENCODING 12612
SWIDTH 960 0
DWIDTH 18 0
BBX 18 18 0 -2
BITMAP
000000
0C0000
0CE000
0B9F80
199980
199980
37D980
399980
599980
1BD980
1B5980
1B5980
159980
159980
199F80
199980
199800
000000
ENDCHAR

STARTCHAR jisx0212_3145
ENCODING 12613
SWIDTH 960 0
DWIDTH 18 0
BBX 18 18 0 -2
BITMAP
000000
0CC600
0CC600
0CC600
17F600
181FC0
3B66C0
3B36C0
5636C0
1866C0
1B66C0
19CCC0
18CCC0
196CC0
1B5980
163180
186700
000000
ENDCHAR

STARTCHAR jisx0212_3146
ENCODING 12614
SWIDTH 960 0
DWIDTH 18 0
BBX 18 18 0 -2
BITMAP
000000
0C3000
0C3000
0BFFC0
186000
186600
38DF00
3BF180
5800C0
19FF00
198300
19FF00
198300
19FF00
198300
198300
198F00
000000
ENDCHAR

STARTCHAR jisx0212_3147
ENCODING 12615
SWIDTH 960 0
DWIDTH 18 0
BBX 18 18 0 -2
BITMAP
000000
0C0600
0C7600
0BCC00
1B0C00
1B0FC0
3B16C0
3BF6C0
5B6580
1B6580
1B6600
1B6600
1B6B00
1B6B00
1B6D80
165980
1658C0
000000
ENDCHAR

STARTCHAR jisx0212_3148
ENCODING 12616
SWIDTH 960 0
DWIDTH 18 0
BBX 18 18 0 -2
BITMAP
000000
0C3000
0C3F00
0C3000
1BFFC0
1B30C0
3B3180
3BFE00
5B3180
1B3F80
1B0000
1B6C00
1B6C00
1B6C00
166CC0
16CCC0
1587C0
000000
ENDCHAR

STARTCHAR jisx0212_3149
ENCODING 12617
SWIDTH 960 0
DWIDTH 18 0
BBX 18 18 0 -2
BITMAP
000000
0C0000
0DFF80
0D8000
19FF00
198000
39FF00
398000
598000
17FFC0
199800
199980
198B00
198E00
198600
197B00
17C1C0
000000
ENDCHAR

STARTCHAR jisx0212_314A
ENCODING 12618
SWIDTH 960 0
DWIDTH 18 0
BBX 18 18 0 -2
BITMAP
000000
0D8000
0D8000
0D8F80
1BED80
1ACD80
3ACD80
36CD80
58CD80
17ED80
18CD80
18CD80
18ED80
19AD80
19AF80
1B0D80
160C00
000000
ENDCHAR

STARTCHAR jisx0212_314B
ENCODING 12619
SWIDTH 960 0
DWIDTH 18 0
BBX 18 18 0 -2
BITMAP
000000
0DC300
0C7600
0C3C00
1BE600
183300
37FFC0
386000
58C000
18FF00
19C300
1AFF00
16C300
18FF00
18C300
18C300
18CF00
000000
ENDCHAR

STARTCHAR jisx0212_314C
ENCODING 12620
SWIDTH 960 0
DWIDTH 18 0
BBX 18 18 0 -2
BITMAP
000000
0C3000
0C3000
0FFFC0
1600C0
1580C0
398000
39DF80
5B5980
1B5980
1B5980
155980
1CD780
18D800
1998C0
1B18C0
160FC0
000000
ENDCHAR

STARTCHAR jisx0212_314D
ENCODING 12621
SWIDTH 960 0
DWIDTH 18 0
BBX 18 18 0 -2
BITMAP
000000
0CFE00
0C0600
0CC600
19B300
19B300
3B6D80
3666C0
58DF00
1BF180
180000
183000
18DB00
1ACD80
1AC0C0
16C6C0
167E00
000000
ENDCHAR

STARTCHAR jisx0212_314E
ENCODING 12622
SWIDTH 960 0
DWIDTH 18 0
BBX 18 18 0 -2
BITMAP
000000
0C1800
0C1800
0BFFC0
1B00C0
1B00C0
38FF00
38C300
58C300
18FF00
18C000
18C000
18FF80
18C180
18C180
18FF80
18C180
000000
ENDCHAR

STARTCHAR jisx0212_314F
ENCODING 12623
SWIDTH 960 0
DWIDTH 18 0
BBX 18 18 0 -2
BITMAP
000000
0C6C00
0C6C00
0BFF80
1B6D80
1B6D80
3B6D80
3BFF80
5B6D80
1B6D80
1B6D80
17FFC0
180000
18C600
198300
1B0180
1600C0
000000
ENDCHAR

STARTCHAR jisx0212_3150
ENCODING 12624
SWIDTH 960 0
DWIDTH 18 0
BBX 18 18 0 -2
BITMAP
000000
0C1800
0C3000
0C3F80
1B7180
1ADB00
3B0E00
3B3700
5AE1C0
1B0C00
1B6CC0
1B6D80
1B6B00
1ACC00
181600
187380
19C0C0
000000
ENDCHAR

STARTCHAR jisx0212_3151
ENCODING 12625
SWIDTH 960 0
DWIDTH 18 0
BBX 18 18 0 -2
BITMAP
000000
0C1800
0CD980
0CDB00
199600
1B2C00
382C00
386700
59D9C0
171800
18D980
18DB00
19AE00
1B2C00
186600
19C380
1700C0
000000
ENDCHAR

STARTCHAR jisx0212_3152
ENCODING 12626
SWIDTH 960 0
DWIDTH 18 0
BBX 18 18 0 -2
BITMAP
000000
0C0000
0BEF80
0B6D80
1B6D80
1B6D80
3B6D80
3AEB80
5B6D80
1B6D80
1B6D80
1AEB80
1B6D80
1B6D80
165980
165980
15D780
000000
ENDCHAR

STARTCHAR jisx0212_3153
ENCODING 12627
SWIDTH 960 0
DWIDTH 18 0
BBX 18 18 0 -2
BITMAP
000000
0C3000
0DB600
0DB300
1B3180
1B30C0
37FF80
3B0180
5B0180
1B7D80
1B6D80
1B6D80
1B6D80
1B7D80
1B6180
1B0180
1B0780
000000
ENDCHAR

STARTCHAR jisx0212_3154
ENCODING 12628
SWIDTH 960 0
DWIDTH 18 0
BBX 18 18 0 -2
BITMAP
000000
0CC600
0CC600
0BFF80
18C600
18C600
38FE00
38C600
58C600
18FE00
18C600
18C600
17FFC0
180000
18CE00
198300
170180
000000
ENDCHAR

STARTCHAR jisx0212_3155
ENCODING 12629
SWIDTH 960 0
DWIDTH 18 0
BBX 18 18 0 -2
BITMAP
000000
0C0000
0BFF80
0B0180
1B3180
1AFD80
3B3180
3B3180
5AFD80
1B3180
1B0180
1AFD80
1ACD80
1ACD80
16FD80
16C180
160780
000000
ENDCHAR

STARTCHAR jisx0212_3156
ENCODING 12630
SWIDTH 960 0
DWIDTH 18 0
BBX 18 18 0 -2
BITMAP
000000
060C00
060C00
7FEC00
060C00
060C00
3FCC00
30CC00
3FCC00
30CC00
3FD600
061600
061600
7FF300
063300
066180
05C0C0
000000
ENDCHAR

STARTCHAR jisx0212_3157
ENCODING 12631
SWIDTH 960 0
DWIDTH 18 0
BBX 18 18 0 -2
BITMAP
000000
0C1800
0C1800
0BFFC0
180000
180000
39FF80
398180
598180
198180
19FF80
181800
18DB00
199980
1B18C0
1618C0
187800
000000
ENDCHAR

STARTCHAR jisx0212_3158
ENCODING 12632
SWIDTH 960 0
DWIDTH 18 0
BBX 18 18 0 -2
BITMAP
000000
0C1800
0C1800
0BFFC0
181800
19FF80
381980
3BFFC0
581980
19FF80
181800
18D800
18DF80
199800
19D800
1B5800
163FC0
000000
ENDCHAR

STARTCHAR jisx0212_3159
ENCODING 12633
SWIDTH 960 0
DWIDTH 18 0
BBX 18 18 0 -2
BITMAP
000000
0C1800
0C1800
0BFFC0
1B00C0
1B00C0
380000
38FF00
580000
180000
1BFFC0
181800
18DB00
199980
1B18C0
1618C0
187800
000000
ENDCHAR

STARTCHAR jisx0212_315A
ENCODING 12634
SWIDTH 960 0
DWIDTH 18 0
BBX 18 18 0 -2
BITMAP
000000
0C0000
0DFF80
0D9980
199980
19FF80
399980
399980
59FF80
181800
181800
1BFFC0
183C00
185600
19DB80
1718C0
181800
000000
ENDCHAR

STARTCHAR jisx0212_315B
ENCODING 12635
SWIDTH 960 0
DWIDTH 18 0
BBX 18 18 0 -2
BITMAP
000000
0C1800
0C1800
0DFF80
181800
181800
3BFFC0
386C00
586CC0
18AFC0
1B6000
187F00
18E300
19B600
1B1C00
187700
1BC1C0
000000
ENDCHAR

STARTCHAR jisx0212_315C
ENCODING 12636
SWIDTH 960 0
DWIDTH 18 0
BBX 18 18 0 -2
BITMAP
000000
0C1800
0C1800
0BFFC0
181800
181800
39FF80
399980
59FF80
199980
19FF80
183C00
185600
18DB00
1B9980
1618C0
181800
000000
ENDCHAR

STARTCHAR jisx0212_315D
ENCODING 12637
SWIDTH 960 0
DWIDTH 18 0
BBX 18 18 0 -2
BITMAP
000000
0C3000
0C3000
0FFF80
183000
1BFF00
3B3300
3BFF00
583000
1BFF00
183300
17FFC0
183300
1BFF00
183000
183000
18F000
000000
ENDCHAR

STARTCHAR jisx0212_315E
ENCODING 12638
SWIDTH 960 0
DWIDTH 18 0
BBX 18 18 0 -2
BITMAP
000000
0C0C00
0C0B00
0BED80
180CC0
180C00
37FFC0
386C00
586C00
1B6C00
1B7600
1B6600
1B66C0
1B62C0
1B5AC0
1AF1C0
1780C0
000000
ENDCHAR

STARTCHAR jisx0212_315F
ENCODING 12639
SWIDTH 960 0
DWIDTH 18 0
BBX 18 18 0 -2
BITMAP
000000
0C6600
0C6600
0BFFC0
186600
185600
381800
39FF80
599980
199980
199980
1BFFC0
181800
182C00
186600
19C380
1700C0
000000
ENDCHAR

STARTCHAR jisx0212_3160
ENCODING 12640
SWIDTH 960 0
DWIDTH 18 0
BBX 18 18 0 -2
BITMAP
000000
0C0700
0DFC00
0DB300
199980
1B0CC0
3B1800
35FF80
599980
199980
1BFFC0
199980
199980
1BFFC0
198180
198180
198780
000000
ENDCHAR

STARTCHAR jisx0212_3161
ENCODING 12641
SWIDTH 960 0
DWIDTH 18 0
BBX 18 18 0 -2
BITMAP
000000
0D8600
0CC600
0CCC00
17FFC0
180000
380000
3BE180
5B6D80
1B6D80
1AED80
1B6D80
1B6D80
1AED80
1B6180
1B6180
1AE780
000000
ENDCHAR

STARTCHAR jisx0212_3162
ENCODING 12642
SWIDTH 960 0
DWIDTH 18 0
BBX 18 18 0 -2
BITMAP
000000
0C0780
0DFC00
0C1800
1BFFC0
181800
39FF80
399980
59FF80
199980
19FF80
181800
181800
19FF80
181800
181800
1BFFC0
000000
ENDCHAR

STARTCHAR jisx0212_3163
ENCODING 12643
SWIDTH 960 0
DWIDTH 18 0
BBX 18 18 0 -2
BITMAP
000000
0C3000
0C3000
0BFFC0
183000
19FF80
386C00
386600
5BFFC0
18C300
19FF80
1AC2C0
16FF00
18C300
18C300
18FF00
18C300
000000
ENDCHAR

STARTCHAR jisx0212_3164
ENCODING 12644
SWIDTH 960 0
DWIDTH 18 0
BBX 18 18 0 -2
BITMAP
000000
0C0F80
0DF800
0C1800
19FF80
199980
399980
39FF80
581800
181800
1BFFC0
1B18C0
1B16C0
1B1EC0
1AF2C0
1B00C0
1B03C0
000000
ENDCHAR

STARTCHAR jisx0212_3165
ENCODING 12645
SWIDTH 960 0
DWIDTH 18 0
BBX 18 18 0 -2
BITMAP
000000
0CC600
0CC600
0FFFC0
18C600
18C600
386000
386000
57FFC0
18C000
18C000
19FF80
1AC180
16C180
18C180
18FF80
18C180
000000
ENDCHAR

STARTCHAR jisx0212_3166
ENCODING 12646
SWIDTH 960 0
DWIDTH 18 0
BBX 18 18 0 -2
BITMAP
000000
0C0000
0DFF80
0D9980
199980
19FF80
399980
399980
59FF80
180000
17FFC0
199980
199B00
198E00
198600
197B80
17C0C0
000000
ENDCHAR

STARTCHAR jisx0212_3167
ENCODING 12647
SWIDTH 960 0
DWIDTH 18 0
BBX 18 18 0 -2
BITMAP
000000
0C0000
0BFF00
0B0300
1B1B00
1AF300
3B3300
3AFB00
5AAB00
1AAB00
1AAB00
1AFB00
1B32C0
1B2AC0
1635C0
15E5C0
1600C0
000000
ENDCHAR

STARTCHAR jisx0212_3168
ENCODING 12648
SWIDTH 960 0
DWIDTH 18 0
BBX 18 18 0 -2
BITMAP
000000
0C0000
0DFF00
0D8300
19FF00
198300
39FF00
380000
57FFC0
198000
19FF80
1B6D80
166D80
18D980
1B9980
167300
19CE00
000000
ENDCHAR

STARTCHAR jisx0212_3169
ENCODING 12649
SWIDTH 960 0
DWIDTH 18 0
BBX 18 18 0 -2
BITMAP
000000
0C0000
0BFF80
0B0180
1B0180
1BFF80
3B0000
3BFFC0
5B3000
1B6600
1BFF00
1B0180
1B1800
15FF80
161800
1C1800
1BFFC0
000000
ENDCHAR

STARTCHAR jisx0212_316A
ENCODING 12650
SWIDTH 960 0
DWIDTH 18 0
BBX 18 18 0 -2
BITMAP
000000
0C1800
0CD600
0CDB00
199980
199AC0
3B7600
380C00
583800
19FF80
16C180
18FF80
18C180
18FF80
18C180
18FF80
18C180
000000
ENDCHAR

STARTCHAR jisx0212_316B
ENCODING 12651
SWIDTH 960 0
DWIDTH 18 0
BBX 18 18 0 -2
BITMAP
000000
0C1800
0C1800
0BFFC0
18C300
186300
386600
3BFFC0
5B18C0
1B18C0
19FF80
199980
199980
199980
199980
199780
181800
000000
ENDCHAR

STARTCHAR jisx0212_316C
ENCODING 12652
SWIDTH 960 0
DWIDTH 18 0
BBX 18 18 0 -2
BITMAP
000000
0C3000
0C6000
0DFF80
198180
19FF80
398180
39FF80
580000
180000
1BFFC0
181800
181800
19FF80
181800
181800
17FFC0
000000
ENDCHAR

STARTCHAR jisx0212_316D
ENCODING 12653
SWIDTH 960 0
DWIDTH 18 0
BBX 18 18 0 -2
BITMAP
000000
0C0000
0FFFC0
0C6C00
1BFF80
1B6D80
3B6D80
3B7D80
5B0180
186000
17FFC0
18C600
198600
19EC00
1B1700
187180
17C0C0
000000
ENDCHAR

STARTCHAR jisx0212_316E
ENCODING 12654
SWIDTH 960 0
DWIDTH 18 0
BBX 18 18 0 -2
BITMAP
000000
0C6600
0DC600
0F8600
1986C0
1996C0
37D580
399580
59B700
1BC600
1B6600
156B00
158B00
1D8B00
199980
19B180
1960C0
000000
ENDCHAR

STARTCHAR jisx0212_316F
ENCODING 12655
SWIDTH 960 0
DWIDTH 18 0
BBX 18 18 0 -2
BITMAP
000000
0C3000
0C3000
0BFF80
198600
18C600
38CC00
37FFC0
580000
19FF00
198300
198300
19FF00
198300
198300
19FF00
198300
000000
ENDCHAR

STARTCHAR jisx0212_3170
ENCODING 12656
SWIDTH 960 0
DWIDTH 18 0
BBX 18 18 0 -2
BITMAP
000000
0C0000
0BFFC0
0C1980
18D800
18DF00
395800
3B3FC0
560000
19FF80
198180
19FF80
198180
19FF80
198180
198180
198780
000000
ENDCHAR

STARTCHAR jisx0212_3171
ENCODING 12657
SWIDTH 960 0
DWIDTH 18 0
BBX 18 18 0 -2
BITMAP
000000
0C6000
0C6000
0BFF80
18D800
198C00
3B6700
3EFDC0
598C00
16D800
186C00
19DF80
173180
18DB00
180E00
183C00
1BE000
000000
ENDCHAR

STARTCHAR jisx0212_3172
ENCODING 12658
SWIDTH 960 0
DWIDTH 18 0
BBX 18 18 0 -2
BITMAP
000000
0C0000
0DFFC0
0C0000
18FF80
18C180
38C180
38FF80
580000
19FFC0
1998C0
1998C0
19FFC0
1998C0
1998C0
19FFC0
1980C0
000000
ENDCHAR

STARTCHAR jisx0212_3173
ENCODING 12659
SWIDTH 960 0
DWIDTH 18 0
BBX 18 18 0 -2
BITMAP
000000
0C0000
0FFFC0
0C3000
183000
186000
3BFF80
3B6D80
5B6D80
1B7D80
1B6D80
1B6D80
1B7D80
1B6D80
1B6D80
1BFF80
1B0180
000000
ENDCHAR

STARTCHAR jisx0212_3174
ENCODING 12660
SWIDTH 960 0
DWIDTH 18 0
BBX 18 18 0 -2
BITMAP
000000
0D8000
0DAFC0
0DE6C0
17B6C0
19E6C0
37B6C0
39ECC0
578CC0
199B80
19B000
183000
17FFC0
183800
186C00
19C700
1701C0
000000
ENDCHAR

STARTCHAR jisx0212_3175
ENCODING 12661
SWIDTH 960 0
DWIDTH 18 0
BBX 18 18 0 -2
BITMAP
000000
0C0780
0DFC00
0D8C00
198C00
19FFC0
399800
399800
597F80
196180
197F80
196180
1B7F80
1B6180
1B6180
167F80
186180
000000
ENDCHAR

STARTCHAR jisx0212_3176
ENCODING 12662
SWIDTH 960 0
DWIDTH 18 0
BBX 18 18 0 -2
BITMAP
000000
0C0000
0FEFC0
0B6CC0
1B6D80
1BED80
3B6B00
3B6B00
5B6D80
1BED80
1B6CC0
1B6CC0
1B6CC0
1BEB80
1F6C00
186C00
186C00
000000
ENDCHAR

STARTCHAR jisx0212_3177
ENCODING 12663
SWIDTH 960 0
DWIDTH 18 0
BBX 18 18 0 -2
BITMAP
000000
0CB000
0BAF80
0B3180
1B3180
1BAF80
3B3180
3B3180
5BAF80
1B3180
180000
1BFF00
18C300
186600
183C00
18E700
1781C0
000000
ENDCHAR

STARTCHAR jisx0212_3178
ENCODING 12664
SWIDTH 960 0
DWIDTH 18 0
BBX 18 18 0 -2
BITMAP
000000
0C1800
0BFFC0
0C1800
19FF80
181800
3BFFC0
383600
596C00
18DB00
186F80
1BF8C0
181800
18DB00
199980
1718C0
181800
000000
ENDCHAR

STARTCHAR jisx0212_3179
ENCODING 12665
SWIDTH 960 0
DWIDTH 18 0
BBX 18 18 0 -2
BITMAP
000000
0C3000
0C3000
0FFFC0
185800
1B6D80
39CB00
398700
5BFF80
1582C0
19FF00
198300
19FF00
198300
198300
19FF00
198300
000000
ENDCHAR

STARTCHAR jisx0212_317A
ENCODING 12666
SWIDTH 960 0
DWIDTH 18 0
BBX 18 18 0 -2
BITMAP
000000
0C0000
0BFFC0
0B0C00
1B1800
1B7F80
3B6180
3B6180
5B7F80
1B6180
1B6180
1B7F80
1B0C00
1B6B00
16CD80
158CC0
163C00
000000
ENDCHAR

STARTCHAR jisx0212_317B
ENCODING 12667
SWIDTH 960 0
DWIDTH 18 0
BBX 18 18 0 -2
BITMAP
000000
0DFF00
0D8300
0D8300
19FF00
180000
3BFF80
3B0180
5BFF80
1B0180
1BFF80
1B0180
1BFF80
180000
186E00
19C380
1700C0
000000
ENDCHAR

STARTCHAR jisx0212_317C
ENCODING 12668
SWIDTH 960 0
DWIDTH 18 0
BBX 18 18 0 -2
BITMAP
000000
0CC380
0CFE00
0CC0C0
18FFC0
180000
387F80
3B6180
5B7F80
1B6180
1B7F80
1B6180
1B7F80
1B0000
1BFFC0
18E700
1781C0
000000
ENDCHAR

STARTCHAR jisx0212_317D
ENCODING 12669
SWIDTH 960 0
DWIDTH 18 0
BBX 18 18 0 -2
BITMAP
000000
0C1800
0C1800
0DFFC0
198C00
197F80
398D80
39FFC0
598D80
197F80
198C00
198000
197F80
1B6180
1B6180
167F80
186180
000000
ENDCHAR

STARTCHAR jisx0212_317E
ENCODING 12670
SWIDTH 960 0
DWIDTH 18 0
BBX 18 18 0 -2
BITMAP
000000
0C1800
0C1800
0BFFC0
180000
18FF00
38C300
38C300
58FF00
180000
1BFFC0
1B00C0
1B7EC0
1B66C0
1B66C0
1B7EC0
1B03C0
000000
ENDCHAR

STARTCHAR jisx0212_3221
ENCODING 12833
SWIDTH 960 0
DWIDTH 18 0
BBX 18 18 0 -2
BITMAP
000000
0C0780
0DFC00
0DB300
199980
1B18C0
3AB600
386C00
583B00
182F80
1BF8C0
181800
1BFFC0
181800
182C00
18E700
1781C0
000000
ENDCHAR

STARTCHAR jisx0212_3222
ENCODING 12834
SWIDTH 960 0
DWIDTH 18 0
BBX 18 18 0 -2
BITMAP
000000
0C0780
0BFC00
0B0000
1BFF80
1B0180
3B0180
3BFF80
5B0000
1BEFC0
1B72C0
1AB6C0
1BADC0
1672C0
16B6C0
1DACC0
1B73C0
000000
ENDCHAR

STARTCHAR jisx0212_3223
ENCODING 12835
SWIDTH 960 0
DWIDTH 18 0
BBX 18 18 0 -2
BITMAP
000000
0C3300
0DDE00
0C6C00
17FFC0
186C00
3BFF80
386D80
57FFC0
186D80
1BFF80
186C00
18EE00
196B00
1B6D80
166CC0
186C00
000000
ENDCHAR

STARTCHAR jisx0212_3224
ENCODING 12836
SWIDTH 960 0
DWIDTH 18 0
BBX 18 18 0 -2
BITMAP
000000
0C3800
0C6C00
0CC600
197B80
1B00C0
35FF00
398300
59FF00
198300
19FF00
198000
19FF80
1AC180
1AC180
16FF80
18C180
000000
ENDCHAR

STARTCHAR jisx0212_3225
ENCODING 12837
SWIDTH 960 0
DWIDTH 18 0
BBX 18 18 0 -2
BITMAP
000000
0C1800
0C1800
0BFFC0
1B00C0
1B6CC0
38C600
39BB00
5B6D80
18C600
198300
1AFF80
16C2C0
18C300
18C300
18FF00
18C300
000000
ENDCHAR

STARTCHAR jisx0212_3226
ENCODING 12838
SWIDTH 960 0
DWIDTH 18 0
BBX 18 18 0 -2
BITMAP
000000
0C1800
0C3000
0C7F00
18E300
1BB600
38DC00
38F000
5B7F80
18D800
199800
1BFFC0
181800
199980
199980
19FF80
198180
000000
ENDCHAR

STARTCHAR jisx0212_3227
ENCODING 12839
SWIDTH 960 0
DWIDTH 18 0
BBX 18 18 0 -2
BITMAP
000000
0D8600
0CCC00
0BFF80
183000
183000
39FF00
383000
583000
17FFC0
18C000
18C000
19FF80
199800
1B1800
161800
1BFFC0
000000
ENDCHAR

STARTCHAR jisx0212_3228
ENCODING 12840
SWIDTH 960 0
DWIDTH 18 0
BBX 18 18 0 -2
BITMAP
000000
0CFE00
0C0600
0DB300
1B2D80
1666C0
39FB00
380000
580000
17EFC0
1962C0
1B66C0
16EDC0
1962C0
1B66C0
166CC0
19E3C0
000000
ENDCHAR

STARTCHAR jisx0212_3229
ENCODING 12841
SWIDTH 960 0
DWIDTH 18 0
BBX 18 18 0 -2
BITMAP
000000
0C0180
0BE180
0C0180
17F180
181FC0
3BE180
380180
5BD980
180D80
180580
1BE580
1B6180
1B6180
1B6180
1BE180
1B0780
000000
ENDCHAR

STARTCHAR jisx0212_322A
ENCODING 12842
SWIDTH 960 0
DWIDTH 18 0
BBX 18 18 0 -2
BITMAP
000000
0D8600
0D8600
0D8600
198600
17DFC0
380000
365980
565980
1B6D80
1ACD80
1ACB00
1ACB00
19AB00
19E600
1F3FC0
180000
000000
ENDCHAR

STARTCHAR jisx0212_322B
ENCODING 12843
SWIDTH 960 0
DWIDTH 18 0
BBX 18 18 0 -2
BITMAP
000000
0C1800
0C1800
0BFFC0
1B00C0
1B00C0
39FF80
383000
586180
19B300
173600
186C00
19DE00
172B00
186D80
19CCC0
173800
000000
ENDCHAR

STARTCHAR jisx0212_322C
ENCODING 12844
SWIDTH 960 0
DWIDTH 18 0
BBX 18 18 0 -2
BITMAP
000000
0C3000
0C6600
0BFF00
180180
198600
3AAD80
3FDFC0
58CCC0
19B600
176380
1DCCC0
173980
18E300
1B8E00
187800
1BC000
000000
ENDCHAR

STARTCHAR jisx0212_322D
ENCODING 12845
SWIDTH 960 0
DWIDTH 18 0
BBX 18 18 0 -2
BITMAP
000000
0C3000
0C6000
0BFF80
1B1980
1ABD80
3B7580
3ADD80
5B3D80
1AE580
1BFF80
183000
18DB00
1AD980
1AC6C0
16C6C0
187E00
000000
ENDCHAR

STARTCHAR jisx0212_322E
ENCODING 12846
SWIDTH 960 0
DWIDTH 18 0
BBX 18 18 0 -2
BITMAP
000000
0C1800
0D9980
0D9980
19FF80
198180
380000
3BEFC0
5B6CC0
1B6EC0
1AEAC0
1B6CC0
1B6EC0
1AEAC0
166CC0
1658C0
15DBC0
000000
ENDCHAR

STARTCHAR jisx0212_322F
ENCODING 12847
SWIDTH 960 0
DWIDTH 18 0
BBX 18 18 0 -2
BITMAP
000000
0C1800
0C1800
0DFF80
18C300
186600
3BFFC0
380000
59FF80
198180
19FF80
198180
19FF80
186C00
186CC0
18CCC0
1787C0
000000
ENDCHAR

STARTCHAR jisx0212_3230
ENCODING 12848
SWIDTH 960 0
DWIDTH 18 0
BBX 18 18 0 -2
BITMAP
000000
0CC000
0CCC00
0DEFC0
19B6C0
1AE580
376300
39C300
597D80
1B00C0
180000
1BFFC0
181800
18DB00
199980
1718C0
187800
000000
ENDCHAR

STARTCHAR jisx0212_3231
ENCODING 12849
SWIDTH 960 0
DWIDTH 18 0
BBX 18 18 0 -2
BITMAP
000000
0C1800
0C1800
0DFF80
18C300
186600
3BFFC0
380000
59FF80
198180
19FF80
198180
19FF80
181800
1BFFC0
181800
181800
000000
ENDCHAR

STARTCHAR jisx0212_3232
ENCODING 12850
SWIDTH 960 0
DWIDTH 18 0
BBX 18 18 0 -2
BITMAP
000000
0CAB00
0CAB00
0BFFC0
18AB00
19AAC0
3B3BC0
380000
5BFFC0
1B18C0
1B18C0
19FF80
199980
199980
199980
199780
181800
000000
ENDCHAR

STARTCHAR jisx0212_3233
ENCODING 12851
SWIDTH 960 0
DWIDTH 18 0
BBX 18 18 0 -2
BITMAP
000000
0CCC00
0CCC00
0FFFC0
18CC00
198000
3BFF80
3B0180
57FD80
1B6D80
1BFD80
1B6D80
1BFD80
1B6D80
1B6D80
1B5D80
180700
000000
ENDCHAR

STARTCHAR jisx0212_3234
ENCODING 12852
SWIDTH 960 0
DWIDTH 18 0
BBX 18 18 0 -2
BITMAP
000000
0C0000
0FFFC0
0C6C00
1BFF80
1B6D80
3B6D80
3BFF80
580000
1BFF80
180000
17FFC0
181800
18DB00
199980
1718C0
187800
000000
ENDCHAR

STARTCHAR jisx0212_3235
ENCODING 12853
SWIDTH 960 0
DWIDTH 18 0
BBX 18 18 0 -2
BITMAP
000000
0C0000
0FDF80
0D6580
1B6D80
16DB80
396580
3B7D80
586C00
19D700
1731C0
18EC00
1B9980
187300
1BCE00
183800
1BE000
000000
ENDCHAR

STARTCHAR jisx0212_3236
ENCODING 12854
SWIDTH 960 0
DWIDTH 18 0
BBX 18 18 0 -2
BITMAP
000000
0D8600
0D8600
0FF600
198C00
198FC0
37DD80
355D80
57ED80
156D80
17ED80
198B00
198700
1FF600
198B00
199980
19B0C0
000000
ENDCHAR

STARTCHAR jisx0212_3237
ENCODING 12855
SWIDTH 960 0
DWIDTH 18 0
BBX 18 18 0 -2
BITMAP
000000
0BEF80
0B6D80
0BEF80
1B0C00
1B2CC0
3BEFC0
380000
58C600
1BFF80
18C600
18C600
17FFC0
180000
186E00
19C380
1700C0
000000
ENDCHAR

STARTCHAR jisx0212_3238
ENCODING 12856
SWIDTH 960 0
DWIDTH 18 0
BBX 18 18 0 -2
BITMAP
000000
0CC300
0C6600
0BFFC0
181800
19FF80
381800
3BFFC0
58DB00
185600
1BFFC0
180000
19FF80
198180
198180
19FF80
198180
000000
ENDCHAR

STARTCHAR jisx0212_3239
ENCODING 12857
SWIDTH 960 0
DWIDTH 18 0
BBX 18 18 0 -2
BITMAP
000000
0C1800
0DFF80
0D9980
19FF80
181800
3BFFC0
380000
59FF80
198180
19FF80
198180
19FF80
198180
19FF80
18E700
1781C0
000000
ENDCHAR

STARTCHAR jisx0212_323A
ENCODING 12858
SWIDTH 960 0
DWIDTH 18 0
BBX 18 18 0 -2
BITMAP
000000
0C7F00
0D8300
0D7D80
1B2CC0
15FF80
39AD80
396F80
598180
19FF80
198180
19FF80
180300
17FFC0
18C300
186300
180F00
000000
ENDCHAR

STARTCHAR jisx0212_323B
ENCODING 12859
SWIDTH 960 0
DWIDTH 18 0
BBX 18 18 0 -2
BITMAP
000000
0CC600
0CC600
0AE600
1AB600
16DFC0
3CCD80
37ED80
563D80
17AD80
16AD80
16B580
16B700
17B300
163700
162D80
16F8C0
000000
ENDCHAR

STARTCHAR jisx0212_323C
ENCODING 12860
SWIDTH 960 0
DWIDTH 18 0
BBX 18 18 0 -2
BITMAP
000000
0C1800
0BDB00
0C6E00
1B6CC0
19C580
39FB00
3B0180
5600C0
19FF00
198300
198300
19FF00
18C600
186600
186C00
17FFC0
000000
ENDCHAR

STARTCHAR jisx0212_323D
ENCODING 12861
SWIDTH 960 0
DWIDTH 18 0
BBX 18 18 0 -2
BITMAP
000000
0BFF80
0B0180
0BFF80
1B0000
1B7F00
3B0600
3AFFC0
5B0C00
1B3C00
1B0000
1BF7C0
163180
167B00
15EFC0
1C6300
19E700
000000
ENDCHAR

STARTCHAR jisx0212_323E
ENCODING 12862
SWIDTH 960 0
DWIDTH 18 0
BBX 18 18 0 -2
BITMAP
000000
0CB300
0DB600
0F7D80
1AAB00
19B600
3B6D80
37FF80
5836C0
183300
17FFC0
1B1980
1B9B00
1ACE00
16CEC0
1C3AC0
19E1C0
000000
ENDCHAR

STARTCHAR jisx0212_323F
ENCODING 12863
SWIDTH 960 0
DWIDTH 18 0
BBX 18 18 0 -2
BITMAP
000000
0C0780
0BFC00
0DB180
18D980
18DB00
37FFC0
3600C0
5582C0
19E300
1B5FC0
1B5B00
15DB00
1CBFC0
198300
1B0300
160300
000000
ENDCHAR

STARTCHAR jisx0212_3240
ENCODING 12864
SWIDTH 960 0
DWIDTH 18 0
BBX 18 18 0 -2
BITMAP
000000
0C0000
0BEFC0
0B2CC0
1B2CC0
1BEFC0
380000
39FF80
599980
19FF80
199980
19FF80
181800
1BFFC0
181800
181800
181800
000000
ENDCHAR

STARTCHAR jisx0212_3241
ENCODING 12865
SWIDTH 960 0
DWIDTH 18 0
BBX 18 18 0 -2
BITMAP
000000
0CC600
0CC580
0CC6C0
17F600
181FC0
3BF600
3B3600
5B3600
1BF700
18C700
1AEB00
1AAB00
16AB00
16DAC0
1CDAC0
1BB3C0
000000
ENDCHAR

STARTCHAR jisx0212_3242
ENCODING 12866
SWIDTH 960 0
DWIDTH 18 0
BBX 18 18 0 -2
BITMAP
000000
0C1800
0DFF80
0C1800
186600
1BFFC0
386600
380000
59FF80
198180
19FF80
198180
19FF80
198180
19FF80
18E700
1781C0
000000
ENDCHAR

STARTCHAR jisx0212_3243
ENCODING 12867
SWIDTH 960 0
DWIDTH 18 0
BBX 18 18 0 -2
BITMAP
000000
0C0000
0BEFC0
0B2CC0
1BEFC0
1B2CC0
3BEFC0
3B00C0
5B7EC0
1B66C0
1B7EC0
1B66C0
1B7EC0
1B66C0
1AC6C0
1ADEC0
1B03C0
000000
ENDCHAR

STARTCHAR jisx0212_3244
ENCODING 12868
SWIDTH 960 0
DWIDTH 18 0
BBX 18 18 0 -2
BITMAP
000000
001800
0D9980
0CDB00
0BFFC0
183C00
185600
39DB00
3719C0
598300
19E300
1B5FC0
1B5B00
15DB00
1CBFC0
198300
1B0300
000000
ENDCHAR

STARTCHAR jisx0212_3245
ENCODING 12869
SWIDTH 960 0
DWIDTH 18 0
BBX 18 18 0 -2
BITMAP
000000
0C0780
0BFC00
0B0000
1BFF80
1B0180
3BFF80
3B3300
5B6600
1B7FC0
1AE600
1B7F80
1B6600
1B7F80
166600
167FC0
166000
000000
ENDCHAR

STARTCHAR jisx0212_3246
ENCODING 12870
SWIDTH 960 0
DWIDTH 18 0
BBX 18 18 0 -2
BITMAP
000000
0C0000
0BFF80
0B6D80
1B6D80
1BEF80
386C00
3BEF80
5B6D80
1B6D80
1BEF80
1B6D80
1B6D80
1BEF80
1B6CC0
1860C0
183FC0
000000
ENDCHAR

STARTCHAR jisx0212_3247
ENCODING 12871
SWIDTH 960 0
DWIDTH 18 0
BBX 18 18 0 -2
BITMAP
000000
0CFF00
0CC300
0CC300
18FF00
180000
3BEFC0
3B2CC0
5B2CC0
1BEFC0
181800
1BFFC0
183C00
185600
19DB80
1718C0
181800
000000
ENDCHAR

STARTCHAR jisx0212_3248
ENCODING 12872
SWIDTH 960 0
DWIDTH 18 0
BBX 18 18 0 -2
BITMAP
000000
0C0780
0BFC00
0DB180
18D980
18DB00
3BFFC0
3B30C0
5B5AC0
196580
1B7EC0
183000
187F00
18E300
1BB600
183E00
17E3C0
000000
ENDCHAR

STARTCHAR jisx0212_3249
ENCODING 12873
SWIDTH 960 0
DWIDTH 18 0
BBX 18 18 0 -2
BITMAP
000000
0C1800
0BFFC0
0C0000
19FF80
196580
397D80
398180
59FF80
180000
18FF00
18C300
18FF00
18C300
18FF00
180000
17FFC0
000000
ENDCHAR

STARTCHAR jisx0212_324A
ENCODING 12874
SWIDTH 960 0
DWIDTH 18 0
BBX 18 18 0 -2
BITMAP
000000
0B6600
0B6600
0FF600
1B6600
1B6FC0
3B0D80
37ED80
563D80
17AD80
1AB580
1AB580
1AB700
1BB300
183700
186D80
19D8C0
000000
ENDCHAR

STARTCHAR jisx0212_324B
ENCODING 12875
SWIDTH 960 0
DWIDTH 18 0
BBX 18 18 0 -2
BITMAP
000000
0DFF80
0DAD80
0DAD80
19FF80
180000
3BFFC0
380000
59FF80
198180
198180
19FF80
186CC0
19CD80
16C700
18BB00
1BE1C0
000000
ENDCHAR

STARTCHAR jisx0212_324C
ENCODING 12876
SWIDTH 960 0
DWIDTH 18 0
BBX 18 18 0 -2
BITMAP
000000
0C3800
0C6C00
0CC600
198380
16FEC0
380000
3BFF80
5AB580
1B6D80
1BFF80
180000
19FF00
198300
19FF00
198300
19FF00
000000
ENDCHAR

STARTCHAR jisx0212_324D
ENCODING 12877
SWIDTH 960 0
DWIDTH 18 0
BBX 18 18 0 -2
BITMAP
000000
0CC000
0CFE00
0D8C00
19FFC0
1BAD80
356F80
39C000
597F80
198000
19FFC0
198000
197F80
198000
1B7F80
1B6180
167F80
000000
ENDCHAR

STARTCHAR jisx0212_324E
ENCODING 12878
SWIDTH 960 0
DWIDTH 18 0
BBX 18 18 0 -2
BITMAP
000000
0CC600
0D8600
0BF600
1B3600
1BEFC0
3B2D80
3BED80
58DD80
18CD80
17F580
198580
19F700
19B300
1B3700
1B2D80
15D8C0
000000
ENDCHAR

STARTCHAR jisx0212_324F
ENCODING 12879
SWIDTH 960 0
DWIDTH 18 0
BBX 18 18 0 -2
BITMAP
000000
0C3600
0AED80
0BBB80
1B6D80
1AB580
3BFF80
386C00
586CC0
19CFC0
176000
187F00
18E300
19B600
1B1C00
187700
17C1C0
000000
ENDCHAR

STARTCHAR jisx0212_3250
ENCODING 12880
SWIDTH 960 0
DWIDTH 18 0
BBX 18 18 0 -2
BITMAP
000000
0CC600
0BF580
0CC6C0
17FFC0
18C600
37F600
38C6C0
57F6C0
16D6C0
17F580
16D580
17FB00
18C2C0
1FF6C0
18CDC0
18D8C0
000000
ENDCHAR

STARTCHAR jisx0212_3251
ENCODING 12881
SWIDTH 960 0
DWIDTH 18 0
BBX 18 18 0 -2
BITMAP
000000
0C0000
0FFFC0
0C6C00
1BFF80
1B6D80
3B6D80
3BFF80
598000
198300
1BDFC0
1B6300
16DB00
1DBFC0
19B300
1B0300
160300
000000
ENDCHAR

STARTCHAR jisx0212_3252
ENCODING 12882
SWIDTH 960 0
DWIDTH 18 0
BBX 18 18 0 -2
BITMAP
000000
0C1800
0BFFC0
0B00C0
1AFEC0
181800
38DB00
3B9600
59FF80
178180
19FF80
198180
19FF80
198180
19FF80
18E700
1781C0
000000
ENDCHAR

STARTCHAR jisx0212_3253
ENCODING 12883
SWIDTH 960 0
DWIDTH 18 0
BBX 18 18 0 -2
BITMAP
000000
0B0000
0B5F80
0BC180
1B0B00
1B6600
3BE300
383FC0
5B06C0
17E580
159600
199780
17D600
199600
1AB600
1AAE00
1667C0
000000
ENDCHAR

STARTCHAR jisx0212_3254
ENCODING 12884
SWIDTH 960 0
DWIDTH 18 0
BBX 18 18 0 -2
BITMAP
000000
0C0C00
0E7F80
0B6D80
197F80
180C00
36FFC0
3B0000
59BF80
183180
17BF80
19B000
19BF80
19B180
19BF80
1AC000
167FC0
000000
ENDCHAR

STARTCHAR jisx0212_3255
ENCODING 12885
SWIDTH 960 0
DWIDTH 18 0
BBX 18 18 0 -2
BITMAP
000000
0D8000
0D8000
0BFF80
155B00
17FFC0
395B00
395B00
5BFF80
198300
19E300
1B5FC0
1B5B00
15DB00
18BFC0
198300
170300
000000
ENDCHAR

STARTCHAR jisx0212_3256
ENCODING 12886
SWIDTH 960 0
DWIDTH 18 0
BBX 18 18 0 -2
BITMAP
000000
0C3000
0BFF80
0B3180
18DB00
1AC580
36FEC0
380000
5BFF80
1B6D80
1B6D80
17FFC0
180000
1BFF80
181800
181800
187800
000000
ENDCHAR

STARTCHAR jisx0212_3257
ENCODING 12887
SWIDTH 960 0
DWIDTH 18 0
BBX 18 18 0 -2
BITMAP
000000
0CC300
0AAAC0
0AEB80
16DB00
196580
3B2CC0
361800
5BFFC0
1B00C0
181800
1BFFC0
183C00
185600
19DB80
1718C0
181800
000000
ENDCHAR

STARTCHAR jisx0212_3258
ENCODING 12888
SWIDTH 960 0
DWIDTH 18 0
BBX 18 18 0 -2
BITMAP
000000
0C0000
0BFFC0
0CDB00
199980
1718C0
3BFFC0
3B18C0
5B5AC0
1AD6C0
1B5AC0
1B18C0
1B5AC0
1AD6C0
1B5AC0
1B18C0
1B1BC0
000000
ENDCHAR

STARTCHAR jisx0212_3259
ENCODING 12889
SWIDTH 960 0
DWIDTH 18 0
BBX 18 18 0 -2
BITMAP
000000
0C1800
0BFFC0
0B6600
1BFFC0
1B6600
3B7E00
3B0000
5BFFC0
1B1800
1AFF80
1AD980
1AFF80
16D980
16FF80
1C7700
1BC1C0
000000
ENDCHAR

STARTCHAR jisx0212_325A
ENCODING 12890
SWIDTH 960 0
DWIDTH 18 0
BBX 18 18 0 -2
BITMAP
000000
0CC600
0BFFC0
0CC600
1BFFC0
18C600
396B00
373980
59FFC0
198180
19FF80
198180
19FF80
198180
19FF80
18E700
1781C0
000000
ENDCHAR

STARTCHAR jisx0212_325B
ENCODING 12891
SWIDTH 960 0
DWIDTH 18 0
BBX 18 18 0 -2
BITMAP
000000
0C6180
0BCF00
0B0C00
1BFFC0
1B6D80
3B6D80
361800
59FF80
198180
19FF80
198180
19FF80
198180
19FF80
18E700
1781C0
000000
ENDCHAR

STARTCHAR jisx0212_325C
ENCODING 12892
SWIDTH 960 0
DWIDTH 18 0
BBX 18 18 0 -2
BITMAP
000000
0D8000
0D9F80
0FD980
199980
17DF80
399980
37D980
581F80
17D980
155980
155F80
17EB00
166B00
166AC0
165AC0
15DBC0
000000
ENDCHAR

STARTCHAR jisx0212_325D
ENCODING 12893
SWIDTH 960 0
DWIDTH 18 0
BBX 18 18 0 -2
BITMAP
000000
0D8000
0D9F80
0FD980
165980
1B5F80
3AD980
37D980
581F80
199980
17D980
199F80
1BCB00
1B6B00
159AC0
1DB2C0
1963C0
000000
ENDCHAR

STARTCHAR jisx0212_325E
ENCODING 12894
SWIDTH 960 0
DWIDTH 18 0
BBX 18 18 0 -2
BITMAP
000000
0C3000
0DB700
0AFD80
185800
17FF80
38CC00
39FE00
5BB380
15FEC0
19B000
19FE00
19B000
19FF80
1AAD80
1AB180
160F00
000000
ENDCHAR

STARTCHAR jisx0212_325F
ENCODING 12895
SWIDTH 960 0
DWIDTH 18 0
BBX 18 18 0 -2
BITMAP
000000
0CCC00
0CCC00
0FEFC0
1B6C00
196FC0
3960C0
37EFC0
580C00
1BEFC0
1B2C00
1BEFC0
1B2C00
1BEFC0
1B2C00
1B2CC0
1AF7C0
000000
ENDCHAR

STARTCHAR jisx0212_3260
ENCODING 12896
SWIDTH 960 0
DWIDTH 18 0
BBX 18 18 0 -2
BITMAP
000000
0CC000
0CFC00
0D9800
1BFF80
158180
39FF80
398CC0
57EFC0
18F800
199800
1BFF80
159980
19FF80
183600
18DAC0
179FC0
000000
ENDCHAR

STARTCHAR jisx0212_3261
ENCODING 12897
SWIDTH 960 0
DWIDTH 18 0
BBX 18 18 0 -2
BITMAP
000000
0C1800
0BFFC0
0C0000
19EF80
19AD80
39EF80
386600
5BFF80
186600
1BFF80
186600
17FFC0
18D980
1BCB00
1EF700
1BC1C0
000000
ENDCHAR

STARTCHAR jisx0212_3262
ENCODING 12898
SWIDTH 960 0
DWIDTH 18 0
BBX 18 18 0 -2
BITMAP
000000
0C3000
0C7F80
0C6600
16AC00
159C00
367700
35C1C0
56FF80
16D580
16DD80
16FF80
161800
15FFC0
196D80
19B6C0
1B36C0
000000
ENDCHAR

STARTCHAR jisx0212_3263
ENCODING 12899
SWIDTH 960 0
DWIDTH 18 0
BBX 18 18 0 -2
BITMAP
000000
0BFF80
0B6D80
0B6D80
1BFF80
198000
3B1B00
3EB600
557FC0
1B3600
16BF80
1F7600
19BF80
15B600
157600
1DBFC0
19B000
000000
ENDCHAR

STARTCHAR jisx0212_3264
ENCODING 12900
SWIDTH 960 0
DWIDTH 18 0
BBX 18 18 0 -2
BITMAP
000000
0ACB00
0BEF80
0EDB00
17FFC0
1ACB00
3AEAC0
359BC0
59FF00
198300
19FF00
198300
19FF00
198300
19FF00
18E700
1781C0
000000
ENDCHAR

STARTCHAR jisx0212_3265
ENCODING 12901
SWIDTH 960 0
DWIDTH 18 0
BBX 18 18 0 -2
BITMAP
000000
006000
006000
006000
0FFF80
0C6000
0C6000
0C6000
0C6000
7FFFC0
006000
00B000
00B000
01B000
0330C0
0E30C0
781FC0
000000
ENDCHAR

STARTCHAR jisx0212_3266
ENCODING 12902
SWIDTH 960 0
DWIDTH 18 0
BBX 18 18 0 -2
BITMAP
000000
000000
01F800
061800
06CC00
0CC600
19B380
7198C0
037C00
1FC600
000000
033000
033000
033180
063180
1C3180
701F80
000000
ENDCHAR

STARTCHAR jisx0212_3267
ENCODING 12903
SWIDTH 960 0
DWIDTH 18 0
BBX 18 18 0 -2
BITMAP
000000
000700
007C00
1FC000
186000
186000
187F00
186000
186000
1FFF80
199800
199800
199800
199800
3318C0
3618C0
5C0FC0
000000
ENDCHAR

STARTCHAR jisx0212_3268
ENCODING 12904
SWIDTH 960 0
DWIDTH 18 0
BBX 18 18 0 -2
BITMAP
000000
060600
060600
060600
3FBFC0
363600
363600
363600
363600
7FFFC0
0C0C00
0E0E00
0E0E00
16D600
16D6C0
33B6C0
6063C0
000000
ENDCHAR

STARTCHAR jisx0212_3269
ENCODING 12905
SWIDTH 960 0
DWIDTH 18 0
BBX 18 18 0 -2
BITMAP
000000
000000
3F3F00
333300
333300
333300
333300
33F300
300300
300300
3FFF00
033000
033000
033000
063180
1C3180
701F80
000000
ENDCHAR

STARTCHAR jisx0212_326A
ENCODING 12906
SWIDTH 960 0
DWIDTH 18 0
BBX 18 18 0 -2
BITMAP
000000
00C000
00C000
7FFF80
000000
01F800
061800
0C0C00
1FFE00
6C0B80
0C0C00
0FFC00
033000
033000
063180
1C3180
701F80
000000
ENDCHAR

STARTCHAR jisx0212_326B
ENCODING 12907
SWIDTH 960 0
DWIDTH 18 0
BBX 18 18 0 -2
BITMAP
000000
000C00
3F8C00
001800
001B00
003180
7FB7C0
1B7CC0
1B0000
1B3F80
1B3180
1B3180
1B3180
333F80
3330C0
3300C0
61FFC0
000000
ENDCHAR

STARTCHAR jisx0212_326C
ENCODING 12908
SWIDTH 960 0
DWIDTH 18 0
BBX 18 18 0 -2
BITMAP
000000
060C00
162C00
162C00
3FFF80
366C00
66CC00
060C00
7FFFC0
1B3600
1B3600
1B3600
1B3600
1AE600
3366C0
2EC6C0
6183C0
000000
ENDCHAR

STARTCHAR jisx0212_326D
ENCODING 12909
SWIDTH 960 0
DWIDTH 18 0
BBX 18 18 0 -2
BITMAP
000000
0C0C00
6AFFC0
2AD600
2AFF80
2ED600
0CD600
7FFFC0
16CC00
16BF80
16AD80
16BF80
15AD80
35BF80
373600
3662C0
63FFC0
000000
ENDCHAR

STARTCHAR jisx0212_326E
ENCODING 12910
SWIDTH 960 0
DWIDTH 18 0
BBX 18 18 0 -2
BITMAP
000000
000000
33F000
303000
303000
303000
305800
305800
305800
30CC00
30CC00
318600
330300
360180
2C00C0
300000
1FFFC0
000000
ENDCHAR

STARTCHAR jisx0212_326F
ENCODING 12911
SWIDTH 960 0
DWIDTH 18 0
BBX 18 18 0 -2
BITMAP
000000
01F800
060C00
1C0700
6FFDC0
0CC600
0FFE00
0CC600
0FFE00
031800
3FFF80
031800
031800
7FFFC0
031C00
0E0700
380180
000000
ENDCHAR

STARTCHAR jisx0212_3270
ENCODING 12912
SWIDTH 960 0
DWIDTH 18 0
BBX 18 18 0 -2
BITMAP
000000
000000
3FFF80
300180
300180
300180
37FD80
300180
300180
300180
2FFD80
300180
300180
300180
300180
300180
300F80
000000
ENDCHAR

STARTCHAR jisx0212_3271
ENCODING 12913
SWIDTH 960 0
DWIDTH 18 0
BBX 18 18 0 -2
BITMAP
000000
000000
0FFE00
0C0600
0C0600
0C0600
7FFFC0
0C0600
0C0600
0C0600
7FFFC0
0C0600
0C0600
0C0600
0C0600
0C0600
0C3E00
000000
ENDCHAR

STARTCHAR jisx0212_3272
ENCODING 12914
SWIDTH 960 0
DWIDTH 18 0
BBX 18 18 0 -2
BITMAP
000000
000000
3FFF80
300180
300180
300180
33F980
331980
331980
331980
331980
33F980
330180
330180
300180
300180
300F80
000000
ENDCHAR

STARTCHAR jisx0212_3273
ENCODING 12915
SWIDTH 960 0
DWIDTH 18 0
BBX 18 18 0 -2
BITMAP
000000
000000
0FFE00
0C0600
0C0600
0C7E00
0C6600
0C6600
0C6600
3FFF80
300180
300180
300180
300180
300180
300180
300F80
000000
ENDCHAR

STARTCHAR jisx0212_3274
ENCODING 12916
SWIDTH 960 0
DWIDTH 18 0
BBX 18 18 0 -2
BITMAP
000000
00C000
00C000
00C000
3FFF80
30C180
30C180
30E180
016000
016000
016000
036000
036000
066000
0C6180
386180
603F80
000000
ENDCHAR

STARTCHAR jisx0212_3275
ENCODING 12917
SWIDTH 960 0
DWIDTH 18 0
BBX 18 18 0 -2
BITMAP
000000
000000
3FFF80
300180
300180
000000
0FFE00
0C0600
0C0600
0FFE00
0C0600
0C0600
0FFE00
0C0600
0C0600
0C0600
7FFFC0
000000
ENDCHAR

STARTCHAR jisx0212_3276
ENCODING 12918
SWIDTH 960 0
DWIDTH 18 0
BBX 18 18 0 -2
BITMAP
000000
000000
3FFF80
300180
300180
0FFE00
000000
3FFF80
018000
06C380
3D6E00
077800
3CAC00
03B600
0E3380
7860C0
03C000
000000
ENDCHAR

STARTCHAR jisx0212_3277
ENCODING 12919
SWIDTH 960 0
DWIDTH 18 0
BBX 18 18 0 -2
BITMAP
000000
000000
3FFF80
300180
300180
7FE000
198000
197F80
1FB180
19B180
199B00
1F9B00
198E00
198E00
179B00
7DB180
0160C0
000000
ENDCHAR

STARTCHAR jisx0212_3278
ENCODING 12920
SWIDTH 960 0
DWIDTH 18 0
BBX 18 18 0 -2
BITMAP
000000
00C000
00C000
018000
7FFFC0
033000
031800
060C00
0C0600
39C380
6070C0
000000
000600
001C00
007000
03C000
0E0000
000000
ENDCHAR

STARTCHAR jisx0212_3279
ENCODING 12921
SWIDTH 960 0
DWIDTH 18 0
BBX 18 18 0 -2
BITMAP
000000
001800
60D600
30DB00
199980
019980
0318C0
05FF80
001800
181800
181800
37FFC0
301800
301800
601800
601800
001800
000000
ENDCHAR

STARTCHAR jisx0212_327A
ENCODING 12922
SWIDTH 960 0
DWIDTH 18 0
BBX 18 18 0 -2
BITMAP
000000
000000
31FF80
198180
0D8180
018180
01FF80
018C00
018C00
0DFFC0
0D8C00
198C00
198600
3186C0
319AC0
61F1C0
0780C0
000000
ENDCHAR

STARTCHAR jisx0212_327B
ENCODING 12923
SWIDTH 960 0
DWIDTH 18 0
BBX 18 18 0 -2
BITMAP
000000
001800
60D800
30D800
19FF80
019800
031800
001800
03FFC0
186C00
186C00
306C00
30CC00
30CC00
618CC0
630CC0
0607C0
000000
ENDCHAR

STARTCHAR jisx0212_327C
ENCODING 12924
SWIDTH 960 0
DWIDTH 18 0
BBX 18 18 0 -2
BITMAP
000000
007000
60D800
30CC00
198C00
018600
030300
05FD80
0C00C0
000000
1BFF00
1B0300
330300
330300
630300
63FF00
030300
000000
ENDCHAR

STARTCHAR jisx0212_327D
ENCODING 12925
SWIDTH 960 0
DWIDTH 18 0
BBX 18 18 0 -2
BITMAP
000000
003000
63FF00
303300
183300
07FFC0
003300
003300
03FF00
183000
183000
37FF80
303000
303000
6FFFC0
603000
003000
000000
ENDCHAR

STARTCHAR jisx0212_327E
ENCODING 12926
SWIDTH 960 0
DWIDTH 18 0
BBX 18 18 0 -2
BITMAP
000000
006000
606000
30FE00
18C600
018C00
03FF80
059980
019980
199980
19FF80
31B000
303800
305800
60D8C0
6398C0
0E0FC0
000000
ENDCHAR

STARTCHAR jisx0212_3321
ENCODING 13089
SWIDTH 960 0
DWIDTH 18 0
BBX 18 18 0 -2
BITMAP
000000
000F00
61F800
31B300
199980
0318C0
030000
05FF00
003300
183300
17FFC0
303300
303300
33FF00
603300
603000
00F000
000000
ENDCHAR

STARTCHAR jisx0212_3322
ENCODING 13090
SWIDTH 960 0
DWIDTH 18 0
BBX 18 18 0 -2
BITMAP
000000
000B00
600D80
300C00
1BFFC0
030C00
030C00
02ED80
030D80
1AEB00
1AAB00
32B600
36B600
36EAC0
66DAC0
6C31C0
1860C0
000000
ENDCHAR

STARTCHAR jisx0212_3323
ENCODING 13091
SWIDTH 960 0
DWIDTH 18 0
BBX 18 18 0 -2
BITMAP
000000
003000
603000
37FF80
186000
03FF00
00CC00
0FFFC0
018600
199B00
1AF180
3630C0
2BFF00
303000
605800
61CE00
0F03C0
000000
ENDCHAR

STARTCHAR jisx0212_3324
ENCODING 13092
SWIDTH 960 0
DWIDTH 18 0
BBX 18 18 0 -2
BITMAP
000000
001800
619980
319980
199980
01FF80
000000
03FFC0
000000
19FF80
198180
318180
31FF80
30C300
606300
606600
07FFC0
000000
ENDCHAR

STARTCHAR jisx0212_3325
ENCODING 13093
SWIDTH 960 0
DWIDTH 18 0
BBX 18 18 0 -2
BITMAP
000000
000000
67FFC0
306C00
186C00
03FF80
036D80
036D80
03FF80
183000
183000
37FFC0
307800
30AC00
63B700
6E31C0
003000
000000
ENDCHAR

STARTCHAR jisx0212_3326
ENCODING 13094
SWIDTH 960 0
DWIDTH 18 0
BBX 18 18 0 -2
BITMAP
000000
000000
63FF80
330180
1B0180
01FF00
018300
01FF00
018300
19FF00
183000
303000
37FF80
300000
60CE00
638380
0E00C0
000000
ENDCHAR

STARTCHAR jisx0212_3327
ENCODING 13095
SWIDTH 960 0
DWIDTH 18 0
BBX 18 18 0 -2
BITMAP
000000
0361C0
636F00
336C00
17EC00
036C00
03EC00
036FC0
036D80
1BED80
1B6D80
336D80
2FFD80
300D80
62D980
665980
0C3180
000000
ENDCHAR

STARTCHAR jisx0212_3328
ENCODING 13096
SWIDTH 960 0
DWIDTH 18 0
BBX 18 18 0 -2
BITMAP
000000
000000
65EF80
356D80
156D80
05ED80
05AF80
05AC00
05EC00
156CC0
156CC0
2DF7C0
2C0000
36DB00
66D980
666CC0
0C6CC0
000000
ENDCHAR

STARTCHAR jisx0212_3329
ENCODING 13097
SWIDTH 960 0
DWIDTH 18 0
BBX 18 18 0 -2
BITMAP
000000
00C000
00C000
018000
07F800
061800
061800
061800
061800
061800
061800
061800
061800
0C18C0
0C18C0
1818C0
700FC0
000000
ENDCHAR

STARTCHAR jisx0212_332A
ENCODING 13098
SWIDTH 960 0
DWIDTH 18 0
BBX 18 18 0 -2
BITMAP
000000
000000
1FFF80
180180
180180
1FFF80
180000
180000
19FC00
198C00
198C00
198C00
198C00
330CC0
330CC0
360CC0
6C07C0
000000
ENDCHAR

STARTCHAR jisx0212_332B
ENCODING 13099
SWIDTH 960 0
DWIDTH 18 0
BBX 18 18 0 -2
BITMAP
000000
000000
1FFF00
180300
180300
17FB00
18C300
198300
1BFB00
1B1B00
1B1B00
1BFB00
1B1AC0
331AC0
33F9C0
3319C0
6000C0
000000
ENDCHAR

STARTCHAR jisx0212_332C
ENCODING 13100
SWIDTH 960 0
DWIDTH 18 0
BBX 18 18 0 -2
BITMAP
000000
000000
1FFF00
18DB00
1B7300
17FB00
196300
17FB00
195B00
1FFF00
195B00
17FB00
1972C0
335AC0
356DC0
2D65C0
6160C0
000000
ENDCHAR

STARTCHAR jisx0212_332D
ENCODING 13101
SWIDTH 960 0
DWIDTH 18 0
BBX 18 18 0 -2
BITMAP
000000
1F6600
01AD80
1B1B00
0DEE00
1C0700
77FDC0
060C00
07FC00
031800
01B000
7FFFC0
000000
07F800
0618C0
0C18C0
780FC0
000000
ENDCHAR

STARTCHAR jisx0212_332E
ENCODING 13102
SWIDTH 960 0
DWIDTH 18 0
BBX 18 18 0 -2
BITMAP
000000
000000
31FF80
199800
0DFF00
019800
0DFF00
0D9800
19FF80
1AAD80
36AD80
600700
07F800
061800
0618C0
0C18C0
780FC0
000000
ENDCHAR

STARTCHAR jisx0212_332F
ENCODING 13103
SWIDTH 960 0
DWIDTH 18 0
BBX 18 18 0 -2
BITMAP
000000
00C000
60C180
60C180
60C180
6FFD80
60C180
60C180
60C180
60C180
60C180
60C180
5FFD80
600180
600180
7FFF80
600180
000000
ENDCHAR

STARTCHAR jisx0212_3330
ENCODING 13104
SWIDTH 960 0
DWIDTH 18 0
BBX 18 18 0 -2
BITMAP
000000
000000
3FFF80
000180
000180
000180
000180
000180
003D80
03E180
3E0180
000180
000180
000300
000300
000600
007C00
000000
ENDCHAR

STARTCHAR jisx0212_3331
ENCODING 13105
SWIDTH 960 0
DWIDTH 18 0
BBX 18 18 0 -2
BITMAP
000000
001800
001800
061800
061800
061800
061800
061800
061800
061800
061800
061800
061800
061800
001800
001800
00F800
000000
ENDCHAR

STARTCHAR jisx0212_3332
ENCODING 13106
SWIDTH 960 0
DWIDTH 18 0
BBX 18 18 0 -2
BITMAP
000000
000000
3FFE00
018600
018600
198700
198580
198580
1986C0
3306C0
3306C0
630600
060600
060600
0C0C00
180C00
70F800
000000
ENDCHAR

STARTCHAR jisx0212_3333
ENCODING 13107
SWIDTH 960 0
DWIDTH 18 0
BBX 18 18 0 -2
BITMAP
000000
0C00C0
0B00C0
0D8CC0
0DECC0
7F0CC0
0C0CC0
0CCCC0
0CCCC0
06CCC0
058CC0
058CC0
030CC0
0700C0
0DB0C0
38B0C0
6073C0
000000
ENDCHAR

STARTCHAR jisx0212_3334
ENCODING 13108
SWIDTH 960 0
DWIDTH 18 0
BBX 18 18 0 -2
BITMAP
000000
0000C0
3FE0C0
000CC0
000CC0
000CC0
000CC0
7FECC0
0D8CC0
0D8CC0
0D8CC0
0D8CC0
0D8CC0
1980C0
19B8C0
31E0C0
6703C0
000000
ENDCHAR

STARTCHAR jisx0212_3335
ENCODING 13109
SWIDTH 960 0
DWIDTH 18 0
BBX 18 18 0 -2
BITMAP
000000
000000
0FFF00
00C300
00C300
018300
030600
0E0600
383C00
000000
3FBFC0
0CCCC0
0CCCC0
18D8C0
199980
31B180
676700
000000
ENDCHAR

STARTCHAR jisx0212_3336
ENCODING 13110
SWIDTH 960 0
DWIDTH 18 0
BBX 18 18 0 -2
BITMAP
000000
0000C0
1FC0C0
18CCC0
18CCC0
18CCC0
1FCCC0
18CCC0
18CCC0
18CCC0
1FCCC0
18CCC0
18CCC0
18C0C0
30C0C0
30C0C0
63C3C0
000000
ENDCHAR

STARTCHAR jisx0212_3337
ENCODING 13111
SWIDTH 960 0
DWIDTH 18 0
BBX 18 18 0 -2
BITMAP
000000
0600C0
0600C0
060CC0
7FECC0
000CC0
00CCC0
00CCC0
398CC0
0D8CC0
030CC0
038CC0
06CCC0
0C60C0
1860C0
3000C0
6003C0
000000
ENDCHAR

STARTCHAR jisx0212_3338
ENCODING 13112
SWIDTH 960 0
DWIDTH 18 0
BBX 18 18 0 -2
BITMAP
000000
0600C0
0780C0
0CCCC0
0C6CC0
182CC0
3FACC0
600CC0
000CC0
7FECC0
066CC0
066CC0
066CC0
0660C0
05E0C0
0600C0
0603C0
000000
ENDCHAR

STARTCHAR jisx0212_3339
ENCODING 13113
SWIDTH 960 0
DWIDTH 18 0
BBX 18 18 0 -2
BITMAP
000000
1800C0
1800C0
1FECC0
306CC0
306CC0
7F6CC0
336CC0
336CC0
336CC0
3F6CC0
306CC0
33CCC0
3000C0
3030C0
3030C0
1FF3C0
000000
ENDCHAR

STARTCHAR jisx0212_333A
ENCODING 13114
SWIDTH 960 0
DWIDTH 18 0
BBX 18 18 0 -2
BITMAP
000000
1B0000
1B7F00
1B1B00
1B1B00
7FDB00
1B5B00
1B5B00
1ADB80
1B1AC0
7FDAC0
1B32C0
1B3300
1B3300
336600
336600
62DC00
000000
ENDCHAR

STARTCHAR jisx0212_333B
ENCODING 13115
SWIDTH 960 0
DWIDTH 18 0
BBX 18 18 0 -2
BITMAP
000000
0600C0
0600C0
3FECC0
060CC0
060CC0
060CC0
7FECC0
060CC0
060CC0
060CC0
3FECC0
060CC0
0600C0
06F0C0
0F80C0
7803C0
000000
ENDCHAR

STARTCHAR jisx0212_333C
ENCODING 13116
SWIDTH 960 0
DWIDTH 18 0
BBX 18 18 0 -2
BITMAP
000000
0000C0
7FF0C0
18CCC0
18CCC0
1FCCC0
18CCC0
18CCC0
1FCCC0
18CCC0
18CCC0
18CCC0
1BCCC0
1EC0C0
70C0C0
00C0C0
00C3C0
000000
ENDCHAR

STARTCHAR jisx0212_333D
ENCODING 13117
SWIDTH 960 0
DWIDTH 18 0
BBX 18 18 0 -2
BITMAP
000000
0C0000
0CFF80
0C0D80
7F8D80
0C6D80
0C6D80
0CAD80
7FAD80
0C1D80
0C0D80
1B1580
199B80
19B1C0
2EB300
786300
00CE00
000000
ENDCHAR

STARTCHAR jisx0212_333E
ENCODING 13118
SWIDTH 960 0
DWIDTH 18 0
BBX 18 18 0 -2
BITMAP
000000
0000C0
7FF0C0
000CC0
000CC0
3FECC0
306CC0
306CC0
306CC0
3FECC0
000CC0
30CCC0
198CC0
1980C0
1B00C0
03F0C0
7E03C0
000000
ENDCHAR

STARTCHAR jisx0212_333F
ENCODING 13119
SWIDTH 960 0
DWIDTH 18 0
BBX 18 18 0 -2
BITMAP
000000
0300C0
1B60C0
1B66C0
1B66C0
1B66C0
2AB6C0
2AB6C0
6BB6C0
6306C0
0306C0
3FF6C0
0306C0
0300C0
0378C0
07C0C0
7C03C0
000000
ENDCHAR

STARTCHAR jisx0212_3340
ENCODING 13120
SWIDTH 960 0
DWIDTH 18 0
BBX 18 18 0 -2
BITMAP
000000
06C0C0
06C0C0
06C6C0
3EF6C0
06C6C0
06C6C0
06C6C0
3EF6C0
06C6C0
06C6C0
1EC6C0
76F6C0
0CC0C0
0CC0C0
18C0C0
30C3C0
000000
ENDCHAR

STARTCHAR jisx0212_3341
ENCODING 13121
SWIDTH 960 0
DWIDTH 18 0
BBX 18 18 0 -2
BITMAP
000000
0D80C0
0CC0C0
0FF6C0
7606C0
02C6C0
03B6C0
0EB6C0
3876C0
0D86C0
0CC6C0
0FF6C0
7606C0
02C0C0
03B0C0
0EB0C0
3873C0
000000
ENDCHAR

STARTCHAR jisx0212_3342
ENCODING 13122
SWIDTH 960 0
DWIDTH 18 0
BBX 18 18 0 -2
BITMAP
000000
18C0C0
18C0C0
7FECC0
18CCC0
18CCC0
1FCCC0
18CCC0
18CCC0
1FCCC0
18CCC0
18CCC0
7FECC0
0000C0
0DC0C0
3860C0
6033C0
000000
ENDCHAR

STARTCHAR jisx0212_3343
ENCODING 13123
SWIDTH 960 0
DWIDTH 18 0
BBX 18 18 0 -2
BITMAP
000000
0300C0
0300C0
7FF6C0
0306C0
1FE6C0
1B66C0
1FE6C0
0306C0
3FE6C0
0366C0
7FF6C0
0366C0
3FE0C0
0300C0
0300C0
0F03C0
000000
ENDCHAR

STARTCHAR jisx0212_3344
ENCODING 13124
SWIDTH 960 0
DWIDTH 18 0
BBX 18 18 0 -2
BITMAP
000000
0600C0
0600C0
7FF6C0
6036C0
5836C0
1806C0
1DF6C0
35B6C0
35B6C0
35B6C0
55B6C0
6D76C0
0D80C0
1998C0
3198C0
60FBC0
000000
ENDCHAR

STARTCHAR jisx0212_3345
ENCODING 13125
SWIDTH 960 0
DWIDTH 18 0
BBX 18 18 0 -2
BITMAP
000000
0000C0
3DF0C0
0636C0
35B6C0
1CE6C0
0C66C0
16B6C0
35B6C0
6306C0
3DF6C0
0636C0
35B6C0
1CE0C0
1C60C0
36B0C0
659BC0
000000
ENDCHAR

STARTCHAR jisx0212_3346
ENCODING 13126
SWIDTH 960 0
DWIDTH 18 0
BBX 18 18 0 -2
BITMAP
000000
0600C0
0600C0
7FECC0
000CC0
000CC0
3FCCC0
30CCC0
30CCC0
30CCC0
3FCCC0
060CC0
36CCC0
36C0C0
6660C0
6660C0
1E03C0
000000
ENDCHAR

STARTCHAR jisx0212_3347
ENCODING 13127
SWIDTH 960 0
DWIDTH 18 0
BBX 18 18 0 -2
BITMAP
000000
0300C0
1B30C0
1B6CC0
1BCCC0
330CC0
058CC0
0CECC0
3B2CC0
630CC0
1B2CC0
1B6CC0
1ACCC0
3300C0
0580C0
1CE0C0
703BC0
000000
ENDCHAR

STARTCHAR jisx0212_3348
ENCODING 13128
SWIDTH 960 0
DWIDTH 18 0
BBX 18 18 0 -2
BITMAP
000000
0600C0
0600C0
7FECC0
0D8CC0
16CCC0
366CC0
7FECC0
366CC0
366CC0
3FECC0
366CC0
366CC0
3FE0C0
0630C0
0630C0
03F3C0
000000
ENDCHAR

STARTCHAR jisx0212_3349
ENCODING 13129
SWIDTH 960 0
DWIDTH 18 0
BBX 18 18 0 -2
BITMAP
000000
0000C0
1FE0C0
1866C0
1866C0
1BE6C0
1B66C0
1B66C0
7FF6C0
6036C0
6FB6C0
6DB6C0
6DB6C0
6FB0C0
6C30C0
6030C0
60F3C0
000000
ENDCHAR

STARTCHAR jisx0212_334A
ENCODING 13130
SWIDTH 960 0
DWIDTH 18 0
BBX 18 18 0 -2
BITMAP
000000
0300C0
0300C0
3FF6C0
06C6C0
0386C0
0EE6C0
3FF6C0
3586C0
3586C0
2FF6C0
2D86C0
3986C0
2FF0C0
3180C0
61F0C0
5F03C0
000000
ENDCHAR

STARTCHAR jisx0212_334B
ENCODING 13131
SWIDTH 960 0
DWIDTH 18 0
BBX 18 18 0 -2
BITMAP
000000
0300C0
7FF8C0
0306C0
3FF6C0
3336C0
3FF6C0
3336C0
3FF6C0
0366C0
03F6C0
7E56C0
0066C0
7FF8C0
1860C0
0C60C0
01E3C0
000000
ENDCHAR

STARTCHAR jisx0212_334C
ENCODING 13132
SWIDTH 960 0
DWIDTH 18 0
BBX 18 18 0 -2
BITMAP
000000
0000C0
7FF0C0
16B6C0
35B6C0
6E76C0
16B6C0
3736C0
6DC6C0
3B66C0
66B6C0
1D86C0
7336C0
0E60C0
79C0C0
0700C0
7C03C0
000000
ENDCHAR

STARTCHAR jisx0212_334D
ENCODING 13133
SWIDTH 960 0
DWIDTH 18 0
BBX 18 18 0 -2
BITMAP
000000
3FE0C0
0CC0C0
0586C0
7FF6C0
0736C0
1B66C0
7706C0
0006C0
3FF6C0
35B6C0
2DF6C0
3836C0
2FB0C0
2DB0C0
2FB0C0
3073C0
000000
ENDCHAR

STARTCHAR jisx0212_334E
ENCODING 13134
SWIDTH 960 0
DWIDTH 18 0
BBX 18 18 0 -2
BITMAP
000000
0000C0
3FFCC0
3030C0
39B2C0
2D62C0
2B7AC0
3FAAC0
333AC0
2AB2C0
2AB2C0
2AB2C0
2FB2C0
3358C0
3358C0
66CCC0
6D8BC0
000000
ENDCHAR

STARTCHAR jisx0212_334F
ENCODING 13135
SWIDTH 960 0
DWIDTH 18 0
BBX 18 18 0 -2
BITMAP
000000
0000C0
3FF0C0
35B6C0
35B6C0
3FF6C0
0C06C0
1FF6C0
3036C0
6636C0
3FB6C0
36B6C0
3FB6C0
05B0C0
07B0C0
7CB0C0
01E3C0
000000
ENDCHAR

STARTCHAR jisx0212_3350
ENCODING 13136
SWIDTH 960 0
DWIDTH 18 0
BBX 18 18 0 -2
BITMAP
000000
0600C0
0780C0
0CE6C0
1FB6C0
3016C0
7FF6C0
3336C0
3AB6C0
2BB6C0
3FF6C0
0006C0
1FE6C0
1860C0
1FE0C0
1860C0
1FE3C0
000000
ENDCHAR

STARTCHAR jisx0212_3351
ENCODING 13137
SWIDTH 960 0
DWIDTH 18 0
BBX 18 18 0 -2
BITMAP
000000
0300C0
1BF0C0
1B06C0
7FF6C0
0036C0
00D6C0
3FF6C0
30C6C0
3FB6C0
36B6C0
2EB6C0
3566C0
2F58C0
66D8C0
6DB8C0
5B1BC0
000000
ENDCHAR

STARTCHAR jisx0212_3352
ENCODING 13138
SWIDTH 960 0
DWIDTH 18 0
BBX 18 18 0 -2
BITMAP
000000
0300C0
0600C0
1FE6C0
1866C0
1FE6C0
1866C0
3FF6C0
3336C0
3FF6C0
3336C0
3FF6C0
0006C0
7FF8C0
0CC0C0
18C0C0
70C3C0
000000
ENDCHAR

STARTCHAR jisx0212_3353
ENCODING 13139
SWIDTH 960 0
DWIDTH 18 0
BBX 18 18 0 -2
BITMAP
000000
0630C0
3DE0C0
3186C0
3FF6C0
35B6C0
35B6C0
6306C0
3FF6C0
3036C0
3FF6C0
3036C0
3FF6C0
3030C0
3FF0C0
1CE0C0
703BC0
000000
ENDCHAR

STARTCHAR jisx0212_3354
ENCODING 13140
SWIDTH 960 0
DWIDTH 18 0
BBX 18 18 0 -2
BITMAP
000000
0C00C0
1FC0C0
3186C0
7FF6C0
3036C0
3FF6C0
3196C0
7DF6C0
1F06C0
3306C0
7FF6C0
3336C0
3FF0C0
06C0C0
1B58C0
73FBC0
000000
ENDCHAR

STARTCHAR jisx0212_3355
ENCODING 13141
SWIDTH 960 0
DWIDTH 18 0
BBX 18 18 0 -2
BITMAP
000000
2D60C0
3DF0C0
6B66C0
7FF6C0
2D66C0
2D56C0
5B76C0
3FF6C0
3036C0
3FF6C0
3036C0
3FF6C0
3030C0
3FF0C0
1CE0C0
703BC0
000000
ENDCHAR

STARTCHAR jisx0212_3356
ENCODING 13142
SWIDTH 960 0
DWIDTH 18 0
BBX 18 18 0 -2
BITMAP
000000
0180C0
3FFCC0
3666C0
3FFEC0
3666C0
2D56C0
3556C0
365EC0
32C6C0
3EF6C0
32C6C0
3EF6C0
33C0C0
3EFCC0
66C0C0
5CC3C0
000000
ENDCHAR

STARTCHAR jisx0212_3357
ENCODING 13143
SWIDTH 960 0
DWIDTH 18 0
BBX 18 18 0 -2
BITMAP
000000
3FF8C0
3018C0
3FF6C0
3186C0
2D76C0
3186C0
2FF6C0
2AB6C0
2FF6C0
3606C0
2FF6C0
3AD6C0
2FD6C0
62D8C0
5F58C0
6073C0
000000
ENDCHAR

STARTCHAR jisx0212_3358
ENCODING 13144
SWIDTH 960 0
DWIDTH 18 0
BBX 18 18 0 -2
BITMAP
000000
0C1800
0C1800
0C1800
0C1800
7FD800
0CD800
0CD800
0CD800
0CD800
0CD800
18D800
18D800
18D8C0
3198C0
3198C0
6F0FC0
000000
ENDCHAR

STARTCHAR jisx0212_3359
ENCODING 13145
SWIDTH 960 0
DWIDTH 18 0
BBX 18 18 0 -2
BITMAP
000000
00EC00
1F8C00
180C00
180C00
183FC0
1FECC0
198CC0
198CC0
198CC0
198CC0
1998C0
1998C0
3198C0
31B180
31B180
616F00
000000
ENDCHAR

STARTCHAR jisx0212_335A
ENCODING 13146
SWIDTH 960 0
DWIDTH 18 0
BBX 18 18 0 -2
BITMAP
000000
060C00
060C00
060C00
7FEC00
003FC0
000CC0
1F8CC0
198CC0
198CC0
198CC0
198CC0
1958C0
1958C0
31D980
303180
606F00
000000
ENDCHAR

STARTCHAR jisx0212_335B
ENCODING 13147
SWIDTH 960 0
DWIDTH 18 0
BBX 18 18 0 -2
BITMAP
000000
00C000
00C000
1FFF00
00C300
018300
030300
0E0600
383C00
060600
060600
3FBFC0
0CCCC0
0CCCC0
18D8C0
31B180
676700
000000
ENDCHAR

STARTCHAR jisx0212_335C
ENCODING 13148
SWIDTH 960 0
DWIDTH 18 0
BBX 18 18 0 -2
BITMAP
000000
00CC00
078C00
3E0C00
060C00
063FC0
3FCCC0
060CC0
060CC0
060CC0
7FECC0
0618C0
0618C0
0618C0
063180
066180
1ECF00
000000
ENDCHAR

STARTCHAR jisx0212_335D
ENCODING 13149
SWIDTH 960 0
DWIDTH 18 0
BBX 18 18 0 -2
BITMAP
000000
000C00
7FCC00
0C0C00
0C0C00
0C7FC0
180CC0
1F8CC0
398CC0
398CC0
598CC0
1998C0
1998C0
1998C0
1FB180
186180
18CF00
000000
ENDCHAR

STARTCHAR jisx0212_335E
ENCODING 13150
SWIDTH 960 0
DWIDTH 18 0
BBX 18 18 0 -2
BITMAP
000000
060C00
060C00
0C0C00
3FCC00
30BFC0
30CCC0
30CCC0
30CCC0
3FCCC0
30CCC0
30D8C0
30D8C0
30D8C0
3FB180
306180
30CF00
000000
ENDCHAR

STARTCHAR jisx0212_335F
ENCODING 13151
SWIDTH 960 0
DWIDTH 18 0
BBX 18 18 0 -2
BITMAP
000000
00EC00
3F8C00
300C00
300C00
303FC0
3FECC0
300CC0
300CC0
2FECC0
2C6CC0
2C6CC0
2C58C0
2C58C0
6FD980
6C3180
6C6F00
000000
ENDCHAR

STARTCHAR jisx0212_3360
ENCODING 13152
SWIDTH 960 0
DWIDTH 18 0
BBX 18 18 0 -2
BITMAP
000000
318C00
198C00
1B0C00
7FEC00
063FC0
060CC0
060CC0
3FCCC0
060CC0
060CC0
05D8C0
7F18C0
0C18C0
0C3180
186180
30CF00
000000
ENDCHAR

STARTCHAR jisx0212_3361
ENCODING 13153
SWIDTH 960 0
DWIDTH 18 0
BBX 18 18 0 -2
BITMAP
000000
060C00
060C00
060C00
3FCC00
063FC0
060CC0
060CC0
7FECC0
060CC0
060CC0
3FD8C0
0618C0
0618C0
07B180
7E6180
00CF00
000000
ENDCHAR

STARTCHAR jisx0212_3362
ENCODING 13154
SWIDTH 960 0
DWIDTH 18 0
BBX 18 18 0 -2
BITMAP
000000
060C00
0C0C00
0D8C00
18CC00
7FFFC0
006CC0
160CC0
160CC0
3FCCC0
360CC0
6618C0
7FD8C0
0618C0
063180
066180
06CF00
000000
ENDCHAR

STARTCHAR jisx0212_3363
ENCODING 13155
SWIDTH 960 0
DWIDTH 18 0
BBX 18 18 0 -2
BITMAP
000000
000C00
3FEC00
300C00
300C00
2FBFC0
330CC0
330CC0
2FCCC0
330CC0
330CC0
3FD8C0
3018C0
3018C0
3FF180
303180
306F00
000000
ENDCHAR

STARTCHAR jisx0212_3364
ENCODING 13156
SWIDTH 960 0
DWIDTH 18 0
BBX 18 18 0 -2
BITMAP
000000
000180
3FD980
061980
0FD980
18D980
2D9980
071980
060180
1CC780
30C000
3FFF80
018180
018180
030180
0E0300
781E00
000000
ENDCHAR

STARTCHAR jisx0212_3365
ENCODING 13157
SWIDTH 960 0
DWIDTH 18 0
BBX 18 18 0 -2
BITMAP
000000
060C00
060C00
7FEC00
060C00
063FC0
3FCCC0
30CCC0
30CCC0
3FCCC0
1B0CC0
1B18C0
1B18C0
1AD8C0
33B180
2E6180
60CF00
000000
ENDCHAR

STARTCHAR jisx0212_3366
ENCODING 13158
SWIDTH 960 0
DWIDTH 18 0
BBX 18 18 0 -2
BITMAP
000000
0C0C00
0C0C00
1FEC00
180C00
303FC0
5FCCC0
16CCC0
1ACCC0
18CCC0
7FECC0
2D98C0
3598C0
3198C0
7FB180
616180
06CF00
000000
ENDCHAR

STARTCHAR jisx0212_3367
ENCODING 13159
SWIDTH 960 0
DWIDTH 18 0
BBX 18 18 0 -2
BITMAP
000000
060C00
060C00
3FCC00
30CC00
30BFC0
3FCCC0
30CCC0
30CCC0
3FCCC0
306CC0
36D8C0
3398C0
3198C0
36B180
3C6180
70CF00
000000
ENDCHAR

STARTCHAR jisx0212_3368
ENCODING 13160
SWIDTH 960 0
DWIDTH 18 0
BBX 18 18 0 -2
BITMAP
000000
000C00
7FCC00
18CC00
0B8C00
063FC0
3FCCC0
36CCC0
36CCC0
3FCCC0
36CCC0
36CCC0
3FD8C0
36D8C0
36D980
36B180
35AF00
000000
ENDCHAR

STARTCHAR jisx0212_3369
ENCODING 13161
SWIDTH 960 0
DWIDTH 18 0
BBX 18 18 0 -2
BITMAP
000000
060600
158600
16C600
3FE600
6D9FC0
0D86C0
7FF6C0
18C6C0
18C6C0
3F66C0
59ACC0
198CC0
1B8CC0
181980
18D980
0FB700
000000
ENDCHAR

STARTCHAR jisx0212_336A
ENCODING 13162
SWIDTH 960 0
DWIDTH 18 0
BBX 18 18 0 -2
BITMAP
000000
060C00
060C00
7FEC00
000C00
31BFC0
198CC0
1B0CC0
7FECC0
000CC0
3FCCC0
30D8C0
30D8C0
30D8C0
30B180
3FB180
306F00
000000
ENDCHAR

STARTCHAR jisx0212_336B
ENCODING 13163
SWIDTH 960 0
DWIDTH 18 0
BBX 18 18 0 -2
BITMAP
000000
060C00
060C00
060C00
7FEC00
063FC0
36CCC0
36CCC0
36CCC0
556CC0
556CC0
0F18C0
0D98C0
16D8C0
363180
666180
06CF00
000000
ENDCHAR

STARTCHAR jisx0212_336C
ENCODING 13164
SWIDTH 960 0
DWIDTH 18 0
BBX 18 18 0 -2
BITMAP
000000
000600
7FF600
060600
060600
0C1FC0
3FE6C0
2B66C0
2B66C0
2F66C0
2B66C0
2B6CC0
2F6CC0
2B6CC0
2B5980
3FD980
303700
000000
ENDCHAR

STARTCHAR jisx0212_336D
ENCODING 13165
SWIDTH 960 0
DWIDTH 18 0
BBX 18 18 0 -2
BITMAP
000000
000600
7FE600
606600
5F6600
605FC0
5F66C0
6066C0
0006C0
3FC6C0
30C6C0
3FCCC0
30CCC0
3FCCC0
30D980
3FD980
303700
000000
ENDCHAR

STARTCHAR jisx0212_336E
ENCODING 13166
SWIDTH 960 0
DWIDTH 18 0
BBX 18 18 0 -2
BITMAP
000000
000600
1FC600
18C600
1FC600
001FC0
3FE6C0
3066C0
3FE6C0
3066C0
3FE6C0
306CC0
306CC0
3FECC0
0D9980
38D980
603700
000000
ENDCHAR

STARTCHAR jisx0212_336F
ENCODING 13167
SWIDTH 960 0
DWIDTH 18 0
BBX 18 18 0 -2
BITMAP
000000
1F8600
018600
18C600
366600
65BFC0
0CC6C0
3F66C0
0006C0
7BE6C0
1CE6C0
2D6CC0
6B6CC0
1CECC0
2D5980
6B7180
1CE700
000000
ENDCHAR

STARTCHAR jisx0212_3370
ENCODING 13168
SWIDTH 960 0
DWIDTH 18 0
BBX 18 18 0 -2
BITMAP
000000
000C00
7FEC00
0B0C00
3FCC00
2ABFC0
2ACCC0
3FCCC0
000CC0
3FCCC0
000CC0
7FD8C0
0618C0
1598C0
36B180
663180
1E6F00
000000
ENDCHAR

STARTCHAR jisx0212_3371
ENCODING 13169
SWIDTH 960 0
DWIDTH 18 0
BBX 18 18 0 -2
BITMAP
000000
001800
3F3300
02FF80
3F0CC0
307F80
7F6D80
637F80
030B00
1EFF80
00C0C0
00C000
3FFF80
018180
030180
0E0300
781E00
000000
ENDCHAR

STARTCHAR jisx0212_3372
ENCODING 13170
SWIDTH 960 0
DWIDTH 18 0
BBX 18 18 0 -2
BITMAP
000000
0C0600
1F8600
198600
330600
7FDFC0
3666C0
3666C0
3FE6C0
0C66C0
16C6C0
778CC0
1ACCC0
776CC0
1B5980
733180
0E6700
000000
ENDCHAR

STARTCHAR jisx0212_3373
ENCODING 13171
SWIDTH 960 0
DWIDTH 18 0
BBX 18 18 0 -2
BITMAP
000000
358C00
358C00
7FEC00
358C00
35BFC0
378CC0
300CC0
3FECC0
30CCC0
3FCCC0
30CCC0
3FD8C0
30D8C0
3FD980
19B180
70AF00
000000
ENDCHAR

STARTCHAR jisx0212_3374
ENCODING 13172
SWIDTH 960 0
DWIDTH 18 0
BBX 18 18 0 -2
BITMAP
000000
01C600
3F0600
0C0600
7FF600
18DFC0
3F66C0
59B6C0
1F86C0
0006C0
7FE6C0
606CC0
5F6CC0
596CC0
5F5980
587180
61E700
000000
ENDCHAR

STARTCHAR jisx0212_3375
ENCODING 13173
SWIDTH 960 0
DWIDTH 18 0
BBX 18 18 0 -2
BITMAP
000000
060600
16C600
366600
5FB600
0D9FC0
7FF6C0
18C6C0
3666C0
5DB6C0
0B06C0
06CCC0
7FECC0
166CC0
159980
36D980
663700
000000
ENDCHAR

STARTCHAR jisx0212_3376
ENCODING 13174
SWIDTH 960 0
DWIDTH 18 0
BBX 18 18 0 -2
BITMAP
000000
0C0000
0C3FC0
7FB6C0
0CB6C0
18BFC0
18B6C0
37B6C0
6036C0
333FC0
330C00
7FC600
2AAD80
2AACC0
2AACC0
6EED80
558F80
000000
ENDCHAR

STARTCHAR jisx0212_3377
ENCODING 13175
SWIDTH 960 0
DWIDTH 18 0
BBX 18 18 0 -2
BITMAP
000000
198600
198600
7FE600
198600
3FDFC0
36C6C0
3FC6C0
36C6C0
3FC6C0
0606C0
7FECC0
666CC0
656CC0
5ED980
607180
61E700
000000
ENDCHAR

STARTCHAR jisx0212_3378
ENCODING 13176
SWIDTH 960 0
DWIDTH 18 0
BBX 18 18 0 -2
BITMAP
000000
060600
07C600
060600
3FF600
365FC0
3F86C0
3666C0
2FE6C0
2B66C0
2FE6C0
2B6CC0
2FECC0
330CC0
655980
56B980
57B700
000000
ENDCHAR

STARTCHAR jisx0212_3379
ENCODING 13177
SWIDTH 960 0
DWIDTH 18 0
BBX 18 18 0 -2
BITMAP
000000
0CC600
17F600
31B7C0
6FFD80
180D80
3BF580
5B3580
1BF300
1B3700
1BED80
1B38C0
00C000
7FFFC0
0180C0
070180
7C1F00
000000
ENDCHAR

STARTCHAR jisx0212_337A
ENCODING 13178
SWIDTH 960 0
DWIDTH 18 0
BBX 18 18 0 -2
BITMAP
000000
030600
7FF600
000600
3DE600
2D5FC0
3DE6C0
0D86C0
3FE6C0
0D86C0
3FE6C0
0D8CC0
7FECC0
1B6CC0
2DD980
6ED980
3C7700
000000
ENDCHAR

STARTCHAR jisx0212_337B
ENCODING 13179
SWIDTH 960 0
DWIDTH 18 0
BBX 18 18 0 -2
BITMAP
000000
060000
060000
0FFF80
0C0180
180180
180180
300180
5FF980
000180
000180
003980
03E180
3E0180
000300
000300
001E00
000000
ENDCHAR

STARTCHAR jisx0212_337C
ENCODING 13180
SWIDTH 960 0
DWIDTH 18 0
BBX 18 18 0 -2
BITMAP
000000
060000
060000
0FFF80
0C0180
186180
186180
306180
58C180
18F180
199980
1B0D80
160D80
180180
1FFB00
180300
001E00
000000
ENDCHAR

STARTCHAR jisx0212_337D
ENCODING 13181
SWIDTH 960 0
DWIDTH 18 0
BBX 18 18 0 -2
BITMAP
000000
060000
060000
0FFFC0
0C00C0
18CCC0
1CCCC0
36D8C0
66D8C0
3FFEC0
00C0C0
01E0C0
02B8C0
06CCC0
1CC580
30C180
00C700
000000
ENDCHAR

STARTCHAR jisx0212_337E
ENCODING 13182
SWIDTH 960 0
DWIDTH 18 0
BBX 18 18 0 -2
BITMAP
000000
060000
060000
0FFFC0
0B00C0
1B00C0
17FCC0
36C0C0
6CC0C0
1FFEC0
00C0C0
0CCCC0
0CCCC0
0CCCC0
0FFD80
0C0180
000F00
000000
ENDCHAR

STARTCHAR jisx0212_3421
ENCODING 13345
SWIDTH 960 0
DWIDTH 18 0
BBX 18 18 0 -2
BITMAP
000000
060000
060000
0FFF80
0C0180
19C180
336180
663180
0C1980
37ED80
600580
0FF180
0C3180
0C3180
0C3300
0FF300
0C0E00
000000
ENDCHAR

STARTCHAR jisx0212_3422
ENCODING 13346
SWIDTH 960 0
DWIDTH 18 0
BBX 18 18 0 -2
BITMAP
000000
0C0000
0C0000
1FFFC0
1B00C0
363EC0
5F86C0
1986C0
1FBEC0
19B0C0
1FB0C0
19BEC0
1786C0
7B86C0
0586C0
1D8D80
77B700
000000
ENDCHAR

STARTCHAR jisx0212_3423
ENCODING 13347
SWIDTH 960 0
DWIDTH 18 0
BBX 18 18 0 -2
BITMAP
000000
0C0000
0C0000
1FFFC0
1600C0
2C7CC0
5F6CC0
196AC0
1F6EC0
19C0C0
1F7EC0
0036C0
1BB6C0
1E1CC0
181CC0
19B580
0F6700
000000
ENDCHAR

STARTCHAR jisx0212_3424
ENCODING 13348
SWIDTH 960 0
DWIDTH 18 0
BBX 18 18 0 -2
BITMAP
000000
306D80
306D80
30DB00
31B600
32DB00
366D80
2C6D80
381800
30FFC0
30C2C0
30B6C0
30CCC0
32D6C0
32B2C0
1EFFC0
00C0C0
000000
ENDCHAR

STARTCHAR jisx0212_3425
ENCODING 13349
SWIDTH 960 0
DWIDTH 18 0
BBX 18 18 0 -2
BITMAP
000000
000000
3FFF80
318000
318000
31F800
331800
333000
363000
365800
2C5800
30CC00
318C00
330600
360300
3FFFC0
300000
000000
ENDCHAR

STARTCHAR jisx0212_3426
ENCODING 13350
SWIDTH 960 0
DWIDTH 18 0
BBX 18 18 0 -2
BITMAP
000000
000000
3FFF80
306000
336000
335E00
33F600
2F6600
336600
335C00
330300
330300
31FF00
300000
300000
3FFFC0
300000
000000
ENDCHAR

STARTCHAR jisx0212_3427
ENCODING 13351
SWIDTH 960 0
DWIDTH 18 0
BBX 18 18 0 -2
BITMAP
000000
000000
3FFF80
300000
300000
37FE00
306000
306000
306000
306000
306000
306000
2FFF00
300000
300000
3FFFC0
300000
000000
ENDCHAR

STARTCHAR jisx0212_3428
ENCODING 13352
SWIDTH 960 0
DWIDTH 18 0
BBX 18 18 0 -2
BITMAP
000000
000000
3FFFC0
306000
306000
2FFF80
300000
31F800
319800
319800
319800
331980
331980
360F80
2C0000
3FFFC0
300000
000000
ENDCHAR

STARTCHAR jisx0212_3429
ENCODING 13353
SWIDTH 960 0
DWIDTH 18 0
BBX 18 18 0 -2
BITMAP
000000
000000
3FFFC0
306000
30CC00
318600
37FF00
300180
30CC00
30CC00
2FFF80
30CC00
30CC00
318C00
330C00
3FFFC0
300000
000000
ENDCHAR

STARTCHAR jisx0212_342A
ENCODING 13354
SWIDTH 960 0
DWIDTH 18 0
BBX 18 18 0 -2
BITMAP
000000
000000
3FFFC0
306000
306000
2FFF80
306000
336600
336600
356B00
36AD80
2CB980
319800
330E00
360300
3FFFC0
300000
000000
ENDCHAR

STARTCHAR jisx0212_342B
ENCODING 13355
SWIDTH 960 0
DWIDTH 18 0
BBX 18 18 0 -2
BITMAP
000000
000000
3FFFC0
300000
36C600
36C600
36C600
37BFC0
36C600
30C600
2FC600
36C600
36C600
36DF80
2CC000
3FFFC0
300000
000000
ENDCHAR

STARTCHAR jisx0212_342C
ENCODING 13356
SWIDTH 960 0
DWIDTH 18 0
BBX 18 18 0 -2
BITMAP
000000
000000
3FFFC0
303000
333300
333300
33FF00
333300
300000
37FF80
303000
33FF00
303000
37FF80
300000
3FFFC0
300000
000000
ENDCHAR

STARTCHAR jisx0212_342D
ENCODING 13357
SWIDTH 960 0
DWIDTH 18 0
BBX 18 18 0 -2
BITMAP
000000
000000
3FFFC0
318000
33FF00
32DB00
36DB00
2DB300
336E00
37FF00
330300
33FF00
330300
33FF00
300000
3FFFC0
300000
000000
ENDCHAR

STARTCHAR jisx0212_342E
ENCODING 13358
SWIDTH 960 0
DWIDTH 18 0
BBX 18 18 0 -2
BITMAP
000000
000000
3FFFC0
300000
33F800
318C00
36F700
3C01C0
37CD80
36DB00
36DB00
35B600
36B600
35DB00
36CD80
3FFFC0
300000
000000
ENDCHAR

STARTCHAR jisx0212_342F
ENCODING 13359
SWIDTH 960 0
DWIDTH 18 0
BBX 18 18 0 -2
BITMAP
000000
000000
3FFFC0
331800
3FD800
331800
2FFF00
2ADB00
2FDB00
2ADB00
2FDB00
331AC0
3FF2C0
3333C0
336000
3FFFC0
300000
000000
ENDCHAR

STARTCHAR jisx0212_3430
ENCODING 13360
SWIDTH 960 0
DWIDTH 18 0
BBX 18 18 0 -2
BITMAP
000000
000000
3FFFC0
300000
37DF80
365980
37DF80
300000
33FF00
333300
33FF00
333300
2FFFC0
303000
303000
3FFFC0
300000
000000
ENDCHAR

STARTCHAR jisx0212_3431
ENCODING 13361
SWIDTH 960 0
DWIDTH 18 0
BBX 18 18 0 -2
BITMAP
000000
000000
3FFFC0
306000
30C000
2FFFC0
318600
33FF00
2D85C0
39FE00
300000
37DF80
365980
37DF80
300000
3FFFC0
300000
000000
ENDCHAR

STARTCHAR jisx0212_3432
ENCODING 13362
SWIDTH 960 0
DWIDTH 18 0
BBX 18 18 0 -2
BITMAP
000000
000000
3FFFC0
303000
37FF80
303000
37FF80
36D980
37FF80
330300
33FF00
330300
33FF00
318700
370180
3FFFC0
300000
000000
ENDCHAR

STARTCHAR jisx0212_3433
ENCODING 13363
SWIDTH 960 0
DWIDTH 18 0
BBX 18 18 0 -2
BITMAP
000000
000000
7FFFC0
300000
307000
30D800
318C00
33FF00
2E01C0
300000
33FE00
330600
330600
33FE00
330600
300000
1FFFC0
000000
ENDCHAR

STARTCHAR jisx0212_3434
ENCODING 13364
SWIDTH 960 0
DWIDTH 18 0
BBX 18 18 0 -2
BITMAP
000000
000000
3FFFC0
300000
33FE00
330600
33FE00
330600
33FE00
30C000
2FFF80
318C00
33D800
366E00
33C300
3FFFC0
300000
000000
ENDCHAR

STARTCHAR jisx0212_3435
ENCODING 13365
SWIDTH 960 0
DWIDTH 18 0
BBX 18 18 0 -2
BITMAP
000000
000000
7FFFC0
300380
37FE00
360000
37FF80
360180
37FF80
360000
37FF80
2B6D80
2BFF80
3B6D80
336B80
300000
1FFFC0
000000
ENDCHAR

STARTCHAR jisx0212_3436
ENCODING 13366
SWIDTH 960 0
DWIDTH 18 0
BBX 18 18 0 -2
BITMAP
000000
000000
7FFE00
000600
030600
030600
030600
030600
030600
7FF600
030600
030600
0302C0
0302C0
0302C0
0301C0
0300C0
000000
ENDCHAR

STARTCHAR jisx0212_3437
ENCODING 13367
SWIDTH 960 0
DWIDTH 18 0
BBX 18 18 0 -2
BITMAP
000000
0DB600
0DB600
0DB600
0DB600
0DB600
0DB600
7FFFC0
0DB600
0DB600
0DB600
0DB600
0DB600
0DB600
0DB600
0DB600
0DB600
000000
ENDCHAR

STARTCHAR jisx0212_3438
ENCODING 13368
SWIDTH 960 0
DWIDTH 18 0
BBX 18 18 0 -2
BITMAP
000000
00C000
00C000
00C000
3FFF80
00C000
0CC600
0CC600
0C0600
7FFFC0
0C0600
0C0600
0C0600
0C0600
0C0600
0FFE00
0C0600
000000
ENDCHAR

STARTCHAR jisx0212_3439
ENCODING 13369
SWIDTH 960 0
DWIDTH 18 0
BBX 18 18 0 -2
BITMAP
000000
18C600
18C600
7FF600
18C600
1FC600
18BFC0
1FC600
18C600
18C600
7FF600
358600
35B600
2DF600
380600
3FF600
300600
000000
ENDCHAR

STARTCHAR jisx0212_343A
ENCODING 13370
SWIDTH 960 0
DWIDTH 18 0
BBX 18 18 0 -2
BITMAP
000000
180300
31F600
6C0D80
3BF700
3606C0
7DEFC0
180300
55EAC0
55AAC0
55EAC0
18C300
00C000
7FFFC0
00C000
00C000
00C000
000000
ENDCHAR

STARTCHAR jisx0212_343B
ENCODING 13371
SWIDTH 960 0
DWIDTH 18 0
BBX 18 18 0 -2
BITMAP
000000
00C000
00C000
00C000
00FF80
00C000
00C000
00C000
7FFFC0
00C000
00B800
00CE00
00C300
00C180
00C000
00C000
00C000
000000
ENDCHAR

STARTCHAR jisx0212_343C
ENCODING 13372
SWIDTH 960 0
DWIDTH 18 0
BBX 18 18 0 -2
BITMAP
000000
00C000
00C000
00FFC0
00C000
00C000
3FFF80
300180
300180
3FE180
306180
306180
3FE180
300180
300180
3FFF80
300180
000000
ENDCHAR

STARTCHAR jisx0212_343D
ENCODING 13373
SWIDTH 960 0
DWIDTH 18 0
BBX 18 18 0 -2
BITMAP
000000
00C000
00FFC0
00C000
00C000
3FFF80
306180
30CD80
2ECD80
339980
32D980
363180
2C5980
31CD80
330180
3FFF80
300180
000000
ENDCHAR

STARTCHAR jisx0212_343E
ENCODING 13374
SWIDTH 960 0
DWIDTH 18 0
BBX 18 18 0 -2
BITMAP
000000
01C000
1F3F80
183180
183180
183180
183180
183180
183180
183180
183180
1BB180
1E3780
783000
003000
003000
003000
000000
ENDCHAR

STARTCHAR jisx0212_343F
ENCODING 13375
SWIDTH 960 0
DWIDTH 18 0
BBX 18 18 0 -2
BITMAP
000000
000000
7FBF80
0C3180
0C3180
0C3180
0C3180
0C3180
0C3180
0C3180
0C3180
0DB180
0F3780
783000
003000
003000
003000
000000
ENDCHAR

STARTCHAR jisx0212_3440
ENCODING 13376
SWIDTH 960 0
DWIDTH 18 0
BBX 18 18 0 -2
BITMAP
000000
000000
7FDFC0
0CD8C0
0CD8C0
0CD8C0
18D8C0
18D8C0
3398C0
6018C0
3FD8C0
30D8C0
30DBC0
30D800
30D800
3FD800
30D800
000000
ENDCHAR

STARTCHAR jisx0212_3441
ENCODING 13377
SWIDTH 960 0
DWIDTH 18 0
BBX 18 18 0 -2
BITMAP
000000
060000
060000
0C1F80
3FD980
2AD980
2AD980
2AD980
2AD980
2AD980
2AD980
2AD980
2AD980
2AD780
2F9800
781800
001800
000000
ENDCHAR

STARTCHAR jisx0212_3442
ENCODING 13378
SWIDTH 960 0
DWIDTH 18 0
BBX 18 18 0 -2
BITMAP
000000
000000
7BDF80
6B5980
6B5980
7BD980
001980
3FD980
001980
7FD980
181980
181980
3F9780
319800
319800
019800
0F1800
000000
ENDCHAR

STARTCHAR jisx0212_3443
ENCODING 13379
SWIDTH 960 0
DWIDTH 18 0
BBX 18 18 0 -2
BITMAP
000000
030000
030000
07F800
061800
0C3000
1FFFC0
2C0000
6C0000
0C0000
0C0000
0C0000
0C0000
180000
180000
300000
600000
000000
ENDCHAR

STARTCHAR jisx0212_3444
ENCODING 13380
SWIDTH 960 0
DWIDTH 18 0
BBX 18 18 0 -2
BITMAP
000000
000000
1FFFC0
180000
180700
183C00
1BF000
183000
183000
183FC0
1FF000
183000
183000
183000
3030C0
3030C0
601FC0
000000
ENDCHAR

STARTCHAR jisx0212_3445
ENCODING 13381
SWIDTH 960 0
DWIDTH 18 0
BBX 18 18 0 -2
BITMAP
000000
000000
3FFFC0
300000
300000
37FF80
303000
303000
303000
303000
2FFFC0
303000
303000
303000
603000
603000
603000
000000
ENDCHAR

STARTCHAR jisx0212_3446
ENCODING 13382
SWIDTH 960 0
DWIDTH 18 0
BBX 18 18 0 -2
BITMAP
000000
000000
3FFFC0
300000
300700
33FC00
331800
331800
331800
33FF80
330C00
330C00
330C00
32F600
5F86C0
6002C0
6FFDC0
000000
ENDCHAR

STARTCHAR jisx0212_3447
ENCODING 13383
SWIDTH 960 0
DWIDTH 18 0
BBX 18 18 0 -2
BITMAP
000000
000000
3FFFC0
300000
303000
303000
33FF00
303000
303000
37FF80
300000
303000
303000
33FF00
603000
603000
6FFFC0
000000
ENDCHAR

STARTCHAR jisx0212_3448
ENCODING 13384
SWIDTH 960 0
DWIDTH 18 0
BBX 18 18 0 -2
BITMAP
000000
000000
3FFFC0
300000
300000
37FF80
306000
30CC00
30C600
31BF00
37E180
303000
303000
37FF80
603000
603000
6FFFC0
000000
ENDCHAR

STARTCHAR jisx0212_3449
ENCODING 13385
SWIDTH 960 0
DWIDTH 18 0
BBX 18 18 0 -2
BITMAP
000000
000000
3FFFC0
303000
303000
2FFFC0
303000
33FF00
333300
33FF00
333300
333300
33FF00
303000
6FFFC0
603000
603000
000000
ENDCHAR

STARTCHAR jisx0212_344A
ENCODING 13386
SWIDTH 960 0
DWIDTH 18 0
BBX 18 18 0 -2
BITMAP
000000
000000
3FFFC0
30CC00
30CC00
37FF80
30CC00
30CC00
2FFFC0
300000
300000
33FF00
330300
33FF00
630300
63FF00
630300
000000
ENDCHAR

STARTCHAR jisx0212_344B
ENCODING 13387
SWIDTH 960 0
DWIDTH 18 0
BBX 18 18 0 -2
BITMAP
000000
000000
3FFFC0
303000
306000
33FF00
330300
33FF00
330300
33FF00
303180
37BB00
30B600
31AC00
673700
5C31C0
60F000
000000
ENDCHAR

STARTCHAR jisx0212_344C
ENCODING 13388
SWIDTH 960 0
DWIDTH 18 0
BBX 18 18 0 -2
BITMAP
000000
000000
3FFFC0
300000
30E380
2FBE00
330C00
330C00
2FBFC0
331E00
379E00
36AB00
2B2B00
2B6D80
5ACCC0
630C00
630C00
000000
ENDCHAR

STARTCHAR jisx0212_344D
ENCODING 13389
SWIDTH 960 0
DWIDTH 18 0
BBX 18 18 0 -2
BITMAP
000000
000000
3FFFC0
318600
2FFFC0
318600
31FE00
303000
37FF80
363180
37FF80
303000
37FF80
303000
67FF00
603000
5FFFC0
000000
ENDCHAR

STARTCHAR jisx0212_344E
ENCODING 13390
SWIDTH 960 0
DWIDTH 18 0
BBX 18 18 0 -2
BITMAP
000000
000000
3FFFC0
330C00
330C00
2FCC00
331FC0
3FDB00
331B00
3FFB00
365B00
360B00
37CE00
36C600
6CCB00
6CB980
5B60C0
000000
ENDCHAR

STARTCHAR jisx0212_344F
ENCODING 13391
SWIDTH 960 0
DWIDTH 18 0
BBX 18 18 0 -2
BITMAP
000000
000000
3FFFC0
330C00
330C00
3FFF80
330C00
379E00
2AAB00
3B6D80
330C00
30C000
336600
333300
630D80
630D80
61FC00
000000
ENDCHAR

STARTCHAR jisx0212_3450
ENCODING 13392
SWIDTH 960 0
DWIDTH 18 0
BBX 18 18 0 -2
BITMAP
000000
000000
3FFFC0
30CC00
2FFFC0
30CC00
33FF00
333300
33FF00
333300
33FF00
303000
2FFFC0
2C2CC0
6C3EC0
6BF2C0
6C01C0
000000
ENDCHAR

STARTCHAR jisx0212_3451
ENCODING 13393
SWIDTH 960 0
DWIDTH 18 0
BBX 18 18 0 -2
BITMAP
000000
000000
3FFFC0
36C580
2FE6C0
2C7FC0
2FE600
2C6B00
2FD980
2C70C0
37FF80
363180
37FF80
363180
67FF80
603000
603000
000000
ENDCHAR

STARTCHAR jisx0212_3452
ENCODING 13394
SWIDTH 960 0
DWIDTH 18 0
BBX 18 18 0 -2
BITMAP
000000
0FFF80
0C3000
0BFF00
0B0300
0BFF00
0CAC00
19B700
377180
000000
3FBFC0
363600
2FAF80
2DAD80
2FAF80
5556C0
5556C0
000000
ENDCHAR

STARTCHAR jisx0212_3453
ENCODING 13395
SWIDTH 960 0
DWIDTH 18 0
BBX 18 18 0 -2
BITMAP
000000
018000
018000
018000
7FFFC0
030000
033000
033000
066000
066000
0C6000
0CCC00
18C600
198300
31BF00
6FE180
000180
000000
ENDCHAR

STARTCHAR jisx0212_3454
ENCODING 13396
SWIDTH 960 0
DWIDTH 18 0
BBX 18 18 0 -2
BITMAP
000000
000000
060600
060600
060600
0C0C00
0C0C00
0C0C00
0C0C00
161600
1B1B00
1B1B00
31B180
31B180
2FAFC0
7978C0
0000C0
000000
ENDCHAR

STARTCHAR jisx0212_3455
ENCODING 13397
SWIDTH 960 0
DWIDTH 18 0
BBX 18 18 0 -2
BITMAP
000000
018000
018000
018000
3FFF80
031800
060C00
06CC00
0CC600
198300
318180
6198C0
030C00
030600
06FE00
3F8300
000300
000000
ENDCHAR

STARTCHAR jisx0212_3456
ENCODING 13398
SWIDTH 960 0
DWIDTH 18 0
BBX 18 18 0 -2
BITMAP
000000
00C000
018000
019800
030C00
030600
067E00
3FC300
000300
0C0C00
0C0C00
181800
1B1B00
31B180
37B780
7CFCC0
00C0C0
000000
ENDCHAR

STARTCHAR jisx0212_3457
ENCODING 13399
SWIDTH 960 0
DWIDTH 18 0
BBX 18 18 0 -2
BITMAP
000000
00C000
00C000
7FFFC0
00C000
1FFF00
18C300
1FFF00
18C300
18C300
1FFF00
198000
030C00
060600
0CFF00
7F8180
0000C0
000000
ENDCHAR

STARTCHAR jisx0212_3458
ENCODING 13400
SWIDTH 960 0
DWIDTH 18 0
BBX 18 18 0 -2
BITMAP
000000
00C000
019800
030C00
1FF600
0C0300
18C600
356D80
7F3FC0
0618C0
0D8E00
398380
6D6CC0
0DB600
199B00
319980
078000
000000
ENDCHAR

STARTCHAR jisx0212_3459
ENCODING 13401
SWIDTH 960 0
DWIDTH 18 0
BBX 18 18 0 -2
BITMAP
000000
00C000
00C000
1FFE00
00C600
00C600
00C600
7FFFC0
00C000
00C000
1FFE00
060600
030C00
019800
00F000
079E00
7C03C0
000000
ENDCHAR

STARTCHAR jisx0212_345A
ENCODING 13402
SWIDTH 960 0
DWIDTH 18 0
BBX 18 18 0 -2
BITMAP
000000
000000
1FFC00
060C00
031800
01B000
00E000
07BC00
3C0780
000000
7F7F80
31B180
333300
161600
0C0C00
373700
6161C0
000000
ENDCHAR

STARTCHAR jisx0212_345B
ENCODING 13403
SWIDTH 960 0
DWIDTH 18 0
BBX 18 18 0 -2
BITMAP
000000
00C000
00C000
7FFFC0
00C000
1FFF00
18C300
18C300
1FFF00
00C000
1FFE00
060600
030C00
019800
00F000
079E00
7C03C0
000000
ENDCHAR

STARTCHAR jisx0212_345C
ENCODING 13404
SWIDTH 960 0
DWIDTH 18 0
BBX 18 18 0 -2
BITMAP
000000
000000
7F7F80
31B180
333300
161600
0C0C00
373700
6161C0
000000
7F7F80
31B180
333300
161600
0C0C00
373700
6161C0
000000
ENDCHAR

STARTCHAR jisx0212_345D
ENCODING 13405
SWIDTH 960 0
DWIDTH 18 0
BBX 18 18 0 -2
BITMAP
000000
000000
3FBF80
318180
318180
318180
3FBF80
300000
300000
3F7F80
303180
303180
301B00
3F8E00
301600
307380
31C0C0
000000
ENDCHAR

STARTCHAR jisx0212_345E
ENCODING 13406
SWIDTH 960 0
DWIDTH 18 0
BBX 18 18 0 -2
BITMAP
000000
0C0000
0C7F80
0C6180
3F6180
0C6180
0C6780
0C6000
7FFF80
0C5980
0B5980
1B6B00
196B00
2FC600
78CB00
01B980
0360C0
000000
ENDCHAR

STARTCHAR jisx0212_345F
ENCODING 13407
SWIDTH 960 0
DWIDTH 18 0
BBX 18 18 0 -2
BITMAP
000000
000000
3FBF80
30D980
30D980
3FD980
301980
301980
2FCB00
300B00
3FEB00
330600
2AC600
2B6B00
5B5B00
5B3180
6F60C0
000000
ENDCHAR

STARTCHAR jisx0212_3460
ENCODING 13408
SWIDTH 960 0
DWIDTH 18 0
BBX 18 18 0 -2
BITMAP
000000
0FFE00
000C00
07B800
01F000
7FBF80
199980
0F0F00
1B1D80
7170C0
7FFFC0
6C06C0
6FFEC0
0C0600
0FFE00
0C0600
7FFFC0
000000
ENDCHAR

STARTCHAR jisx0212_3461
ENCODING 13409
SWIDTH 960 0
DWIDTH 18 0
BBX 18 18 0 -2
BITMAP
000000
000000
0FFF00
0C0300
0C0300
0C0300
0C0300
0FFF00
00C000
00C000
3FFF80
00C180
018180
018180
030180
0E0300
783E00
000000
ENDCHAR

STARTCHAR jisx0212_3462
ENCODING 13410
SWIDTH 960 0
DWIDTH 18 0
BBX 18 18 0 -2
BITMAP
000000
000000
0FFF00
0C0300
0C0300
0C0300
0C0300
0FFF00
000000
000000
3FFF80
018180
018180
030180
060180
1C0300
703E00
000000
ENDCHAR

STARTCHAR jisx0212_3463
ENCODING 13411
SWIDTH 960 0
DWIDTH 18 0
BBX 18 18 0 -2
BITMAP
000000
000000
3FFF80
300000
300000
300000
31FE00
318600
318600
318600
318600
31FE00
318000
300000
300000
3FFFC0
300000
000000
ENDCHAR

STARTCHAR jisx0212_3464
ENCODING 13412
SWIDTH 960 0
DWIDTH 18 0
BBX 18 18 0 -2
BITMAP
000000
00C000
00C000
3FFF80
300000
300000
300000
1FFF80
000000
000000
1FFF00
180300
180300
180300
180300
1FFF00
180300
000000
ENDCHAR

STARTCHAR jisx0212_3465
ENCODING 13413
SWIDTH 960 0
DWIDTH 18 0
BBX 18 18 0 -2
BITMAP
000000
000000
000000
7DFFC0
661800
661800
661800
661800
661E00
661B00
661980
7E18C0
601800
601800
001800
001800
001800
000000
ENDCHAR

STARTCHAR jisx0212_3466
ENCODING 13414
SWIDTH 960 0
DWIDTH 18 0
BBX 18 18 0 -2
BITMAP
000000
000000
01FF00
7C3300
6C3300
6C3300
6BFFC0
6C3300
6C3300
6C3300
6DFF00
7C3300
603300
606000
006000
01C000
070000
000000
ENDCHAR

STARTCHAR jisx0212_3467
ENCODING 13415
SWIDTH 960 0
DWIDTH 18 0
BBX 18 18 0 -2
BITMAP
000000
018C00
018C00
7D8C00
6D8C00
6D8CC0
6D8D80
6DEB00
6D8E00
6D8C00
6D8C00
6D8C00
7D8C00
618C00
61ACC0
01ECC0
0F07C0
000000
ENDCHAR

STARTCHAR jisx0212_3468
ENCODING 13416
SWIDTH 960 0
DWIDTH 18 0
BBX 18 18 0 -2
BITMAP
000000
000000
01FF80
7D9980
6D9980
6D9980
6D9980
6D9980
6D9980
6DFF80
6D8180
6D8000
7D8000
6180C0
6180C0
0180C0
00FFC0
000000
ENDCHAR

STARTCHAR jisx0212_3469
ENCODING 13417
SWIDTH 960 0
DWIDTH 18 0
BBX 18 18 0 -2
BITMAP
000000
001800
001980
7C1F00
6BF800
6C1800
6D9980
6D9980
6D9980
6D9980
6D9980
6DFF80
7D9800
619800
6018C0
0018C0
000FC0
000000
ENDCHAR

STARTCHAR jisx0212_346A
ENCODING 13418
SWIDTH 960 0
DWIDTH 18 0
BBX 18 18 0 -2
BITMAP
000000
006C00
006C00
7C6C00
6CCC00
6CCCC0
6CCD80
6DCB00
6DCE00
6ADC00
6EAC00
6CCC00
7CCC00
60CC00
60CCC0
00CCC0
00C7C0
000000
ENDCHAR

STARTCHAR jisx0212_346B
ENCODING 13419
SWIDTH 960 0
DWIDTH 18 0
BBX 18 18 0 -2
BITMAP
000000
000780
1FFC00
180000
180000
1FFF80
180180
180180
1FFF80
180000
180000
17FF80
160180
360180
360180
37FF80
660180
000000
ENDCHAR

STARTCHAR jisx0212_346C
ENCODING 13420
SWIDTH 960 0
DWIDTH 18 0
BBX 18 18 0 -2
BITMAP
000000
001800
001800
7E1800
65FFC0
661800
661800
661800
65FF80
666180
666300
663300
7E3600
601C00
602C00
00E700
0781C0
000000
ENDCHAR

STARTCHAR jisx0212_346D
ENCODING 13421
SWIDTH 960 0
DWIDTH 18 0
BBX 18 18 0 -2
BITMAP
000000
000000
1FFF00
180300
180300
180300
1FFF00
000000
000000
3FFF80
00C000
00C000
7FFFC0
016000
033800
0E0E00
7803C0
000000
ENDCHAR

STARTCHAR jisx0212_346E
ENCODING 13422
SWIDTH 960 0
DWIDTH 18 0
BBX 18 18 0 -2
BITMAP
000000
001800
001800
7E1800
66D600
66DB00
66D980
659980
6598C0
671AC0
661B00
667600
7E0C00
601800
607000
01C000
070000
000000
ENDCHAR

STARTCHAR jisx0212_346F
ENCODING 13423
SWIDTH 960 0
DWIDTH 18 0
BBX 18 18 0 -2
BITMAP
000000
000000
01FFC0
7D8000
6D8000
6D8000
6DBF80
6DB180
6DB180
6DB180
6DB180
6DB180
7DB780
633000
6330C0
0630C0
0C1FC0
000000
ENDCHAR

STARTCHAR jisx0212_3470
ENCODING 13424
SWIDTH 960 0
DWIDTH 18 0
BBX 18 18 0 -2
BITMAP
000000
000000
3FF800
031800
033F80
063180
0C0180
38CF00
60C000
7FFFC0
00C000
00C000
1FFF00
180300
180300
1FFF00
180300
000000
ENDCHAR

STARTCHAR jisx0212_3471
ENCODING 13425
SWIDTH 960 0
DWIDTH 18 0
BBX 18 18 0 -2
BITMAP
000000
00C000
00C300
3EE600
02EC00
06B800
06D800
0CCC00
18C700
73C180
000000
1FFE00
180600
180600
180600
1FFE00
180600
000000
ENDCHAR

STARTCHAR jisx0212_3472
ENCODING 13426
SWIDTH 960 0
DWIDTH 18 0
BBX 18 18 0 -2
BITMAP
000000
000000
01FF80
7E0000
660000
660000
660000
67FFC0
663000
663000
666000
666600
7EC300
60C180
619F80
07F0C0
0000C0
000000
ENDCHAR

STARTCHAR jisx0212_3473
ENCODING 13427
SWIDTH 960 0
DWIDTH 18 0
BBX 18 18 0 -2
BITMAP
000000
001B00
003300
7CE300
6B6300
6C6300
6C6300
6C6300
6BFFC0
6C6300
6C6300
6C6300
7C6300
60C300
60C300
018300
030300
000000
ENDCHAR

STARTCHAR jisx0212_3474
ENCODING 13428
SWIDTH 960 0
DWIDTH 18 0
BBX 18 18 0 -2
BITMAP
000000
000000
01FFC0
7E00C0
6600C0
65FEC0
6600C0
6600C0
66FCC0
66CCC0
66CCC0
66CCC0
7EFCC0
60C0C0
6000C0
0000C0
0007C0
000000
ENDCHAR

STARTCHAR jisx0212_3475
ENCODING 13429
SWIDTH 960 0
DWIDTH 18 0
BBX 18 18 0 -2
BITMAP
000000
000000
01FF80
7D8180
6D8180
6DFF80
6D8000
6DB000
6DB000
6DB180
6DB700
6DBC00
7DB000
633000
6330C0
0630C0
0C1FC0
000000
ENDCHAR

STARTCHAR jisx0212_3476
ENCODING 13430
SWIDTH 960 0
DWIDTH 18 0
BBX 18 18 0 -2
BITMAP
000000
001800
002C00
7E6600
66C300
658180
66FEC0
660000
660000
65FF80
663180
663180
7E3180
603180
603780
003000
003000
000000
ENDCHAR

STARTCHAR jisx0212_3477
ENCODING 13431
SWIDTH 960 0
DWIDTH 18 0
BBX 18 18 0 -2
BITMAP
000000
006600
006600
7CC600
6CC600
6DB600
6B3FC0
6D66C0
6D66C0
6CC6C0
6CC6C0
6D6CC0
7DACC0
62ECC0
6F9980
003180
006F00
000000
ENDCHAR

STARTCHAR jisx0212_3478
ENCODING 13432
SWIDTH 960 0
DWIDTH 18 0
BBX 18 18 0 -2
BITMAP
000000
000180
000F00
7DFC00
6D8C00
6D8C00
6D8C00
6DFFC0
6D8C00
6D8C00
6D8600
6D8600
7DB600
61E2C0
6702C0
0001C0
03FEC0
000000
ENDCHAR

STARTCHAR jisx0212_3479
ENCODING 13433
SWIDTH 960 0
DWIDTH 18 0
BBX 18 18 0 -2
BITMAP
000000
000000
00FF80
7E0000
660000
660000
660000
65FFC0
661800
661800
66DB00
66D980
7D9980
6198C0
6318C0
0618C0
007800
000000
ENDCHAR

STARTCHAR jisx0212_347A
ENCODING 13434
SWIDTH 960 0
DWIDTH 18 0
BBX 18 18 0 -2
BITMAP
000000
001800
001800
7E1800
661FC0
661800
661800
661800
661800
65FF80
658180
658180
7D8180
618180
618180
01FF80
018180
000000
ENDCHAR

STARTCHAR jisx0212_347B
ENCODING 13435
SWIDTH 960 0
DWIDTH 18 0
BBX 18 18 0 -2
BITMAP
000000
003600
01B600
7DB600
6DB600
6DB600
6FFFC0
6DB600
6DB600
6DB600
6DB600
6DBE00
7D8000
618000
618000
01FF80
018000
000000
ENDCHAR

STARTCHAR jisx0212_347C
ENCODING 13436
SWIDTH 960 0
DWIDTH 18 0
BBX 18 18 0 -2
BITMAP
000000
000000
01FF80
7D8180
6D8180
6D8180
6D8180
6D8180
6D8180
6D8180
6DFF80
7C0000
606600
60C300
018180
0700C0
0C00C0
000000
ENDCHAR

STARTCHAR jisx0212_347D
ENCODING 13437
SWIDTH 960 0
DWIDTH 18 0
BBX 18 18 0 -2
BITMAP
000000
006000
006000
7EFFC0
66C0C0
6580C0
6580C0
66FCC0
66CCC0
66CCC0
66CCC0
7ECCC0
60FCC0
60C0C0
00C180
000180
000F00
000000
ENDCHAR

STARTCHAR jisx0212_347E
ENCODING 13438
SWIDTH 960 0
DWIDTH 18 0
BBX 18 18 0 -2
BITMAP
000000
001800
001800
7E1800
65FF80
661800
661800
661800
67FFC0
663000
663000
666600
7E6300
60C180
60DF80
07F0C0
0000C0
000000
ENDCHAR

STARTCHAR jisx0212_3521
ENCODING 13601
SWIDTH 960 0
DWIDTH 18 0
BBX 18 18 0 -2
BITMAP
000000
00C300
00C300
7EC300
67FFC0
66C300
66C300
66C300
66C300
66FF00
66C300
66C300
7EC300
60C300
60C300
00FF00
00C300
000000
ENDCHAR

STARTCHAR jisx0212_3522
ENCODING 13602
SWIDTH 960 0
DWIDTH 18 0
BBX 18 18 0 -2
BITMAP
000000
00CC00
00AC00
7CAC00
6DAB80
6DAD80
6DBD80
6B6D80
6BAD80
6DAD80
6DAD80
6DAB80
7DAC00
61AC00
61B0C0
01B0C0
019FC0
000000
ENDCHAR

STARTCHAR jisx0212_3523
ENCODING 13603
SWIDTH 960 0
DWIDTH 18 0
BBX 18 18 0 -2
BITMAP
000000
00C000
00C000
3FFF80
060C00
060C00
031800
031800
7FFFC0
000000
000000
0FFE00
0C0600
0C0600
0C0600
0FFE00
0C0600
000000
ENDCHAR

STARTCHAR jisx0212_3524
ENCODING 13604
SWIDTH 960 0
DWIDTH 18 0
BBX 18 18 0 -2
BITMAP
000000
006C00
006C00
7BFF80
6C6D80
6C6D80
6DFF80
6D6C00
6D6C00
6B6C00
6BFFC0
6B6CC0
7C6CC0
60CCC0
60CB80
018C00
030C00
000000
ENDCHAR

STARTCHAR jisx0212_3525
ENCODING 13605
SWIDTH 960 0
DWIDTH 18 0
BBX 18 18 0 -2
BITMAP
000000
001800
001800
7C1800
6DFF80
6D9980
6D9980
6D9980
6D9980
6D9980
6FFFC0
6C1800
7C1800
602C00
606600
01C380
0700C0
000000
ENDCHAR

STARTCHAR jisx0212_3526
ENCODING 13606
SWIDTH 960 0
DWIDTH 18 0
BBX 18 18 0 -2
BITMAP
000000
001800
001800
7E3000
663600
666300
666F80
67F8C0
6600C0
660000
66FF80
66C180
7EC180
60C180
60C180
00FF80
00C180
000000
ENDCHAR

STARTCHAR jisx0212_3527
ENCODING 13607
SWIDTH 960 0
DWIDTH 18 0
BBX 18 18 0 -2
BITMAP
000000
00C000
00C000
7CDFC0
6CC300
6BFB00
6CC300
6CC300
6CC300
6CFB00
6BC300
6CC300
7CC300
60C300
60C300
00C300
03CF00
000000
ENDCHAR

STARTCHAR jisx0212_3528
ENCODING 13608
SWIDTH 960 0
DWIDTH 18 0
BBX 18 18 0 -2
BITMAP
000000
001800
001800
7E1800
661800
67FFC0
661800
661800
661800
661800
65FF80
658180
7D8180
618180
618180
01FF80
018180
000000
ENDCHAR

STARTCHAR jisx0212_3529
ENCODING 13609
SWIDTH 960 0
DWIDTH 18 0
BBX 18 18 0 -2
BITMAP
000000
018000
018000
018000
7D87C0
6BF6C0
6DB6C0
6DB6C0
6DB6C0
6DB6C0
6DB6C0
6DB6C0
7B36C0
6336C0
6367C0
0666C0
0DC600
000000
ENDCHAR

STARTCHAR jisx0212_352A
ENCODING 13610
SWIDTH 960 0
DWIDTH 18 0
BBX 18 18 0 -2
BITMAP
000000
001800
001800
7E1800
65FFC0
6580C0
6580C0
6560C0
666000
666380
666E00
667800
7E6000
606000
6060C0
0060C0
003FC0
000000
ENDCHAR

STARTCHAR jisx0212_352B
ENCODING 13611
SWIDTH 960 0
DWIDTH 18 0
BBX 18 18 0 -2
BITMAP
000000
000000
01FFC0
7E1800
661800
663000
66FF80
66C180
66C180
66C180
66FF80
66C180
7EC180
60C180
60C180
00FF80
00C180
000000
ENDCHAR

STARTCHAR jisx0212_352C
ENCODING 13612
SWIDTH 960 0
DWIDTH 18 0
BBX 18 18 0 -2
BITMAP
000000
000000
03FFC0
7EC300
66C300
66C300
66FF00
66C300
66C300
66FF00
66C300
66C300
7EC7C0
60FB00
67C300
000300
000300
000000
ENDCHAR

STARTCHAR jisx0212_352D
ENCODING 13613
SWIDTH 960 0
DWIDTH 18 0
BBX 18 18 0 -2
BITMAP
000000
003000
003000
7BFF80
6C3000
6C3000
6BFF00
6C3300
6DFF00
6DB000
6B3000
6BFF80
7C3180
605780
60CC00
038700
0E01C0
000000
ENDCHAR

STARTCHAR jisx0212_352E
ENCODING 13614
SWIDTH 960 0
DWIDTH 18 0
BBX 18 18 0 -2
BITMAP
000000
000180
03F980
7CC180
6CCD80
6CCD80
6DED80
6DAD80
6DAD80
6BAD80
6AED80
6E6D80
7CCD80
60C180
618180
030180
060780
000000
ENDCHAR

STARTCHAR jisx0212_352F
ENCODING 13615
SWIDTH 960 0
DWIDTH 18 0
BBX 18 18 0 -2
BITMAP
000000
00C300
006300
7E6600
65FFC0
661800
661800
661800
66FF80
661800
661800
7E1800
63FFC0
601800
001800
001800
001800
000000
ENDCHAR

STARTCHAR jisx0212_3530
ENCODING 13616
SWIDTH 960 0
DWIDTH 18 0
BBX 18 18 0 -2
BITMAP
000000
001800
001800
7D9980
6D9980
6CDB00
6CDB00
6C1800
6BFFC0
6C3C00
6C5600
6C5600
7CDB00
619B00
631980
0618C0
001800
000000
ENDCHAR

STARTCHAR jisx0212_3531
ENCODING 13617
SWIDTH 960 0
DWIDTH 18 0
BBX 18 18 0 -2
BITMAP
000000
001800
001800
7C1800
6BFFC0
6C1800
6C1800
6C1800
6DFF80
6C0000
6C0000
6DFF80
7D8180
618180
618180
01FF80
018180
000000
ENDCHAR

STARTCHAR jisx0212_3532
ENCODING 13618
SWIDTH 960 0
DWIDTH 18 0
BBX 18 18 0 -2
BITMAP
000000
001800
00D800
7CD800
6DFF80
6D9800
6B1800
6C1800
6BFFC0
6C3C00
6C5600
6C5600
7CDB00
619980
6318C0
061800
001800
000000
ENDCHAR

STARTCHAR jisx0212_3533
ENCODING 13619
SWIDTH 960 0
DWIDTH 18 0
BBX 18 18 0 -2
BITMAP
000000
001800
003000
7EFF80
66C180
66C180
66C180
66FF80
66C180
66C180
66C180
66FF80
7EC180
60C180
60C180
00FF80
00C180
000000
ENDCHAR

STARTCHAR jisx0212_3534
ENCODING 13620
SWIDTH 960 0
DWIDTH 18 0
BBX 18 18 0 -2
BITMAP
000000
006C00
006C00
7B6CC0
6B6D80
6D6B00
6D6E00
6D6C00
6C6C00
6C6E00
6DEB00
6F6D80
7CCCC0
60CC00
618CC0
030CC0
0607C0
000000
ENDCHAR

STARTCHAR jisx0212_3535
ENCODING 13621
SWIDTH 960 0
DWIDTH 18 0
BBX 18 18 0 -2
BITMAP
000000
001800
001800
7C1800
6BFFC0
6B00C0
6B30C0
6C3000
6BFFC0
6C6600
6C6600
7CC600
60EC00
619C00
001700
007180
03C0C0
000000
ENDCHAR

STARTCHAR jisx0212_3536
ENCODING 13622
SWIDTH 960 0
DWIDTH 18 0
BBX 18 18 0 -2
BITMAP
000000
000000
01FFC0
7E0000
660000
66FF80
66C180
66C180
66C180
66FF80
66C180
66C180
7EC180
60FF80
600000
000000
03FFC0
000000
ENDCHAR

STARTCHAR jisx0212_3537
ENCODING 13623
SWIDTH 960 0
DWIDTH 18 0
BBX 18 18 0 -2
BITMAP
000000
00CC00
00CC00
7CCC00
6D8C00
6D7FC0
6D8C00
6B9E00
6B9E00
6DAB00
6DAB00
6D6D80
7D6D80
61CCC0
618C00
018C00
018C00
000000
ENDCHAR

STARTCHAR jisx0212_3538
ENCODING 13624
SWIDTH 960 0
DWIDTH 18 0
BBX 18 18 0 -2
BITMAP
000000
00C000
00C000
7CFF00
6D9B00
6D9B00
6DFFC0
6B9B00
6B9B00
6D9B00
6D7F00
6D9B00
7D9800
619800
61B000
01B000
016000
000000
ENDCHAR

STARTCHAR jisx0212_3539
ENCODING 13625
SWIDTH 960 0
DWIDTH 18 0
BBX 18 18 0 -2
BITMAP
000000
001800
003000
7C7F00
6CC300
6B6600
6C2C00
6C3800
6CE600
6B8FC0
6C18C0
6C7180
7DDB00
600E00
601C00
007000
03C000
000000
ENDCHAR

STARTCHAR jisx0212_353A
ENCODING 13626
SWIDTH 960 0
DWIDTH 18 0
BBX 18 18 0 -2
BITMAP
000000
001800
001800
7DFFC0
663000
666000
667F80
66E180
66E180
657F80
666180
666180
7E7F80
606180
606180
006180
006780
000000
ENDCHAR

STARTCHAR jisx0212_353B
ENCODING 13627
SWIDTH 960 0
DWIDTH 18 0
BBX 18 18 0 -2
BITMAP
000000
001800
001800
7C3000
6DFFC0
6D80C0
6D80C0
6DBEC0
6DB6C0
6DB6C0
6DB6C0
7DB6C0
61BEC0
61B0C0
0180C0
0180C0
0183C0
000000
ENDCHAR

STARTCHAR jisx0212_353C
ENCODING 13628
SWIDTH 960 0
DWIDTH 18 0
BBX 18 18 0 -2
BITMAP
000000
006600
006600
7BFFC0
6C6600
6C6600
6C0000
6CC300
6CC300
6D6600
6D6600
6B2C00
7C1800
602C00
606600
01C380
0700C0
000000
ENDCHAR

STARTCHAR jisx0212_353D
ENCODING 13629
SWIDTH 960 0
DWIDTH 18 0
BBX 18 18 0 -2
BITMAP
000000
000C00
006C00
7E6C00
667F80
66CC00
66CC00
660C00
65FFC0
660C00
660000
66FF80
7EC180
60C180
60C180
00FF80
00C180
000000
ENDCHAR

STARTCHAR jisx0212_353E
ENCODING 13630
SWIDTH 960 0
DWIDTH 18 0
BBX 18 18 0 -2
BITMAP
000000
000000
07EFC0
7DACC0
6DAD80
6DAD80
6FFB00
6DAB00
6DAD80
6DAD80
6FFCC0
6DACC0
7DACC0
632CC0
632B80
066C00
0DCC00
000000
ENDCHAR

STARTCHAR jisx0212_353F
ENCODING 13631
SWIDTH 960 0
DWIDTH 18 0
BBX 18 18 0 -2
BITMAP
000000
00C000
00C000
7CFFC0
6D8180
6D8180
6D8180
6BBD80
6BAD80
6DAD80
6DAD80
6DAD80
7DBD80
61B180
618180
018180
018780
000000
ENDCHAR

STARTCHAR jisx0212_3540
ENCODING 13632
SWIDTH 960 0
DWIDTH 18 0
BBX 18 18 0 -2
BITMAP
000000
000000
00FF80
7EC180
66C180
66FF80
66C180
66C180
66FF80
66C180
66C180
66FF80
7E3600
603600
6066C0
01C6C0
0707C0
000000
ENDCHAR

STARTCHAR jisx0212_3541
ENCODING 13633
SWIDTH 960 0
DWIDTH 18 0
BBX 18 18 0 -2
BITMAP
000000
006600
006600
7BE7C0
6C6600
6C6600
6C0000
6DFF80
6C1800
6C1800
6C1800
6BFFC0
7C1800
601800
601800
001800
001800
000000
ENDCHAR

STARTCHAR jisx0212_3542
ENCODING 13634
SWIDTH 960 0
DWIDTH 18 0
BBX 18 18 0 -2
BITMAP
000000
001800
001800
7BFFC0
6C0000
6DFF80
6D8180
6D8180
6DFF80
6C0000
6BFFC0
6C0380
7C1E00
601800
601800
001800
007800
000000
ENDCHAR

STARTCHAR jisx0212_3543
ENCODING 13635
SWIDTH 960 0
DWIDTH 18 0
BBX 18 18 0 -2
BITMAP
000000
000000
007E00
7C0600
6CC600
6D8300
6BFF80
6D82C0
6D8300
6D8300
6DFF00
6C6C00
7C6C00
606C00
60CCC0
038CC0
0E07C0
000000
ENDCHAR

STARTCHAR jisx0212_3544
ENCODING 13636
SWIDTH 960 0
DWIDTH 18 0
BBX 18 18 0 -2
BITMAP
000000
0C0000
0C3F80
7FB180
0DB180
19B180
19B180
373F80
600000
7FFFC0
000300
0FE300
0C6300
0C6300
0FE300
0C0300
001F00
000000
ENDCHAR

STARTCHAR jisx0212_3545
ENCODING 13637
SWIDTH 960 0
DWIDTH 18 0
BBX 18 18 0 -2
BITMAP
000000
000380
01FE00
7C1800
6C1800
6BFFC0
6C3C00
6C5600
6DDB80
6B00C0
6DFF00
6C3300
7C3600
6067C0
60CCC0
0180C0
030780
000000
ENDCHAR

STARTCHAR jisx0212_3546
ENCODING 13638
SWIDTH 960 0
DWIDTH 18 0
BBX 18 18 0 -2
BITMAP
000000
000000
00FF80
7E0000
660000
67FFC0
660000
66FF80
660000
66FF80
660000
660000
7EFF80
60C180
60C180
00FF80
00C180
000000
ENDCHAR

STARTCHAR jisx0212_3547
ENCODING 13639
SWIDTH 960 0
DWIDTH 18 0
BBX 18 18 0 -2
BITMAP
000000
003800
006C00
7CC600
6D8300
6AFD80
6E00C0
6DFF00
6C0300
6C0600
6C0C00
6DFF80
7D8180
618180
618180
01FF80
018180
000000
ENDCHAR

STARTCHAR jisx0212_3548
ENCODING 13640
SWIDTH 960 0
DWIDTH 18 0
BBX 18 18 0 -2
BITMAP
000000
000000
00FF80
7EC180
66C180
66FF80
660000
65FFC0
6598C0
6598C0
6598C0
65FFC0
7D8000
618000
6180C0
0180C0
00FFC0
000000
ENDCHAR

STARTCHAR jisx0212_3549
ENCODING 13641
SWIDTH 960 0
DWIDTH 18 0
BBX 18 18 0 -2
BITMAP
000000
003000
006000
7C6600
6CC300
6BFD80
6CC0C0
6CC000
6DFF80
6D9800
6B1800
6BFFC0
7C1800
602C00
606600
01C380
0F00C0
000000
ENDCHAR

STARTCHAR jisx0212_354A
ENCODING 13642
SWIDTH 960 0
DWIDTH 18 0
BBX 18 18 0 -2
BITMAP
000000
000000
03E1C0
7C5F00
6CC600
6CC600
6D9600
6DD7C0
6B5600
6C5600
6B5600
7B5600
655600
66CFC0
01C000
037000
0E1FC0
000000
ENDCHAR

STARTCHAR jisx0212_354B
ENCODING 13643
SWIDTH 960 0
DWIDTH 18 0
BBX 18 18 0 -2
BITMAP
000000
001800
001800
7BFFC0
6B00C0
6B00C0
6DFF80
6C0000
6C0000
6BFFC0
6C6600
6C6600
7C6600
606600
60C6C0
0186C0
0703C0
000000
ENDCHAR

STARTCHAR jisx0212_354C
ENCODING 13644
SWIDTH 960 0
DWIDTH 18 0
BBX 18 18 0 -2
BITMAP
000000
0038C0
03E0C0
7CC6C0
6CC6C0
6CC6C0
6BF6C0
6CC6C0
6CC6C0
6DE6C0
6DB6C0
7AD6C0
62D6C0
66C6C0
0CC0C0
00C0C0
00C3C0
000000
ENDCHAR

STARTCHAR jisx0212_354D
ENCODING 13645
SWIDTH 960 0
DWIDTH 18 0
BBX 18 18 0 -2
BITMAP
000000
001800
003000
7DFF80
6D8180
6D8180
6DFF80
6D8180
6D8180
6DFF80
6C1800
6C1800
7BFFC0
601800
601800
001800
001800
000000
ENDCHAR

STARTCHAR jisx0212_354E
ENCODING 13646
SWIDTH 960 0
DWIDTH 18 0
BBX 18 18 0 -2
BITMAP
000000
003000
003000
7BFF80
6C3000
6DFF80
6C6C00
6FFFC0
6CC600
6CDB00
6D9980
6AFEC0
7E1800
61FF80
601800
001800
001800
000000
ENDCHAR

STARTCHAR jisx0212_354F
ENCODING 13647
SWIDTH 960 0
DWIDTH 18 0
BBX 18 18 0 -2
BITMAP
000000
001800
002C00
006600
7EC300
658180
66FEC0
661800
661800
65FF80
661800
659980
66D980
7EDB00
60D600
601800
03FFC0
000000
ENDCHAR

STARTCHAR jisx0212_3550
ENCODING 13648
SWIDTH 960 0
DWIDTH 18 0
BBX 18 18 0 -2
BITMAP
000000
001800
007000
7DCF80
6D8180
6D8180
6DEF80
6D8180
6D8180
6D8180
6DFF80
6C6C00
7C6C00
606C00
60CCC0
018CC0
0707C0
000000
ENDCHAR

STARTCHAR jisx0212_3551
ENCODING 13649
SWIDTH 960 0
DWIDTH 18 0
BBX 18 18 0 -2
BITMAP
000000
006000
006000
7BFFC0
6CCC00
6CC600
6DB300
6B3180
6DFEC0
6DB300
6DFF00
6DB300
7DB300
61FF00
6030C0
0030C0
001FC0
000000
ENDCHAR

STARTCHAR jisx0212_3552
ENCODING 13650
SWIDTH 960 0
DWIDTH 18 0
BBX 18 18 0 -2
BITMAP
000000
006300
006300
7DFFC0
666300
666300
666300
67FFC0
660000
66FF80
66C180
66C180
7EFF80
60C180
60C180
00FF80
00C180
000000
ENDCHAR

STARTCHAR jisx0212_3553
ENCODING 13651
SWIDTH 960 0
DWIDTH 18 0
BBX 18 18 0 -2
BITMAP
000000
001800
001800
7BFFC0
6C1800
6CDB00
6CDB00
6CDB00
6D5580
6D5580
6B3C00
6C3600
7C5600
60DB00
639980
0E18C0
001800
000000
ENDCHAR

STARTCHAR jisx0212_3554
ENCODING 13652
SWIDTH 960 0
DWIDTH 18 0
BBX 18 18 0 -2
BITMAP
000000
001800
001800
7DFFC0
6CC600
6C6600
6C6C00
6BFFC0
6C3000
6C6000
6BFFC0
6C6600
7CC600
60EC00
619E00
007380
03C0C0
000000
ENDCHAR

STARTCHAR jisx0212_3555
ENCODING 13653
SWIDTH 960 0
DWIDTH 18 0
BBX 18 18 0 -2
BITMAP
000000
00C1C0
00CF00
7CCC00
6CCC00
6BEC00
6CCFC0
6CCD80
6DED80
6DED80
6DAD80
6AAD80
7ACD80
66CD80
60D980
00D980
00B180
000000
ENDCHAR

STARTCHAR jisx0212_3556
ENCODING 13654
SWIDTH 960 0
DWIDTH 18 0
BBX 18 18 0 -2
BITMAP
000000
000000
01FFC0
7D80C0
6D98C0
6D7EC0
6D98C0
6D98C0
6D7EC0
6D98C0
6D80C0
6D7EC0
7D66C0
6366C0
637EC0
0660C0
0C03C0
000000
ENDCHAR

STARTCHAR jisx0212_3557
ENCODING 13655
SWIDTH 960 0
DWIDTH 18 0
BBX 18 18 0 -2
BITMAP
000000
00C000
00C000
7FFFC0
060C00
031800
3FFF80
30C180
30C180
2FFD80
30C180
37FD80
360D80
360D80
37FD80
360180
300780
000000
ENDCHAR

STARTCHAR jisx0212_3558
ENCODING 13656
SWIDTH 960 0
DWIDTH 18 0
BBX 18 18 0 -2
BITMAP
000000
00C600
00C600
7CC600
6CC600
6BFFC0
6CC600
6CCF00
6DEF00
6DAF00
6DD580
6AD580
7AB6C0
66B6C0
60E600
00C600
00C600
000000
ENDCHAR

STARTCHAR jisx0212_3559
ENCODING 13657
SWIDTH 960 0
DWIDTH 18 0
BBX 18 18 0 -2
BITMAP
000000
000000
03FFC0
7B6180
6AC180
6AC180
6B9D80
6AD580
6AD580
6B5580
6B5580
6B5D80
7B5980
63C180
630180
030180
030780
000000
ENDCHAR

STARTCHAR jisx0212_355A
ENCODING 13658
SWIDTH 960 0
DWIDTH 18 0
BBX 18 18 0 -2
BITMAP
000000
001800
001800
7BFFC0
6C0000
6DFF80
6D8180
6DFF80
6C0000
6DFF80
6C0700
6C1C00
7C1800
63FFC0
601800
001800
007800
000000
ENDCHAR

STARTCHAR jisx0212_355B
ENCODING 13659
SWIDTH 960 0
DWIDTH 18 0
BBX 18 18 0 -2
BITMAP
000000
001800
001800
7BFF80
6C0000
6CC600
6CC600
6DCE00
6D6B00
6B3980
6E3180
6C1800
7BFFC0
601800
601800
001800
001800
000000
ENDCHAR

STARTCHAR jisx0212_355C
ENCODING 13660
SWIDTH 960 0
DWIDTH 18 0
BBX 18 18 0 -2
BITMAP
000000
003000
003000
7BFFC0
6C3000
6DFF00
6C3300
6BFFC0
6C3300
6C3300
6DFF00
6C3000
7DB000
61BF80
63B000
06B000
0C7FC0
000000
ENDCHAR

STARTCHAR jisx0212_355D
ENCODING 13661
SWIDTH 960 0
DWIDTH 18 0
BBX 18 18 0 -2
BITMAP
000000
001800
001800
7BFFC0
6B00C0
6AC0C0
6CCF80
6CED80
6DAD80
6DAD80
6DAD80
6AAD80
7E6B80
606C00
60CCC0
018CC0
0307C0
000000
ENDCHAR

STARTCHAR jisx0212_355E
ENCODING 13662
SWIDTH 960 0
DWIDTH 18 0
BBX 18 18 0 -2
BITMAP
000000
000000
1FFE00
180600
180600
1FFE00
00C000
7FFF80
000000
3FFF00
300300
37FB00
361B00
37FB00
300300
3FFF00
300300
000000
ENDCHAR

STARTCHAR jisx0212_355F
ENCODING 13663
SWIDTH 960 0
DWIDTH 18 0
BBX 18 18 0 -2
BITMAP
000000
003000
003000
7BFFC0
6C3000
6DFF00
6C3300
6FFFC0
6C3300
6DFF00
6C6000
6BFFC0
7CC600
61EC00
631600
007380
07C0C0
000000
ENDCHAR

STARTCHAR jisx0212_3560
ENCODING 13664
SWIDTH 960 0
DWIDTH 18 0
BBX 18 18 0 -2
BITMAP
000000
000000
07FFC0
7C6C00
6C6C00
6C6C00
6BEF80
6B6D80
6B0180
6B0180
6B0180
6BEF80
7B6D80
606C00
606C00
006C00
07FFC0
000000
ENDCHAR

STARTCHAR jisx0212_3561
ENCODING 13665
SWIDTH 960 0
DWIDTH 18 0
BBX 18 18 0 -2
BITMAP
000000
01C380
1F3E00
183000
183000
1FBFC0
1B3300
1B3300
336300
336300
60C000
0FFF00
0C0300
0C0300
0C0300
0FFF00
0C0300
000000
ENDCHAR

STARTCHAR jisx0212_3562
ENCODING 13666
SWIDTH 960 0
DWIDTH 18 0
BBX 18 18 0 -2
BITMAP
000000
006C00
006C00
7C6C00
6BEFC0
6C6C00
6C6C00
6C6C00
6BEF80
6C6C00
6C6C00
7C6C00
63EFC0
6ECC00
00CC00
018C00
030C00
000000
ENDCHAR

STARTCHAR jisx0212_3563
ENCODING 13667
SWIDTH 960 0
DWIDTH 18 0
BBX 18 18 0 -2
BITMAP
000000
003000
006000
7DFF80
6D9980
6D9980
6DFF80
6D9980
6D9980
6DFF80
6C2C00
6C6C00
7CCC00
67FFC0
600C00
000C00
000C00
000000
ENDCHAR

STARTCHAR jisx0212_3564
ENCODING 13668
SWIDTH 960 0
DWIDTH 18 0
BBX 18 18 0 -2
BITMAP
000000
018600
018600
7D8600
6DBFC0
6FE000
6DB180
6DB180
6D9980
6DD980
6F9B00
6D9B00
7D9B00
619B00
619600
018600
077FC0
000000
ENDCHAR

STARTCHAR jisx0212_3565
ENCODING 13669
SWIDTH 960 0
DWIDTH 18 0
BBX 18 18 0 -2
BITMAP
000000
00C600
00C600
7BFFC0
6CC600
6CFE00
6CC600
6CFE00
6CC600
6FFFC0
6DAC00
6DAD80
7D6D80
61CF80
618000
01FFC0
018000
000000
ENDCHAR

STARTCHAR jisx0212_3566
ENCODING 13670
SWIDTH 960 0
DWIDTH 18 0
BBX 18 18 0 -2
BITMAP
000000
000000
01FF80
7D9980
6D9980
6DFF80
6D9980
6D9980
6DFF80
6C1800
6BFFC0
6B16C0
7B1AC0
631EC0
62F1C0
0300C0
0303C0
000000
ENDCHAR

STARTCHAR jisx0212_3567
ENCODING 13671
SWIDTH 960 0
DWIDTH 18 0
BBX 18 18 0 -2
BITMAP
000000
000000
01FF80
7D9980
6D9980
6DFF80
6D9980
6D9980
6DFF80
6C0000
6BFFC0
6CD980
7CDB00
60CE00
60C600
00FB80
0780C0
000000
ENDCHAR

STARTCHAR jisx0212_3568
ENCODING 13672
SWIDTH 960 0
DWIDTH 18 0
BBX 18 18 0 -2
BITMAP
000000
0C0C00
0C0C00
0C0C00
7F7FC0
0C0C00
0C0C00
0C0C00
7FBF80
000000
000000
3FBF80
31B180
31B180
31B180
3FBF80
31B180
000000
ENDCHAR

STARTCHAR jisx0212_3569
ENCODING 13673
SWIDTH 960 0
DWIDTH 18 0
BBX 18 18 0 -2
BITMAP
000000
018C00
018CC0
7DEB80
6D8E00
6D8CC0
6D6CC0
6BD7C0
6C3000
6DFF80
6D8180
6D8180
7DFF80
618180
618180
01FF80
018180
000000
ENDCHAR

STARTCHAR jisx0212_356A
ENCODING 13674
SWIDTH 960 0
DWIDTH 18 0
BBX 18 18 0 -2
BITMAP
000000
000000
00FF00
7CC300
6CC300
6CDF00
6CDB00
6CDB00
6BFFC0
6B00C0
6B00C0
6B7EC0
7B66C0
6366C0
637EC0
0360C0
0303C0
000000
ENDCHAR

STARTCHAR jisx0212_356B
ENCODING 13675
SWIDTH 960 0
DWIDTH 18 0
BBX 18 18 0 -2
BITMAP
000000
006600
006600
7BFFC0
6C6600
6C6600
6C3000
6C3000
6BFFC0
6C6000
6CC000
6CFF80
7DC180
62C180
66C180
00FF80
00C180
000000
ENDCHAR

STARTCHAR jisx0212_356C
ENCODING 13676
SWIDTH 960 0
DWIDTH 18 0
BBX 18 18 0 -2
BITMAP
000000
003000
003000
7BFF80
6D8600
6CC600
6CCC00
6FFFC0
6C0000
6DFF00
6D8300
6D8300
7DFF00
618300
618300
01FF00
018300
000000
ENDCHAR

STARTCHAR jisx0212_356D
ENCODING 13677
SWIDTH 960 0
DWIDTH 18 0
BBX 18 18 0 -2
BITMAP
000000
00C600
00C600
7CF600
6DB7C0
6DB600
6AE600
6C6600
6CB800
6D8FC0
6B0000
6DFF80
7D8180
61FF80
618180
01FF80
018180
000000
ENDCHAR

STARTCHAR jisx0212_356E
ENCODING 13678
SWIDTH 960 0
DWIDTH 18 0
BBX 18 18 0 -2
BITMAP
000000
000000
03FFC0
7C2C00
6C2C00
6DFF80
6DAD80
6DAD80
6DBD80
6D6180
6C6000
6BFFC0
7CC600
61F600
618E00
003B80
07E0C0
000000
ENDCHAR

STARTCHAR jisx0212_356F
ENCODING 13679
SWIDTH 960 0
DWIDTH 18 0
BBX 18 18 0 -2
BITMAP
000000
000000
03FF80
7B0180
6B0180
6BFF80
6B0000
6BFFC0
6B3600
6B3300
6B6D80
6BF980
7B1800
66FF80
661800
0C1800
1BFFC0
000000
ENDCHAR

STARTCHAR jisx0212_3570
ENCODING 13680
SWIDTH 960 0
DWIDTH 18 0
BBX 18 18 0 -2
BITMAP
000000
000000
03FFC0
7B18C0
6B18C0
6DFF80
6C1800
6DFF80
6D9980
6DFF80
6D9980
6DFF80
7C1800
601800
67FFC0
001800
001800
000000
ENDCHAR

STARTCHAR jisx0212_3571
ENCODING 13681
SWIDTH 960 0
DWIDTH 18 0
BBX 18 18 0 -2
BITMAP
000000
006000
3F6000
337F80
32C180
32FD80
336D80
336D80
336D80
3F7D80
306300
300E00
000000
1B3300
199980
3198C0
6198C0
000000
ENDCHAR

STARTCHAR jisx0212_3572
ENCODING 13682
SWIDTH 960 0
DWIDTH 18 0
BBX 18 18 0 -2
BITMAP
000000
001800
003000
7DFF80
6D8180
6DFF80
6D8180
6D8180
6DFF80
6C0000
6BFFC0
6C1800
7C1800
61FF80
601800
001800
07FFC0
000000
ENDCHAR

STARTCHAR jisx0212_3573
ENCODING 13683
SWIDTH 960 0
DWIDTH 18 0
BBX 18 18 0 -2
BITMAP
000000
001800
001800
7BFFC0
6C7600
6C1C00
6C7600
6DC300
6BFFC0
6B0600
6B1D80
6AF300
7B0E00
62F8C0
660380
061E00
0DF000
000000
ENDCHAR

STARTCHAR jisx0212_3574
ENCODING 13684
SWIDTH 960 0
DWIDTH 18 0
BBX 18 18 0 -2
BITMAP
000000
018C00
018C00
7B6C00
6E5FC0
6AD8C0
6DB0C0
6D80C0
6B60C0
6FBEC0
6D80C0
7D60C0
6560C0
65B0C0
0DB180
0D8180
018F00
000000
ENDCHAR

STARTCHAR jisx0212_3575
ENCODING 13685
SWIDTH 960 0
DWIDTH 18 0
BBX 18 18 0 -2
BITMAP
000000
000000
07FC00
060C00
060C00
07FC00
000000
3FBF80
31B180
31B180
3FBF80
00C000
7FFFC0
02B000
06DC00
1CC700
70C1C0
000000
ENDCHAR

STARTCHAR jisx0212_3576
ENCODING 13686
SWIDTH 960 0
DWIDTH 18 0
BBX 18 18 0 -2
BITMAP
000000
000380
03FE00
7B1800
6B1F80
6B1800
6AFF80
6AD980
6ADF00
6AF980
6ADF80
6AC000
7AD600
66D600
6596C0
0DB6C0
1B63C0
000000
ENDCHAR

STARTCHAR jisx0212_3577
ENCODING 13687
SWIDTH 960 0
DWIDTH 18 0
BBX 18 18 0 -2
BITMAP
000000
001800
001800
7BFFC0
6C0000
6CFF00
6CC300
6CFF00
6C0000
6BFFC0
6B00C0
6B7EC0
7B66C0
6366C0
637EC0
0360C0
0303C0
000000
ENDCHAR

STARTCHAR jisx0212_3578
ENCODING 13688
SWIDTH 960 0
DWIDTH 18 0
BBX 18 18 0 -2
BITMAP
000000
003800
006C00
7CC600
6D7B00
6B0180
6DFEC0
6D8300
6DFF00
6D8300
6DFF00
6D8000
7DFF80
62C180
62C180
06FF80
0CC180
000000
ENDCHAR

STARTCHAR jisx0212_3579
ENCODING 13689
SWIDTH 960 0
DWIDTH 18 0
BBX 18 18 0 -2
BITMAP
000000
001800
001800
7BFFC0
6C1800
6DFF80
6C1800
6BFFC0
6C3600
6CEC00
6C5B00
6C3180
7BFEC0
6018C0
60DB00
019980
0718C0
000000
ENDCHAR

STARTCHAR jisx0212_357A
ENCODING 13690
SWIDTH 960 0
DWIDTH 18 0
BBX 18 18 0 -2
BITMAP
000000
003000
01FF80
7C6180
6BCF00
6CC300
6BEFC0
6DB6C0
6DB6C0
6AEB80
6DFF80
6D8180
7DFF80
618180
61FF80
018180
018780
000000
ENDCHAR

STARTCHAR jisx0212_357B
ENCODING 13691
SWIDTH 960 0
DWIDTH 18 0
BBX 18 18 0 -2
BITMAP
000000
000000
003E00
00C600
7CC300
6D7D80
6B00C0
6C3E00
6CC600
6CC600
6D8300
6BFF80
7D5AC0
615B00
615B00
015B00
07FFC0
000000
ENDCHAR

STARTCHAR jisx0212_357C
ENCODING 13692
SWIDTH 960 0
DWIDTH 18 0
BBX 18 18 0 -2
BITMAP
000000
000000
01FFC0
7D9800
6D9800
6DFF80
6D9800
6DFF80
6D9800
6D9800
6DFFC0
6C00C0
7D56C0
6156C0
6356C0
036180
060700
000000
ENDCHAR

STARTCHAR jisx0212_357D
ENCODING 13693
SWIDTH 960 0
DWIDTH 18 0
BBX 18 18 0 -2
BITMAP
000000
001800
001800
7DFF80
6C1800
6C1800
6BFFC0
6C3600
6C6300
6BFD80
6C00C0
6C0000
7DFF80
61AD80
61AD80
01AD80
07FFC0
000000
ENDCHAR

STARTCHAR jisx0212_357E
ENCODING 13694
SWIDTH 960 0
DWIDTH 18 0
BBX 18 18 0 -2
BITMAP
000000
00C600
00C600
7BFF80
6CC600
6CC600
6C3800
6C6C00
6CC600
6D7B00
6B0180
6E00C0
7DFF00
618300
618300
01FF00
018300
000000
ENDCHAR

STARTCHAR jisx0212_3621
ENCODING 13857
SWIDTH 960 0
DWIDTH 18 0
BBX 18 18 0 -2
BITMAP
000000
000000
01FF80
7C6700
6C3C00
6C7600
6DC300
6BFFC0
6DAD80
6CE700
6DAD80
6B18C0
7BFFC0
603C00
605600
01DB80
0718C0
000000
ENDCHAR

STARTCHAR jisx0212_3622
ENCODING 13858
SWIDTH 960 0
DWIDTH 18 0
BBX 18 18 0 -2
BITMAP
000000
000000
00FF00
7CC300
6CDF00
6CDB00
6CDB00
6BFFC0
6B00C0
6AFEC0
6CC300
6CFF00
7CC300
60FF00
60C300
00C300
00CF00
000000
ENDCHAR

STARTCHAR jisx0212_3623
ENCODING 13859
SWIDTH 960 0
DWIDTH 18 0
BBX 18 18 0 -2
BITMAP
000000
000780
01FE00
7D9B00
6D8D80
6B2CC0
6D6600
6CCC00
6C5B00
6C3180
6BFEC0
6C1800
7BFFC0
602C00
606600
01C380
0700C0
000000
ENDCHAR

STARTCHAR jisx0212_3624
ENCODING 13860
SWIDTH 960 0
DWIDTH 18 0
BBX 18 18 0 -2
BITMAP
000000
001980
007700
7DDC00
6C6C00
6BFFC0
6C6C00
6DFF80
6C6D80
6BFFC0
6C6D80
6DFF80
7CEE00
616B00
636D80
066CC0
0C6C00
000000
ENDCHAR

STARTCHAR jisx0212_3625
ENCODING 13861
SWIDTH 960 0
DWIDTH 18 0
BBX 18 18 0 -2
BITMAP
000000
00C600
00C600
7BFFC0
6CC600
6CC600
6CC300
6D8600
6DB6C0
6F5D80
6B6D80
6DC700
7D8600
616580
636D80
0FBEC0
0030C0
000000
ENDCHAR

STARTCHAR jisx0212_3626
ENCODING 13862
SWIDTH 960 0
DWIDTH 18 0
BBX 18 18 0 -2
BITMAP
000000
000000
01FF00
7D9B00
6D9B00
6DAB00
6D6700
6DC300
6DFF00
6C0000
6BFF80
6B6D80
7B6D80
636D80
636D80
036D80
0FFFC0
000000
ENDCHAR

STARTCHAR jisx0212_3627
ENCODING 13863
SWIDTH 960 0
DWIDTH 18 0
BBX 18 18 0 -2
BITMAP
000000
003000
00B600
7DB300
6B3180
6DFEC0
6D8300
6D8300
6DFF00
6D8300
6DFF00
6D8300
7D8300
61FF00
60C600
038380
0E00C0
000000
ENDCHAR

STARTCHAR jisx0212_3628
ENCODING 13864
SWIDTH 960 0
DWIDTH 18 0
BBX 18 18 0 -2
BITMAP
000000
000000
01FF80
7D9980
6DFF80
6D9980
6DFF80
6CDB00
6CDB00
6BFFC0
6CDB00
6CDB00
7BFFC0
601800
61FF80
001800
001800
000000
ENDCHAR

STARTCHAR jisx0212_3629
ENCODING 13865
SWIDTH 960 0
DWIDTH 18 0
BBX 18 18 0 -2
BITMAP
000000
003800
006C00
7CC600
6B7B80
6E00C0
6DFF00
6C0600
6DFF00
6D8300
6DFF00
6D8300
7DFF00
618300
61FF00
01C700
0F01C0
000000
ENDCHAR

STARTCHAR jisx0212_362A
ENCODING 13866
SWIDTH 960 0
DWIDTH 18 0
BBX 18 18 0 -2
BITMAP
000000
00C000
019FC0
7BF300
6B2B00
6BEB00
6B2B00
6B2B00
6BEFC0
6C0B00
6B3700
6AE700
7B8B00
632B00
63FAC0
0032C0
0063C0
000000
ENDCHAR

STARTCHAR jisx0212_362B
ENCODING 13867
SWIDTH 960 0
DWIDTH 18 0
BBX 18 18 0 -2
BITMAP
000000
002C00
002C00
7BFFC0
6C2C00
6DFF80
6DAD80
6DFF80
6DAD80
6DFF80
6C0000
6CFF00
7CC300
60FF00
60C300
00FF00
00C300
000000
ENDCHAR

STARTCHAR jisx0212_362C
ENCODING 13868
SWIDTH 960 0
DWIDTH 18 0
BBX 18 18 0 -2
BITMAP
000000
001800
019980
7D9980
6DFF80
6C0000
6BFFC0
6B0C00
6B7F80
6B0C00
6B0C00
6AFFC0
7B0C00
637F80
660C00
060C00
0DFFC0
000000
ENDCHAR

STARTCHAR jisx0212_362D
ENCODING 13869
SWIDTH 960 0
DWIDTH 18 0
BBX 18 18 0 -2
BITMAP
000000
001800
01FF80
7D9980
6BFFC0
6D9980
6DFF80
6C1800
6DFF80
6D9980
6DFF80
6C6000
7BFFC0
60C600
61EC00
003700
07E1C0
000000
ENDCHAR

STARTCHAR jisx0212_362E
ENCODING 13870
SWIDTH 960 0
DWIDTH 18 0
BBX 18 18 0 -2
BITMAP
000000
000000
03FFC0
7C3000
6DFF80
6D8180
6DFF80
6D8180
6DFF80
6D8180
6DFF80
6C3300
7C3FC0
63D600
600CC0
0076C0
07C1C0
000000
ENDCHAR

STARTCHAR jisx0212_362F
ENCODING 13871
SWIDTH 960 0
DWIDTH 18 0
BBX 18 18 0 -2
BITMAP
000000
180000
19EF80
19B180
19B180
7FB180
19EF80
198000
198000
3DDF80
358D80
358D80
35EB00
358600
358B00
3D9980
31B0C0
000000
ENDCHAR

STARTCHAR jisx0212_3630
ENCODING 13872
SWIDTH 960 0
DWIDTH 18 0
BBX 18 18 0 -2
BITMAP
000000
000000
03EF80
7CB580
6DAD80
6B7B80
6CB580
6DAD80
6B7980
6CCC00
6B9700
6E71C0
7BCE00
603980
63E700
003C00
03E000
000000
ENDCHAR

STARTCHAR jisx0212_3631
ENCODING 13873
SWIDTH 960 0
DWIDTH 18 0
BBX 18 18 0 -2
BITMAP
000000
003000
003F80
7C3000
6BFFC0
6B30C0
6B3E00
6AF180
6B3F80
6B0700
6AFD80
6B6D80
7B2B00
62FFC0
660C00
060C00
0C3C00
000000
ENDCHAR

STARTCHAR jisx0212_3632
ENCODING 13874
SWIDTH 960 0
DWIDTH 18 0
BBX 18 18 0 -2
BITMAP
000000
00C300
00C300
7BEFC0
6CC300
6BEFC0
6CC300
6CEFC0
6BC300
6CC300
6C0000
6BFF80
7C0180
63FFC0
600180
03FF80
000180
000000
ENDCHAR

STARTCHAR jisx0212_3633
ENCODING 13875
SWIDTH 960 0
DWIDTH 18 0
BBX 18 18 0 -2
BITMAP
000000
000C00
030C00
7D7F80
6E6D80
6B7F00
6C5B00
6D5B00
6D6E00
6ADB00
6D71C0
6C6000
7BFFC0
60C600
61EC00
003700
07E180
000000
ENDCHAR

STARTCHAR jisx0212_3634
ENCODING 13876
SWIDTH 960 0
DWIDTH 18 0
BBX 18 18 0 -2
BITMAP
000000
000000
01FF00
7D8300
6DFF00
6D8300
6DFF00
6C0000
6FFFC0
6B6000
6BFF80
6B6D80
7BEB00
636600
63EB00
0F5980
0070C0
000000
ENDCHAR

STARTCHAR jisx0212_3635
ENCODING 13877
SWIDTH 960 0
DWIDTH 18 0
BBX 18 18 0 -2
BITMAP
000000
001800
00D980
7D9B00
6B56C0
6DDB80
6D9B00
6B56C0
6FFFC0
6C1B00
6BFFC0
6B1800
7B9980
62CB00
66CEC0
063AC0
0CE1C0
000000
ENDCHAR

STARTCHAR jisx0212_3636
ENCODING 13878
SWIDTH 960 0
DWIDTH 18 0
BBX 18 18 0 -2
BITMAP
000000
001800
01FF80
7D9980
6DFF80
6C1800
6BFFC0
6C0000
6DFF80
6D8180
6DFF80
6D8180
7DFF80
618180
61FF80
00E700
0781C0
000000
ENDCHAR

STARTCHAR jisx0212_3637
ENCODING 13879
SWIDTH 960 0
DWIDTH 18 0
BBX 18 18 0 -2
BITMAP
000000
001800
001800
7DFF80
6C1800
6BFFC0
6CC300
6BEFC0
6CC300
6BFFC0
6C0000
6BFFC0
7C6C00
606C00
60CCC0
018CC0
0707C0
000000
ENDCHAR

STARTCHAR jisx0212_3638
ENCODING 13880
SWIDTH 960 0
DWIDTH 18 0
BBX 18 18 0 -2
BITMAP
000000
001800
003000
7DFF80
6D8180
6DFF80
6D8180
6DFF80
6C1800
6BD7C0
6C1800
6BD7C0
7C1800
63FFC0
601800
001800
001800
000000
ENDCHAR

STARTCHAR jisx0212_3639
ENCODING 13881
SWIDTH 960 0
DWIDTH 18 0
BBX 18 18 0 -2
BITMAP
000000
001800
001800
7BFFC0
6C2C00
6D6580
6CC300
6DFF80
6AC2C0
6CFF00
6CC300
6CFF00
7C1800
60DB00
639980
0E18C0
007800
000000
ENDCHAR

STARTCHAR jisx0212_363A
ENCODING 13882
SWIDTH 960 0
DWIDTH 18 0
BBX 18 18 0 -2
BITMAP
000000
001800
001800
7BFFC0
6C1800
6DFF80
6C0000
6DFF80
6D8180
6DFF80
6C6600
6BFFC0
7C0000
61FF80
618180
01FF80
018180
000000
ENDCHAR

STARTCHAR jisx0212_363B
ENCODING 13883
SWIDTH 960 0
DWIDTH 18 0
BBX 18 18 0 -2
BITMAP
000000
000000
3FBF80
31B180
3FBF80
000000
1FFF00
18C300
1FFF00
18C300
1FFF00
000000
7FFFC0
000000
1FFF00
180300
1FFF00
000000
ENDCHAR

STARTCHAR jisx0212_363C
ENCODING 13884
SWIDTH 960 0
DWIDTH 18 0
BBX 18 18 0 -2
BITMAP
000000
000000
03EFC0
7B2CC0
6B2CC0
6BEFC0
6C0000
6DFF80
6D9980
6DFF80
6D9980
6DFF80
7C1800
67FFC0
601800
001800
001800
000000
ENDCHAR

STARTCHAR jisx0212_363D
ENCODING 13885
SWIDTH 960 0
DWIDTH 18 0
BBX 18 18 0 -2
BITMAP
000000
000000
01FF80
7D9980
6DD580
6D5D80
6D9980
6DFF80
6D9800
6C1800
6DFF80
6C1800
7BFFC0
600000
616D80
0336C0
0636C0
000000
ENDCHAR

STARTCHAR jisx0212_363E
ENCODING 13886
SWIDTH 960 0
DWIDTH 18 0
BBX 18 18 0 -2
BITMAP
000000
000000
03EF80
7B6D80
6BEF80
6B0C00
6B2CC0
6BEFC0
6C6600
6C6600
6BFFC0
6C6600
7C6600
67FFC0
60C600
038380
0E00C0
000000
ENDCHAR

STARTCHAR jisx0212_363F
ENCODING 13887
SWIDTH 960 0
DWIDTH 18 0
BBX 18 18 0 -2
BITMAP
000000
000000
03FFC0
7C2C00
6C2C00
6DEF80
6DAD80
6D8180
6DEF80
6DAD80
6C2C00
6BFFC0
7C1800
636D80
6360C0
0366C0
063E00
000000
ENDCHAR

STARTCHAR jisx0212_3640
ENCODING 13888
SWIDTH 960 0
DWIDTH 18 0
BBX 18 18 0 -2
BITMAP
000000
000380
03FE00
7D9B00
6CDB00
6CD600
6BFFC0
6C3C00
6C5600
6DDB80
6B00C0
6DFF80
7D9980
61FF80
619980
01FF80
018180
000000
ENDCHAR

STARTCHAR jisx0212_3641
ENCODING 13889
SWIDTH 960 0
DWIDTH 18 0
BBX 18 18 0 -2
BITMAP
000000
00C000
00EFC0
7BC6C0
6CF6C0
6BC6C0
6CECC0
6BCB80
6CB600
6D6C00
6CDB00
6C7180
7BFEC0
601800
60DB00
019980
0718C0
000000
ENDCHAR

STARTCHAR jisx0212_3642
ENCODING 13890
SWIDTH 960 0
DWIDTH 18 0
BBX 18 18 0 -2
BITMAP
000000
006300
01EFC0
7D6B00
6D6B00
6BFFC0
6CE700
6D6AC0
6D6AC0
6ADBC0
6C0000
6DFF80
7D8180
61FF80
618180
01FF80
018180
000000
ENDCHAR

STARTCHAR jisx0212_3643
ENCODING 13891
SWIDTH 960 0
DWIDTH 18 0
BBX 18 18 0 -2
BITMAP
000000
000600
03F600
7CC600
6CCC00
6FFFC0
6B6D80
6B6D80
6BDD80
6B5D80
6B6D80
6BEB00
7B6700
636600
63EB00
0F5980
0070C0
000000
ENDCHAR

STARTCHAR jisx0212_3644
ENCODING 13892
SWIDTH 960 0
DWIDTH 18 0
BBX 18 18 0 -2
BITMAP
000000
00C600
00C600
7FF600
6C0C00
6BEFC0
6B2D80
6BED80
6C1D80
6BED80
6C6D80
6CCB00
7CF700
67C600
60CB00
00D980
03B0C0
000000
ENDCHAR

STARTCHAR jisx0212_3645
ENCODING 13893
SWIDTH 960 0
DWIDTH 18 0
BBX 18 18 0 -2
BITMAP
000000
006600
00CC00
7CFFC0
6DCC00
6ACC00
6EFF80
6CCC00
6CFF80
6CCC00
6CCC00
6CFFC0
7C0000
616B00
616D80
0336C0
0636C0
000000
ENDCHAR

STARTCHAR jisx0212_3646
ENCODING 13894
SWIDTH 960 0
DWIDTH 18 0
BBX 18 18 0 -2
BITMAP
000000
003800
006C00
7CC600
6B7B80
6E00C0
6DFF00
6D8300
6DFF00
6C0000
6BDF80
6D6580
7B6D80
66DB80
616580
036D80
06DB80
000000
ENDCHAR

STARTCHAR jisx0212_3647
ENCODING 13895
SWIDTH 960 0
DWIDTH 18 0
BBX 18 18 0 -2
BITMAP
000000
001800
03ED80
7C6B00
6EC6C0
6AC580
6D8300
6AFD80
6E00C0
6DFF00
6D8300
6D8300
7DFF00
60C600
606600
006C00
07FFC0
000000
ENDCHAR

STARTCHAR jisx0212_3648
ENCODING 13896
SWIDTH 960 0
DWIDTH 18 0
BBX 18 18 0 -2
BITMAP
000000
001800
002C00
7C6600
6CC300
6D7D80
6B00C0
6C0000
6DEF80
6DAD80
6DAD80
6DEF80
7CC600
60C600
616B00
033980
0630C0
000000
ENDCHAR

STARTCHAR jisx0212_3649
ENCODING 13897
SWIDTH 960 0
DWIDTH 18 0
BBX 18 18 0 -2
BITMAP
000000
000C00
030C00
7D7F80
6C0C00
6CFFC0
6B3300
6D9600
6CFFC0
6C0C00
6F7F80
6D8C00
7DFFC0
618C00
618C00
02C000
067FC0
000000
ENDCHAR

STARTCHAR jisx0212_364A
ENCODING 13898
SWIDTH 960 0
DWIDTH 18 0
BBX 18 18 0 -2
BITMAP
000000
006000
00FE00
7D8C00
6BFFC0
6DAD80
6D6F80
6DC000
6D7F80
6D8000
6DFFC0
6D8000
7D7F80
630000
637F80
066180
0C7F80
000000
ENDCHAR

STARTCHAR jisx0212_364B
ENCODING 13899
SWIDTH 960 0
DWIDTH 18 0
BBX 18 18 0 -2
BITMAP
000000
001800
003000
7DFF80
6D8D80
6D7980
6D5580
6DFF80
6DBD80
6D5580
6DC180
6C1800
7BFFC0
601800
602C00
00E700
0781C0
000000
ENDCHAR

STARTCHAR jisx0212_364C
ENCODING 13900
SWIDTH 960 0
DWIDTH 18 0
BBX 18 18 0 -2
BITMAP
000000
000000
01FF80
7DAD80
6DAD80
6DFF80
6C6000
6CFFC0
6DB0C0
6B30C0
6DFEC0
6DB6C0
7DFEC0
602CC0
603EC0
03E6C0
000380
000000
ENDCHAR

STARTCHAR jisx0212_364D
ENCODING 13901
SWIDTH 960 0
DWIDTH 18 0
BBX 18 18 0 -2
BITMAP
000000
001800
00D800
7CDF80
6CD800
6BFFC0
6C0B00
6BFFC0
6B0C00
6B0C00
6BFD80
6B6D80
7ADB00
6556C0
6776C0
0CEDC0
1B98C0
000000
ENDCHAR

STARTCHAR jisx0212_364E
ENCODING 13902
SWIDTH 960 0
DWIDTH 18 0
BBX 18 18 0 -2
BITMAP
000000
000000
7FFFC0
00C000
3EDF00
36DB00
36DB00
3EDF00
00C000
3FFF80
00C000
3EDF00
36DB00
36DB00
3EDF00
00C000
7FFFC0
000000
ENDCHAR

STARTCHAR jisx0212_364F
ENCODING 13903
SWIDTH 960 0
DWIDTH 18 0
BBX 18 18 0 -2
BITMAP
000000
00C600
018600
7BF600
6B2C00
6BEFC0
6B2D80
6BED80
6CDD80
6CAD80
6FED80
6D8B00
7DF700
633600
632B00
065980
0DB0C0
000000
ENDCHAR

STARTCHAR jisx0212_3650
ENCODING 13904
SWIDTH 960 0
DWIDTH 18 0
BBX 18 18 0 -2
BITMAP
000000
000380
03FE00
7DB180
6CDB00
6BFFC0
6B30C0
6B5AC0
6D6580
6B7E00
6C3000
6C7F00
7CE300
63B600
661C00
00F700
0781C0
000000
ENDCHAR

STARTCHAR jisx0212_3651
ENCODING 13905
SWIDTH 960 0
DWIDTH 18 0
BBX 18 18 0 -2
BITMAP
000000
003000
003F80
7C3000
6BFF80
6B3180
6AFE00
6B3180
6BFFC0
6B0C00
6B3980
6AEB00
7B3600
62EF00
65B580
06E6C0
0BBC00
000000
ENDCHAR

STARTCHAR jisx0212_3652
ENCODING 13906
SWIDTH 960 0
DWIDTH 18 0
BBX 18 18 0 -2
BITMAP
000000
003800
006C00
7CC600
6D8300
6AFD80
6E00C0
6BFF80
6BB580
6AAD80
6BFF80
6C0000
7DFF00
618300
61FF00
018300
01FF00
000000
ENDCHAR

STARTCHAR jisx0212_3653
ENCODING 13907
SWIDTH 960 0
DWIDTH 18 0
BBX 18 18 0 -2
BITMAP
000000
18C600
0C6C00
33FFC0
183000
01FF80
3D8180
0DFF80
0D8180
0DFF80
158180
33FFC0
600000
1FFF80
180180
180180
1FFF80
000000
ENDCHAR

STARTCHAR jisx0212_3654
ENCODING 13908
SWIDTH 960 0
DWIDTH 18 0
BBX 18 18 0 -2
BITMAP
000000
006600
03FFC0
7C6600
6CCC00
6DFFC0
6ACC00
6EFF80
6CCC00
6CFF80
6CCC00
6CFFC0
7C0000
61FF80
606300
003E00
07E3C0
000000
ENDCHAR

STARTCHAR jisx0212_3655
ENCODING 13909
SWIDTH 960 0
DWIDTH 18 0
BBX 18 18 0 -2
BITMAP
000000
000000
01FFC0
7C1800
6BFFC0
6B18C0
6AD6C0
6C1800
6DD780
6C0000
6BFFC0
6C3000
7BFFC0
636CC0
636CC0
036CC0
036BC0
000000
ENDCHAR

STARTCHAR jisx0212_3656
ENCODING 13910
SWIDTH 960 0
DWIDTH 18 0
BBX 18 18 0 -2
BITMAP
000000
000000
03FFC0
7B0000
6AFB00
6ADB80
6AFAC0
6ADFC0
6AFB00
6B0300
6AFB00
6ADB00
7AF580
62D580
66F580
06DCC0
0CB8C0
000000
ENDCHAR

STARTCHAR jisx0212_3657
ENCODING 13911
SWIDTH 960 0
DWIDTH 18 0
BBX 18 18 0 -2
BITMAP
000000
003000
03FF80
7C3000
6DFF00
6C0000
6BFFC0
6C00C0
6DFEC0
6C3000
6BFF80
6C0300
7FBFC0
66B300
66DB00
07C300
060F00
000000
ENDCHAR

STARTCHAR jisx0212_3658
ENCODING 13912
SWIDTH 960 0
DWIDTH 18 0
BBX 18 18 0 -2
BITMAP
000000
003000
003000
7BFFC0
6C5980
6FAF00
6AAB00
6AAD80
6DBEC0
6C3000
6D8300
6DFF00
7D8300
61FF00
618300
030300
060300
000000
ENDCHAR

STARTCHAR jisx0212_3659
ENCODING 13913
SWIDTH 960 0
DWIDTH 18 0
BBX 18 18 0 -2
BITMAP
000000
00C000
00FE00
7D8C00
6BFF80
6D9980
6DFF80
6D9980
6DFF80
6D6D80
6B36C0
6DFF80
7D8180
61FF80
618180
01FF80
018180
000000
ENDCHAR

STARTCHAR jisx0212_365A
ENCODING 13914
SWIDTH 960 0
DWIDTH 18 0
BBX 18 18 0 -2
BITMAP
000000
001800
00D800
7CDF80
6CD800
6FFFC0
6C6600
6B6580
6AAB80
6B9980
6BFF80
6B6580
7B6580
62AB80
639980
03FF80
030180
000000
ENDCHAR

STARTCHAR jisx0212_365B
ENCODING 13915
SWIDTH 960 0
DWIDTH 18 0
BBX 18 18 0 -2
BITMAP
000000
000000
3FBF80
31B180
3FBF80
000000
3FFFC0
30C000
3FFF00
300300
3FFF00
30C000
3FFFC0
000000
3FBF80
31B180
3FBF80
000000
ENDCHAR

STARTCHAR jisx0212_365C
ENCODING 13916
SWIDTH 960 0
DWIDTH 18 0
BBX 18 18 0 -2
BITMAP
000000
001800
001800
7BFFC0
6B6300
6BFFC0
6B6300
6B7F00
6B0000
6BFFC0
6AD980
6AFF80
7AD980
62FF80
660000
067780
0DC0C0
000000
ENDCHAR

STARTCHAR jisx0212_365D
ENCODING 13917
SWIDTH 960 0
DWIDTH 18 0
BBX 18 18 0 -2
BITMAP
000000
00C000
7FFF80
00C000
3FFF00
000000
1FFE00
180600
1FFE00
0C0C00
7F7FC0
0C0C00
7FBF80
000000
7F3F80
633180
7F3F80
000000
ENDCHAR

STARTCHAR jisx0212_365E
ENCODING 13918
SWIDTH 960 0
DWIDTH 18 0
BBX 18 18 0 -2
BITMAP
000000
003600
03E600
7CCFC0
6BEAC0
6CDAC0
6DE6C0
6AACC0
6EC380
6C7800
6CCC00
7BB700
6EADC0
607800
01AE00
073380
00F0C0
000000
ENDCHAR

STARTCHAR jisx0212_365F
ENCODING 13919
SWIDTH 960 0
DWIDTH 18 0
BBX 18 18 0 -2
BITMAP
000000
000000
03FFC0
7B0000
6B3B80
6BEE00
6B6600
6BFFC0
6B6600
6AEF00
6B5580
7B6600
631800
62DF80
06D800
06D800
0BFFC0
000000
ENDCHAR

STARTCHAR jisx0212_3660
ENCODING 13920
SWIDTH 960 0
DWIDTH 18 0
BBX 18 18 0 -2
BITMAP
000000
003000
003F00
7C3000
6BFFC0
6B30C0
6B3D80
6BF180
6B3F80
6B0000
6AFF00
7ADB00
62FF00
66DB00
05FF80
0DAD80
1BFFC0
000000
ENDCHAR

STARTCHAR jisx0212_3661
ENCODING 13921
SWIDTH 960 0
DWIDTH 18 0
BBX 18 18 0 -2
BITMAP
000000
00CC00
00CC00
7BEFC0
6B2C00
6DAFC0
6D60C0
6FFFC0
6C0C00
6BEFC0
6B2C00
7BEFC0
632C00
63EFC0
032C00
032CC0
02F7C0
000000
ENDCHAR

STARTCHAR jisx0212_3662
ENCODING 13922
SWIDTH 960 0
DWIDTH 18 0
BBX 18 18 0 -2
BITMAP
000000
00C580
0186C0
7B3FC0
6E6600
6ABFC0
6DB6C0
6DBFC0
6AB6C0
6FF5C0
6D8180
7BBFC0
635980
656D80
056D80
0D8180
018780
000000
ENDCHAR

STARTCHAR jisx0212_3663
ENCODING 13923
SWIDTH 960 0
DWIDTH 18 0
BBX 18 18 0 -2
BITMAP
000000
018000
019F80
7FF980
6B5980
6B5F80
6AD980
6FF980
6D9F80
6D9980
6FF980
7D9F80
63CB00
636B00
059AC0
0DB2C0
0163C0
000000
ENDCHAR

STARTCHAR jisx0212_3664
ENCODING 13924
SWIDTH 960 0
DWIDTH 18 0
BBX 18 18 0 -2
BITMAP
000000
00C000
00BFC0
7AC600
6AEC00
6ADF80
6AD980
6FF980
6C1F80
6D9980
6BBF80
7D5980
655980
6BDF80
018B00
071980
1C30C0
000000
ENDCHAR

STARTCHAR jisx0212_3665
ENCODING 13925
SWIDTH 960 0
DWIDTH 18 0
BBX 18 18 0 -2
BITMAP
000000
0C0000
0C7FC0
7FC600
0C0C00
3F8B00
001D80
3FACC0
316CC0
3F8C00
1B0000
7FBF80
003180
3FB180
31B180
3FBF80
31B180
000000
ENDCHAR

STARTCHAR jisx0212_3666
ENCODING 13926
SWIDTH 960 0
DWIDTH 18 0
BBX 18 18 0 -2
BITMAP
000000
00C600
00F700
78C580
57F6C0
56D600
57EFC0
56D600
56F6C0
5606C0
57F580
75B580
65F300
6C32C0
0D65C0
196DC0
37D8C0
000000
ENDCHAR

STARTCHAR jisx0212_3667
ENCODING 13927
SWIDTH 960 0
DWIDTH 18 0
BBX 18 18 0 -2
BITMAP
000000
02B000
1E5F00
19B300
1F1F00
18B300
1F5F00
19B300
7FFFC0
66C0C0
6FFEC0
18C000
7FFFC0
00C000
1FFF00
180300
1FFF00
000000
ENDCHAR

ENDFONT
